<svg xmlns="http://www.w3.org/2000/svg" xmlns:xlink="http://www.w3.org/1999/xlink" width="126.372" height="127.455" viewBox="0 0 126.372 127.455">
  <defs>
    <clipPath id="clip-path">
      <rect x="31" y="-8" width="126.372" height="127.455" fill="none"/>
    </clipPath>
  </defs>
  <g id="Add_button" data-name="Add button" transform="translate(-31 8)" clip-path="url(#clip-path)" style="isolation: isolate">
    <g id="noun-add-937142" transform="translate(-70.578 -109.54)">
      <path id="Tracé_176" data-name="Tracé 176" d="M234.41,109.54a57.34,57.34,0,1,0,0,114.68c31.558.206,57.34-25.577,57.34-57.34A57.481,57.481,0,0,0,234.41,109.54Zm0,107.869a50.533,50.533,0,1,1,50.533-50.533A50.614,50.614,0,0,1,234.41,217.409Z" transform="translate(-70.8 0)" fill="#fff"/>
      <path id="Tracé_177" data-name="Tracé 177" d="M316.654,221.266H295.2V199.815a3.506,3.506,0,1,0-7.012,0v21.451H266.739a3.506,3.506,0,1,0,0,7.012H288.19v21.451a3.506,3.506,0,0,0,7.012,0V228.073h21.451a3.614,3.614,0,0,0,3.506-3.506,3.438,3.438,0,0,0-3.506-3.3Z" transform="translate(-128.084 -57.687)" fill="#fff"/>
      <g id="Groupe_162" data-name="Groupe 162" transform="translate(70.897 283.806)">
        <path id="Tracé_178" data-name="Tracé 178" d="M7.925-15.591a4.905,4.905,0,0,1-1.115.419,5.041,5.041,0,0,1-1.2.141,4.137,4.137,0,0,1-2.98-1.047,3.764,3.764,0,0,1-1.095-2.849,3.756,3.756,0,0,1,1.095-2.849,4.129,4.129,0,0,1,2.98-1.053,5.041,5.041,0,0,1,1.2.141,4.829,4.829,0,0,1,1.115.414v1.555a4.238,4.238,0,0,0-1.063-.534,3.491,3.491,0,0,0-1.1-.173,2.087,2.087,0,0,0-1.634.665,2.658,2.658,0,0,0-.592,1.833A2.646,2.646,0,0,0,4.128-17.1a2.083,2.083,0,0,0,1.634.665,3.49,3.49,0,0,0,1.1-.173,4.309,4.309,0,0,0,1.063-.539Z" transform="translate(-1.531 22.828)" fill="#fff"/>
      </g>
      <g id="Groupe_163" data-name="Groupe 163" transform="translate(78.817 285.68)">
        <path id="Tracé_179" data-name="Tracé 179" d="M6.768-15.564a2.314,2.314,0,0,0-.471-.162,2.185,2.185,0,0,0-.471-.052,1.326,1.326,0,0,0-1.068.445,1.939,1.939,0,0,0-.372,1.278v2.6H2.578V-17.1H4.385v.927a2.257,2.257,0,0,1,.8-.806,2.153,2.153,0,0,1,1.079-.257c.059,0,.123,0,.194.01s.175.014.309.031Z" transform="translate(-2.578 17.234)" fill="#fff"/>
      </g>
      <g id="Groupe_164" data-name="Groupe 164" transform="translate(83.483 285.68)">
        <path id="Tracé_180" data-name="Tracé 180" d="M7.377-14.291v.513H3.167a1.335,1.335,0,0,0,.456.953,1.718,1.718,0,0,0,1.1.314,4.259,4.259,0,0,0,1.163-.168,5.792,5.792,0,0,0,1.225-.513V-11.8a7.572,7.572,0,0,1-1.278.361,6.616,6.616,0,0,1-1.278.126,3.394,3.394,0,0,1-2.378-.775,2.817,2.817,0,0,1-.848-2.184,2.855,2.855,0,0,1,.833-2.173,3.2,3.2,0,0,1,2.294-.791,2.859,2.859,0,0,1,2.121.8,2.9,2.9,0,0,1,.8,2.142Zm-1.854-.6a1.153,1.153,0,0,0-.3-.827,1.028,1.028,0,0,0-.78-.314,1.223,1.223,0,0,0-.854.3,1.364,1.364,0,0,0-.408.843Z" transform="translate(-1.329 17.234)" fill="#fff"/>
      </g>
      <g id="Groupe_165" data-name="Groupe 165" transform="translate(90.478 285.68)">
        <path id="Tracé_181" data-name="Tracé 181" d="M4.277-14a1.516,1.516,0,0,0-.848.194.643.643,0,0,0-.283.566.664.664,0,0,0,.225.534.96.96,0,0,0,.639.194,1.136,1.136,0,0,0,.854-.361,1.275,1.275,0,0,0,.351-.916V-14Zm2.755-.676v3.216H5.214V-12.3a2.308,2.308,0,0,1-.817.749,2.354,2.354,0,0,1-1.1.236,2,2,0,0,1-1.424-.508,1.741,1.741,0,0,1-.545-1.33A1.627,1.627,0,0,1,2.009-14.6a3.861,3.861,0,0,1,2.142-.466H5.214v-.141a.678.678,0,0,0-.34-.628,2.141,2.141,0,0,0-1.053-.2,4.8,4.8,0,0,0-1.074.115,3.6,3.6,0,0,0-.927.351v-1.377a10.391,10.391,0,0,1,1.157-.215,9.518,9.518,0,0,1,1.173-.073,3.272,3.272,0,0,1,2.2.6,2.5,2.5,0,0,1,.681,1.959Z" transform="translate(-1.328 17.234)" fill="#fff"/>
      </g>
      <g id="Groupe_166" data-name="Groupe 166" transform="translate(97.128 284.214)">
        <path id="Tracé_182" data-name="Tracé 182" d="M3.1-21.609v1.6H4.962v1.288H3.1v2.393a.707.707,0,0,0,.157.534.985.985,0,0,0,.618.136h.927v1.288H3.26a2.093,2.093,0,0,1-1.513-.445A2.093,2.093,0,0,1,1.3-16.325v-2.393h-.9v-1.288h.9v-1.6Z" transform="translate(-0.406 21.609)" fill="#fff"/>
      </g>
      <g id="Groupe_167" data-name="Groupe 167" transform="translate(102.366 285.68)">
        <path id="Tracé_183" data-name="Tracé 183" d="M7.377-14.291v.513H3.167a1.335,1.335,0,0,0,.456.953,1.718,1.718,0,0,0,1.1.314,4.259,4.259,0,0,0,1.163-.168,5.792,5.792,0,0,0,1.225-.513V-11.8a7.572,7.572,0,0,1-1.278.361,6.616,6.616,0,0,1-1.278.126,3.394,3.394,0,0,1-2.378-.775,2.817,2.817,0,0,1-.848-2.184,2.855,2.855,0,0,1,.833-2.173,3.2,3.2,0,0,1,2.294-.791,2.859,2.859,0,0,1,2.121.8,2.9,2.9,0,0,1,.8,2.142Zm-1.854-.6a1.153,1.153,0,0,0-.3-.827,1.028,1.028,0,0,0-.78-.314,1.223,1.223,0,0,0-.854.3,1.364,1.364,0,0,0-.408.843Z" transform="translate(-1.329 17.234)" fill="#fff"/>
      </g>
      <g id="Groupe_168" data-name="Groupe 168" transform="translate(109.377 283.622)">
        <path id="Tracé_184" data-name="Tracé 184" d="M5.617-20.353v-3.022H7.429v7.834H5.617v-.817a2.477,2.477,0,0,1-.822.733,2.233,2.233,0,0,1-1.037.23,2.1,2.1,0,0,1-1.712-.827,3.273,3.273,0,0,1-.67-2.131,3.275,3.275,0,0,1,.67-2.131,2.1,2.1,0,0,1,1.712-.833,2.209,2.209,0,0,1,1.037.236,2.516,2.516,0,0,1,.822.728ZM4.428-16.7a1.021,1.021,0,0,0,.885-.424,2.1,2.1,0,0,0,.3-1.225,2.108,2.108,0,0,0-.3-1.231,1.021,1.021,0,0,0-.885-.424,1.013,1.013,0,0,0-.88.424,2.1,2.1,0,0,0-.3,1.231,2.086,2.086,0,0,0,.3,1.225,1.013,1.013,0,0,0,.88.424Z" transform="translate(-1.375 23.375)" fill="#fff"/>
      </g>
      <g id="Groupe_169" data-name="Groupe 169" transform="translate(120.753 283.622)">
        <path id="Tracé_185" data-name="Tracé 185" d="M5.579-16.7a1.021,1.021,0,0,0,.885-.424,2.1,2.1,0,0,0,.3-1.225,2.108,2.108,0,0,0-.3-1.231,1.021,1.021,0,0,0-.885-.424,1.025,1.025,0,0,0-.885.429,2.055,2.055,0,0,0-.309,1.225,2.066,2.066,0,0,0,.309,1.225,1.027,1.027,0,0,0,.885.424Zm-1.194-3.65a2.491,2.491,0,0,1,.822-.728,2.235,2.235,0,0,1,1.042-.236,2.105,2.105,0,0,1,1.712.833,3.283,3.283,0,0,1,.67,2.131,3.28,3.28,0,0,1-.67,2.131,2.108,2.108,0,0,1-1.712.827,2.235,2.235,0,0,1-1.042-.236,2.476,2.476,0,0,1-.822-.728v.817H2.578v-7.834H4.385Z" transform="translate(-2.578 23.375)" fill="#fff"/>
      </g>
      <g id="Groupe_170" data-name="Groupe 170" transform="translate(127.396 285.817)">
        <path id="Tracé_186" data-name="Tracé 186" d="M.375-16.828h1.8L3.7-13l1.288-3.828h1.8L4.413-10.654A2.993,2.993,0,0,1,3.58-9.339a1.969,1.969,0,0,1-1.257.377H1.281v-1.184h.566a1.188,1.188,0,0,0,.665-.147.964.964,0,0,0,.325-.524l.052-.157Z" transform="translate(-0.375 16.828)" fill="#fff"/>
      </g>
      <g id="Groupe_171" data-name="Groupe 171" transform="translate(138.531 283.942)">
        <path id="Tracé_187" data-name="Tracé 187" d="M5.839-19.515a1.042,1.042,0,0,0,.691-.2.742.742,0,0,0,.241-.6A.736.736,0,0,0,6.53-20.9a1.028,1.028,0,0,0-.691-.2H4.765v1.592ZM5.9-16.227a1.341,1.341,0,0,0,.88-.246.916.916,0,0,0,.293-.744.9.9,0,0,0-.293-.733A1.334,1.334,0,0,0,5.9-18.2H4.765v1.969Zm1.8-2.7a1.7,1.7,0,0,1,.969.67,2.047,2.047,0,0,1,.34,1.2,1.872,1.872,0,0,1-.733,1.618,3.808,3.808,0,0,1-2.236.534H2.828v-7.515H5.734A4.185,4.185,0,0,1,8-21.951a1.687,1.687,0,0,1,.707,1.513,1.666,1.666,0,0,1-.257.937,1.531,1.531,0,0,1-.749.571Z" transform="translate(-2.828 22.422)" fill="#fff"/>
      </g>
      <g id="Groupe_172" data-name="Groupe 172" transform="translate(145.889 285.68)">
        <path id="Tracé_188" data-name="Tracé 188" d="M4.434-15.946a1.061,1.061,0,0,0-.916.435A2.083,2.083,0,0,0,3.2-14.271a2.094,2.094,0,0,0,.314,1.241,1.063,1.063,0,0,0,.916.429,1.049,1.049,0,0,0,.9-.429,2.094,2.094,0,0,0,.314-1.241,2.083,2.083,0,0,0-.314-1.241A1.046,1.046,0,0,0,4.434-15.946Zm0-1.288a3.145,3.145,0,0,1,2.273.786,2.881,2.881,0,0,1,.817,2.179A2.872,2.872,0,0,1,6.707-12.1a3.145,3.145,0,0,1-2.273.786A3.169,3.169,0,0,1,2.151-12.1a2.861,2.861,0,0,1-.822-2.173,2.869,2.869,0,0,1,.822-2.179A3.169,3.169,0,0,1,4.434-17.235Z" transform="translate(-1.328 17.235)" fill="#fff"/>
      </g>
      <g id="Groupe_173" data-name="Groupe 173" transform="translate(153.382 285.68)">
        <path id="Tracé_189" data-name="Tracé 189" d="M7.784-16.161a2.484,2.484,0,0,1,.812-.8,2.01,2.01,0,0,1,1.037-.278,1.833,1.833,0,0,1,1.482.6,2.621,2.621,0,0,1,.508,1.739v3.435H9.811V-14.4c0-.045.005-.09.005-.136s.005-.117.005-.2a1.612,1.612,0,0,0-.178-.864.634.634,0,0,0-.571-.272.889.889,0,0,0-.791.424,2.26,2.26,0,0,0-.288,1.22v2.77H6.182V-14.4a2.8,2.8,0,0,0-.162-1.2.618.618,0,0,0-.576-.272.908.908,0,0,0-.8.424,2.213,2.213,0,0,0-.278,1.215v2.776H2.547V-17.1H4.364v.827a2.312,2.312,0,0,1,.759-.717,1.874,1.874,0,0,1,.948-.246,1.885,1.885,0,0,1,1.032.283,1.788,1.788,0,0,1,.681.791Z" transform="translate(-2.547 17.234)" fill="#fff"/>
      </g>
      <g id="Groupe_174" data-name="Groupe 174" transform="translate(164.013 283.805)">
        <path id="Tracé_190" data-name="Tracé 190" d="M7.645-22.457v1.592a7.054,7.054,0,0,0-1.215-.419,4.752,4.752,0,0,0-1.11-.141,2.121,2.121,0,0,0-1.026.194.634.634,0,0,0-.33.592.557.557,0,0,0,.22.471A2.161,2.161,0,0,0,5-19.88l.827.168a3.574,3.574,0,0,1,1.781.765,1.947,1.947,0,0,1,.529,1.461A2.254,2.254,0,0,1,7.4-15.638a3.493,3.493,0,0,1-2.252.607,7.794,7.794,0,0,1-1.44-.136,8.747,8.747,0,0,1-1.435-.4V-17.2a7.129,7.129,0,0,0,1.388.576,4.685,4.685,0,0,0,1.3.194,1.839,1.839,0,0,0,.969-.209.68.68,0,0,0,.34-.607.66.66,0,0,0-.23-.539,2.3,2.3,0,0,0-.911-.346L4.377-18.3a3.224,3.224,0,0,1-1.655-.77A1.946,1.946,0,0,1,2.2-20.5a2.124,2.124,0,0,1,.723-1.728,3.2,3.2,0,0,1,2.09-.6,8.945,8.945,0,0,1,1.273.094,11.1,11.1,0,0,1,1.356.278Z" transform="translate(-2.203 22.828)" fill="#fff"/>
      </g>
      <g id="Groupe_175" data-name="Groupe 175" transform="translate(170.827 285.817)">
        <path id="Tracé_191" data-name="Tracé 191" d="M.375-16.828h1.8L3.7-13l1.288-3.828h1.8L4.413-10.654A2.993,2.993,0,0,1,3.58-9.339a1.969,1.969,0,0,1-1.257.377H1.281v-1.184h.566a1.188,1.188,0,0,0,.665-.147.964.964,0,0,0,.325-.524l.052-.157Z" transform="translate(-0.375 16.828)" fill="#fff"/>
      </g>
      <g id="Groupe_176" data-name="Groupe 176" transform="translate(178.278 285.68)">
        <path id="Tracé_192" data-name="Tracé 192" d="M7.784-16.161a2.484,2.484,0,0,1,.812-.8,2.01,2.01,0,0,1,1.037-.278,1.833,1.833,0,0,1,1.482.6,2.621,2.621,0,0,1,.508,1.739v3.435H9.811V-14.4c0-.045.005-.09.005-.136s.005-.117.005-.2a1.612,1.612,0,0,0-.178-.864.634.634,0,0,0-.571-.272.889.889,0,0,0-.791.424,2.26,2.26,0,0,0-.288,1.22v2.77H6.182V-14.4a2.8,2.8,0,0,0-.162-1.2.618.618,0,0,0-.576-.272.908.908,0,0,0-.8.424,2.213,2.213,0,0,0-.278,1.215v2.776H2.547V-17.1H4.364v.827a2.312,2.312,0,0,1,.759-.717,1.874,1.874,0,0,1,.948-.246,1.885,1.885,0,0,1,1.032.283,1.788,1.788,0,0,1,.681.791Z" transform="translate(-2.547 17.234)" fill="#fff"/>
      </g>
      <g id="Groupe_177" data-name="Groupe 177" transform="translate(189.034 283.622)">
        <path id="Tracé_193" data-name="Tracé 193" d="M5.579-16.7a1.021,1.021,0,0,0,.885-.424,2.1,2.1,0,0,0,.3-1.225,2.108,2.108,0,0,0-.3-1.231,1.021,1.021,0,0,0-.885-.424,1.025,1.025,0,0,0-.885.429,2.055,2.055,0,0,0-.309,1.225,2.066,2.066,0,0,0,.309,1.225,1.027,1.027,0,0,0,.885.424Zm-1.194-3.65a2.491,2.491,0,0,1,.822-.728,2.235,2.235,0,0,1,1.042-.236,2.105,2.105,0,0,1,1.712.833,3.283,3.283,0,0,1,.67,2.131,3.28,3.28,0,0,1-.67,2.131,2.108,2.108,0,0,1-1.712.827,2.235,2.235,0,0,1-1.042-.236,2.476,2.476,0,0,1-.822-.728v.817H2.578v-7.834H4.385Z" transform="translate(-2.578 23.375)" fill="#fff"/>
      </g>
      <g id="Groupe_178" data-name="Groupe 178" transform="translate(195.998 285.68)">
        <path id="Tracé_194" data-name="Tracé 194" d="M4.434-15.946a1.061,1.061,0,0,0-.916.435A2.083,2.083,0,0,0,3.2-14.271a2.094,2.094,0,0,0,.314,1.241,1.063,1.063,0,0,0,.916.429,1.049,1.049,0,0,0,.9-.429,2.094,2.094,0,0,0,.314-1.241,2.083,2.083,0,0,0-.314-1.241A1.046,1.046,0,0,0,4.434-15.946Zm0-1.288a3.145,3.145,0,0,1,2.273.786,2.881,2.881,0,0,1,.817,2.179A2.872,2.872,0,0,1,6.707-12.1a3.145,3.145,0,0,1-2.273.786A3.169,3.169,0,0,1,2.151-12.1a2.861,2.861,0,0,1-.822-2.173,2.869,2.869,0,0,1,.822-2.179A3.169,3.169,0,0,1,4.434-17.235Z" transform="translate(-1.328 17.235)" fill="#fff"/>
      </g>
      <g id="Groupe_179" data-name="Groupe 179" transform="translate(203.501 283.622)">
        <path id="Tracé_195" data-name="Tracé 195" d="M2.578-23.375H4.385v7.834H2.578Z" transform="translate(-2.578 23.375)" fill="#fff"/>
      </g>
      <g id="Groupe_180" data-name="Groupe 180" transform="translate(206.706 285.68)">
        <path id="Tracé_196" data-name="Tracé 196" d="M6.333-16.92v1.367a7.013,7.013,0,0,0-1.121-.361,4.708,4.708,0,0,0-1.016-.12,1.729,1.729,0,0,0-.765.131.413.413,0,0,0-.246.393.376.376,0,0,0,.189.335,1.746,1.746,0,0,0,.676.168l.319.047a3.789,3.789,0,0,1,1.859.576,1.564,1.564,0,0,1,.482,1.267,1.538,1.538,0,0,1-.665,1.356,3.553,3.553,0,0,1-1.985.45A7.9,7.9,0,0,1,2.9-11.4a10.334,10.334,0,0,1-1.225-.262v-1.372a5.109,5.109,0,0,0,1.105.393,5.065,5.065,0,0,0,1.152.131,1.7,1.7,0,0,0,.8-.147A.468.468,0,0,0,5-13.092a.393.393,0,0,0-.183-.356,1.9,1.9,0,0,0-.733-.183l-.319-.042a3.334,3.334,0,0,1-1.686-.56,1.526,1.526,0,0,1-.482-1.236,1.522,1.522,0,0,1,.613-1.33,3.286,3.286,0,0,1,1.885-.435,7.421,7.421,0,0,1,1.047.079,11.12,11.12,0,0,1,1.194.236Z" transform="translate(-1.594 17.235)" fill="#fff"/>
      </g>
      <g id="Groupe_181" data-name="Groupe 181" transform="translate(70.578 293.935)">
        <path id="Tracé_197" data-name="Tracé 197" d="M4.961-23.375v1.184h-1a.782.782,0,0,0-.534.141.617.617,0,0,0-.152.477v.393H4.82v1.288H3.28v4.352h-1.8v-4.352h-.9v-1.288h.9v-.393a1.7,1.7,0,0,1,.513-1.362,2.406,2.406,0,0,1,1.592-.44Z" transform="translate(-0.578 23.375)" fill="#fff"/>
      </g>
      <g id="Groupe_182" data-name="Groupe 182" transform="translate(75.735 295.993)">
        <path id="Tracé_198" data-name="Tracé 198" d="M6.768-15.564a2.314,2.314,0,0,0-.471-.162,2.185,2.185,0,0,0-.471-.052,1.326,1.326,0,0,0-1.068.445,1.939,1.939,0,0,0-.372,1.278v2.6H2.578V-17.1H4.385v.927a2.257,2.257,0,0,1,.8-.806,2.153,2.153,0,0,1,1.079-.257c.059,0,.123,0,.194.01s.175.014.309.031Z" transform="translate(-2.578 17.234)" fill="#fff"/>
      </g>
      <g id="Groupe_183" data-name="Groupe 183" transform="translate(80.402 295.993)">
        <path id="Tracé_199" data-name="Tracé 199" d="M4.434-15.946a1.061,1.061,0,0,0-.916.435A2.083,2.083,0,0,0,3.2-14.271a2.094,2.094,0,0,0,.314,1.241,1.063,1.063,0,0,0,.916.429,1.049,1.049,0,0,0,.9-.429,2.094,2.094,0,0,0,.314-1.241,2.083,2.083,0,0,0-.314-1.241A1.046,1.046,0,0,0,4.434-15.946Zm0-1.288a3.145,3.145,0,0,1,2.273.786,2.881,2.881,0,0,1,.817,2.179A2.872,2.872,0,0,1,6.707-12.1a3.145,3.145,0,0,1-2.273.786A3.169,3.169,0,0,1,2.151-12.1a2.861,2.861,0,0,1-.822-2.173,2.869,2.869,0,0,1,.822-2.179A3.169,3.169,0,0,1,4.434-17.235Z" transform="translate(-1.328 17.235)" fill="#fff"/>
      </g>
      <g id="Groupe_184" data-name="Groupe 184" transform="translate(87.895 295.993)">
        <path id="Tracé_200" data-name="Tracé 200" d="M7.784-16.161a2.484,2.484,0,0,1,.812-.8,2.01,2.01,0,0,1,1.037-.278,1.833,1.833,0,0,1,1.482.6,2.621,2.621,0,0,1,.508,1.739v3.435H9.811V-14.4c0-.045.005-.09.005-.136s.005-.117.005-.2a1.612,1.612,0,0,0-.178-.864.634.634,0,0,0-.571-.272.889.889,0,0,0-.791.424,2.26,2.26,0,0,0-.288,1.22v2.77H6.182V-14.4a2.8,2.8,0,0,0-.162-1.2.618.618,0,0,0-.576-.272.908.908,0,0,0-.8.424,2.213,2.213,0,0,0-.278,1.215v2.776H2.547V-17.1H4.364v.827a2.312,2.312,0,0,1,.759-.717,1.874,1.874,0,0,1,.948-.246,1.885,1.885,0,0,1,1.032.283,1.788,1.788,0,0,1,.681.791Z" transform="translate(-2.547 17.234)" fill="#fff"/>
      </g>
      <g id="Groupe_185" data-name="Groupe 185" transform="translate(101.514 294.527)">
        <path id="Tracé_201" data-name="Tracé 201" d="M3.1-21.609v1.6H4.962v1.288H3.1v2.393a.707.707,0,0,0,.157.534.985.985,0,0,0,.618.136h.927v1.288H3.26a2.093,2.093,0,0,1-1.513-.445A2.093,2.093,0,0,1,1.3-16.325v-2.393h-.9v-1.288h.9v-1.6Z" transform="translate(-0.406 21.609)" fill="#fff"/>
      </g>
      <g id="Groupe_186" data-name="Groupe 186" transform="translate(107.171 293.935)">
        <path id="Tracé_202" data-name="Tracé 202" d="M8.25-18.976v3.435H6.438v-2.618A9.458,9.458,0,0,0,6.4-19.175a1.061,1.061,0,0,0-.11-.408A.712.712,0,0,0,6-19.856a.845.845,0,0,0-.414-.1,1.045,1.045,0,0,0-.885.435,2,2,0,0,0-.319,1.2v2.776H2.578v-7.834H4.385v3.022a2.787,2.787,0,0,1,.859-.728,2.195,2.195,0,0,1,1.016-.236,1.824,1.824,0,0,1,1.482.6A2.621,2.621,0,0,1,8.25-18.976Z" transform="translate(-2.578 23.375)" fill="#fff"/>
      </g>
      <g id="Groupe_187" data-name="Groupe 187" transform="translate(114.094 295.993)">
        <path id="Tracé_203" data-name="Tracé 203" d="M7.377-14.291v.513H3.167a1.335,1.335,0,0,0,.456.953,1.718,1.718,0,0,0,1.1.314,4.259,4.259,0,0,0,1.163-.168,5.792,5.792,0,0,0,1.225-.513V-11.8a7.572,7.572,0,0,1-1.278.361,6.616,6.616,0,0,1-1.278.126,3.394,3.394,0,0,1-2.378-.775,2.817,2.817,0,0,1-.848-2.184,2.855,2.855,0,0,1,.833-2.173,3.2,3.2,0,0,1,2.294-.791,2.859,2.859,0,0,1,2.121.8,2.9,2.9,0,0,1,.8,2.142Zm-1.854-.6a1.153,1.153,0,0,0-.3-.827,1.028,1.028,0,0,0-.78-.314,1.223,1.223,0,0,0-.854.3,1.364,1.364,0,0,0-.408.843Z" transform="translate(-1.329 17.234)" fill="#fff"/>
      </g>
      <g id="Groupe_188" data-name="Groupe 188" transform="translate(125.182 294.254)">
        <path id="Tracé_204" data-name="Tracé 204" d="M2.828-22.422H4.991l2.734,5.153v-5.153H9.563v7.515H7.4L4.666-20.065v5.159H2.828Z" transform="translate(-2.828 22.422)" fill="#fff"/>
      </g>
      <g id="Groupe_189" data-name="Groupe 189" transform="translate(133.31 295.993)">
        <path id="Tracé_205" data-name="Tracé 205" d="M4.434-15.946a1.061,1.061,0,0,0-.916.435A2.083,2.083,0,0,0,3.2-14.271a2.094,2.094,0,0,0,.314,1.241,1.063,1.063,0,0,0,.916.429,1.049,1.049,0,0,0,.9-.429,2.094,2.094,0,0,0,.314-1.241,2.083,2.083,0,0,0-.314-1.241A1.046,1.046,0,0,0,4.434-15.946Zm0-1.288a3.145,3.145,0,0,1,2.273.786,2.881,2.881,0,0,1,.817,2.179A2.872,2.872,0,0,1,6.707-12.1a3.145,3.145,0,0,1-2.273.786A3.169,3.169,0,0,1,2.151-12.1a2.861,2.861,0,0,1-.822-2.173,2.869,2.869,0,0,1,.822-2.179A3.169,3.169,0,0,1,4.434-17.235Z" transform="translate(-1.328 17.235)" fill="#fff"/>
      </g>
      <g id="Groupe_190" data-name="Groupe 190" transform="translate(140.757 296.129)">
        <path id="Tracé_206" data-name="Tracé 206" d="M2.406-13.382v-3.446H4.218v.566c0,.3,0,.689-.005,1.152s-.005.769-.005.922q0,.681.031.979a1.031,1.031,0,0,0,.126.435.737.737,0,0,0,.288.272.855.855,0,0,0,.408.094,1.041,1.041,0,0,0,.885-.429,1.977,1.977,0,0,0,.325-1.2v-2.786h1.8v5.64h-1.8V-12a2.83,2.83,0,0,1-.864.728,2.146,2.146,0,0,1-1,.236,1.859,1.859,0,0,1-1.493-.6,2.632,2.632,0,0,1-.508-1.744Z" transform="translate(-2.406 16.828)" fill="#fff"/>
      </g>
      <g id="Groupe_191" data-name="Groupe 191" transform="translate(148.155 295.993)">
        <path id="Tracé_207" data-name="Tracé 207" d="M8.25-14.893v3.435H6.438v-2.629A9.327,9.327,0,0,0,6.4-15.092a1.061,1.061,0,0,0-.11-.408A.712.712,0,0,0,6-15.773a.845.845,0,0,0-.414-.1,1.045,1.045,0,0,0-.885.435,2,2,0,0,0-.319,1.2v2.776H2.578V-17.1H4.385v.827A2.787,2.787,0,0,1,5.244-17a2.195,2.195,0,0,1,1.016-.236,1.824,1.824,0,0,1,1.482.6,2.621,2.621,0,0,1,.508,1.739Z" transform="translate(-2.578 17.234)" fill="#fff"/>
      </g>
      <g id="Groupe_192" data-name="Groupe 192" transform="translate(159.171 294.254)">
        <path id="Tracé_208" data-name="Tracé 208" d="M2.828-22.422H6.044a3.351,3.351,0,0,1,2.2.639,2.214,2.214,0,0,1,.77,1.812,2.234,2.234,0,0,1-.77,1.822,3.365,3.365,0,0,1-2.2.634H4.766v2.608H2.828Zm1.938,1.4v2.1H5.839a1.272,1.272,0,0,0,.869-.272,1,1,0,0,0,.309-.78.98.98,0,0,0-.309-.775,1.278,1.278,0,0,0-.869-.272Z" transform="translate(-2.828 22.422)" fill="#fff"/>
      </g>
      <g id="Groupe_193" data-name="Groupe 193" transform="translate(166.646 295.993)">
        <path id="Tracé_209" data-name="Tracé 209" d="M6.768-15.564a2.314,2.314,0,0,0-.471-.162,2.185,2.185,0,0,0-.471-.052,1.326,1.326,0,0,0-1.068.445,1.939,1.939,0,0,0-.372,1.278v2.6H2.578V-17.1H4.385v.927a2.257,2.257,0,0,1,.8-.806,2.153,2.153,0,0,1,1.079-.257c.059,0,.123,0,.194.01s.175.014.309.031Z" transform="translate(-2.578 17.234)" fill="#fff"/>
      </g>
      <g id="Groupe_194" data-name="Groupe 194" transform="translate(171.313 295.993)">
        <path id="Tracé_210" data-name="Tracé 210" d="M4.434-15.946a1.061,1.061,0,0,0-.916.435A2.083,2.083,0,0,0,3.2-14.271a2.094,2.094,0,0,0,.314,1.241,1.063,1.063,0,0,0,.916.429,1.049,1.049,0,0,0,.9-.429,2.094,2.094,0,0,0,.314-1.241,2.083,2.083,0,0,0-.314-1.241A1.046,1.046,0,0,0,4.434-15.946Zm0-1.288a3.145,3.145,0,0,1,2.273.786,2.881,2.881,0,0,1,.817,2.179A2.872,2.872,0,0,1,6.707-12.1a3.145,3.145,0,0,1-2.273.786A3.169,3.169,0,0,1,2.151-12.1a2.861,2.861,0,0,1-.822-2.173,2.869,2.869,0,0,1,.822-2.179A3.169,3.169,0,0,1,4.434-17.235Z" transform="translate(-1.328 17.235)" fill="#fff"/>
      </g>
      <g id="Groupe_195" data-name="Groupe 195" transform="translate(177.613 293.935)">
        <path id="Tracé_211" data-name="Tracé 211" d="M.189-21.181H2v5.541a2.481,2.481,0,0,1-.545,1.728,2.028,2.028,0,0,1-1.576.6h-.89V-14.5h.309a.874.874,0,0,0,.7-.23,1.51,1.51,0,0,0,.194-.911Zm0-2.194H2V-21.9H.189Z" transform="translate(1.016 23.375)" fill="#fff"/>
      </g>
      <g id="Groupe_196" data-name="Groupe 196" transform="translate(181.934 295.993)">
        <path id="Tracé_212" data-name="Tracé 212" d="M7.377-14.291v.513H3.167a1.335,1.335,0,0,0,.456.953,1.718,1.718,0,0,0,1.1.314,4.259,4.259,0,0,0,1.163-.168,5.792,5.792,0,0,0,1.225-.513V-11.8a7.572,7.572,0,0,1-1.278.361,6.616,6.616,0,0,1-1.278.126,3.394,3.394,0,0,1-2.378-.775,2.817,2.817,0,0,1-.848-2.184,2.855,2.855,0,0,1,.833-2.173,3.2,3.2,0,0,1,2.294-.791,2.859,2.859,0,0,1,2.121.8,2.9,2.9,0,0,1,.8,2.142Zm-1.854-.6a1.153,1.153,0,0,0-.3-.827,1.028,1.028,0,0,0-.78-.314,1.223,1.223,0,0,0-.854.3,1.364,1.364,0,0,0-.408.843Z" transform="translate(-1.329 17.234)" fill="#fff"/>
      </g>
      <g id="Groupe_197" data-name="Groupe 197" transform="translate(188.928 295.993)">
        <path id="Tracé_213" data-name="Tracé 213" d="M6.3-16.92v1.472a2.919,2.919,0,0,0-.738-.372,2.347,2.347,0,0,0-.765-.126,1.553,1.553,0,0,0-1.178.445A1.711,1.711,0,0,0,3.2-14.27a1.708,1.708,0,0,0,.419,1.231A1.56,1.56,0,0,0,4.8-12.6a2.517,2.517,0,0,0,.8-.126,2.334,2.334,0,0,0,.7-.372v1.472a4.909,4.909,0,0,1-.859.236,4.89,4.89,0,0,1-.869.079,3.416,3.416,0,0,1-2.388-.78,2.8,2.8,0,0,1-.859-2.179,2.792,2.792,0,0,1,.859-2.179,3.406,3.406,0,0,1,2.388-.786,4.825,4.825,0,0,1,.869.079,5.071,5.071,0,0,1,.859.236Z" transform="translate(-1.328 17.235)" fill="#fff"/>
      </g>
      <g id="Groupe_198" data-name="Groupe 198" transform="translate(194.731 294.527)">
        <path id="Tracé_214" data-name="Tracé 214" d="M3.1-21.609v1.6H4.962v1.288H3.1v2.393a.707.707,0,0,0,.157.534.985.985,0,0,0,.618.136h.927v1.288H3.26a2.093,2.093,0,0,1-1.513-.445A2.093,2.093,0,0,1,1.3-16.325v-2.393h-.9v-1.288h.9v-1.6Z" transform="translate(-0.406 21.609)" fill="#fff"/>
      </g>
    </g>
  </g>
</svg>
