<svg xmlns="http://www.w3.org/2000/svg" xmlns:xlink="http://www.w3.org/1999/xlink" width="150" height="150" viewBox="0 0 150 150">
  <defs>
    <clipPath id="clip-path">
      <rect x="4" y="-9" width="135.146" height="126.327" fill="none"/>
    </clipPath>
  </defs>
  <g id="cart" transform="translate(-978 -4428)">
    <rect id="Rectangle_4" data-name="Rectangle 4" width="150" height="150" rx="75" transform="translate(978 4428)" fill="#fff"/>
    <g id="cart-2" data-name="cart" transform="translate(984 4449.669)" clip-path="url(#clip-path)" style="isolation: isolate">
      <g id="noun-cart-117629" transform="translate(-59.531 -52.824)">
        <path id="Tracé_339" data-name="Tracé 339" d="M201.59,80.6a4.545,4.545,0,0,0-3.708-2.2l-73.232-3.361L122.1,65.072a4.6,4.6,0,0,0-4.519-3.476H102.633a4.635,4.635,0,0,0,0,9.269h11.355l12.747,49.594-3.128,12.978a4.7,4.7,0,0,0,.812,3.939,4.5,4.5,0,0,0,3.592,1.738h56.778a4.635,4.635,0,1,0,0-9.269H134.035l1.275-5.331,46.35-2.2a4.669,4.669,0,0,0,3.939-2.665l16.222-34.762a4.378,4.378,0,0,0-.231-4.287Zm-23.175,32.676-43.221,1.97L127.43,84.424l63.151,2.9Z" transform="translate(-21.783 0)" fill="#001a23"/>
        <path id="Tracé_340" data-name="Tracé 340" d="M232.981,456.69a8.691,8.691,0,1,1-8.691-8.69,8.691,8.691,0,0,1,8.691,8.69" transform="translate(-115.051 -306.45)" fill="#001a23"/>
        <path id="Tracé_341" data-name="Tracé 341" d="M484.981,456.69a8.691,8.691,0,1,1-8.691-8.69,8.691,8.691,0,0,1,8.691,8.69" transform="translate(-314.908 -306.45)" fill="#001a23"/>
        <g id="Groupe_318" data-name="Groupe 318" transform="translate(70.709 177.806)">
          <path id="Tracé_342" data-name="Tracé 342" d="M4.986-16.714a2.753,2.753,0,0,1-.627.233,2.82,2.82,0,0,1-.679.081,2.319,2.319,0,0,1-1.671-.588,2.11,2.11,0,0,1-.618-1.6,2.105,2.105,0,0,1,.618-1.6,2.314,2.314,0,0,1,1.671-.592,2.82,2.82,0,0,1,.679.081,2.752,2.752,0,0,1,.627.233v.873a2.485,2.485,0,0,0-.6-.3,1.972,1.972,0,0,0-.621-.1,1.161,1.161,0,0,0-.915.375,1.486,1.486,0,0,0-.333,1.028,1.491,1.491,0,0,0,.333,1.028,1.164,1.164,0,0,0,.915.372,2.018,2.018,0,0,0,.621-.094,2.416,2.416,0,0,0,.6-.3Z" transform="translate(-1.391 20.781)" fill="#001a23"/>
        </g>
        <g id="Groupe_319" data-name="Groupe 319" transform="translate(75.162 178.86)">
          <path id="Tracé_343" data-name="Tracé 343" d="M4.713-14.747a1.4,1.4,0,0,0-.268-.091,1.106,1.106,0,0,0-.262-.032.738.738,0,0,0-.6.252,1.077,1.077,0,0,0-.21.715v1.461H2.359V-15.61H3.371v.521a1.286,1.286,0,0,1,.446-.453,1.206,1.206,0,0,1,.608-.145,1.077,1.077,0,0,1,.11.006c.04,0,.1.008.175.016Z" transform="translate(-2.359 15.687)" fill="#001a23"/>
        </g>
        <g id="Groupe_320" data-name="Groupe 320" transform="translate(77.78 178.86)">
          <path id="Tracé_344" data-name="Tracé 344" d="M4.6-14.035v.291H2.235a.753.753,0,0,0,.259.533.956.956,0,0,0,.618.178,2.384,2.384,0,0,0,.653-.094,3.457,3.457,0,0,0,.689-.288v.779a4.269,4.269,0,0,1-.718.2,3.726,3.726,0,0,1-.718.071A1.912,1.912,0,0,1,1.679-12.8,1.58,1.58,0,0,1,1.2-14.022a1.6,1.6,0,0,1,.469-1.219,1.789,1.789,0,0,1,1.287-.446,1.612,1.612,0,0,1,1.2.453,1.624,1.624,0,0,1,.449,1.2Zm-1.041-.336a.641.641,0,0,0-.168-.462.58.58,0,0,0-.44-.178.69.69,0,0,0-.478.165.758.758,0,0,0-.23.475Z" transform="translate(-1.203 15.688)" fill="#001a23"/>
        </g>
        <g id="Groupe_321" data-name="Groupe 321" transform="translate(81.709 178.86)">
          <path id="Tracé_345" data-name="Tracé 345" d="M2.862-13.867a.872.872,0,0,0-.478.107.357.357,0,0,0-.158.317.376.376,0,0,0,.129.3.541.541,0,0,0,.356.107.639.639,0,0,0,.482-.2.717.717,0,0,0,.2-.514v-.116Zm1.545-.382v1.807H3.389v-.469a1.308,1.308,0,0,1-.459.42,1.371,1.371,0,0,1-.621.129,1.126,1.126,0,0,1-.8-.285.974.974,0,0,1-.307-.747.915.915,0,0,1,.382-.815,2.179,2.179,0,0,1,1.206-.262h.6v-.081A.375.375,0,0,0,3.2-14.9a1.2,1.2,0,0,0-.592-.113A2.722,2.722,0,0,0,2-14.947a2.1,2.1,0,0,0-.517.194v-.773a6.161,6.161,0,0,1,.65-.12,5.314,5.314,0,0,1,.66-.042,1.828,1.828,0,0,1,1.235.339,1.4,1.4,0,0,1,.382,1.1Z" transform="translate(-1.203 15.688)" fill="#001a23"/>
        </g>
        <g id="Groupe_322" data-name="Groupe 322" transform="translate(85.447 178.038)">
          <path id="Tracé_346" data-name="Tracé 346" d="M1.891-19.656v.9H2.936v.724H1.891v1.345a.391.391,0,0,0,.087.3.545.545,0,0,0,.346.078h.521v.724H1.979a1.189,1.189,0,0,1-.854-.249,1.183,1.183,0,0,1-.249-.85v-1.345h-.5v-.724h.5v-.9Z" transform="translate(-0.375 19.656)" fill="#001a23"/>
        </g>
        <g id="Groupe_323" data-name="Groupe 323" transform="translate(88.389 178.86)">
          <path id="Tracé_347" data-name="Tracé 347" d="M4.6-14.035v.291H2.235a.753.753,0,0,0,.259.533.956.956,0,0,0,.618.178,2.384,2.384,0,0,0,.653-.094,3.457,3.457,0,0,0,.689-.288v.779a4.269,4.269,0,0,1-.718.2,3.726,3.726,0,0,1-.718.071A1.912,1.912,0,0,1,1.679-12.8,1.58,1.58,0,0,1,1.2-14.022a1.6,1.6,0,0,1,.469-1.219,1.789,1.789,0,0,1,1.287-.446,1.612,1.612,0,0,1,1.2.453,1.624,1.624,0,0,1,.449,1.2Zm-1.041-.336a.641.641,0,0,0-.168-.462.58.58,0,0,0-.44-.178.69.69,0,0,0-.478.165.758.758,0,0,0-.23.475Z" transform="translate(-1.203 15.688)" fill="#001a23"/>
        </g>
        <g id="Groupe_324" data-name="Groupe 324" transform="translate(92.331 177.702)">
          <path id="Tracé_348" data-name="Tracé 348" d="M3.646-19.584v-1.7H4.664v4.4H3.646v-.459a1.333,1.333,0,0,1-.459.411A1.274,1.274,0,0,1,2.6-16.8a1.178,1.178,0,0,1-.96-.466,1.843,1.843,0,0,1-.375-1.2,1.849,1.849,0,0,1,.375-1.2,1.178,1.178,0,0,1,.96-.466,1.236,1.236,0,0,1,.582.133,1.4,1.4,0,0,1,.462.407ZM2.98-17.531a.574.574,0,0,0,.495-.236,1.18,1.18,0,0,0,.171-.692,1.167,1.167,0,0,0-.171-.689.573.573,0,0,0-.495-.239.571.571,0,0,0-.495.239,1.161,1.161,0,0,0-.171.689,1.174,1.174,0,0,0,.171.692A.572.572,0,0,0,2.98-17.531Z" transform="translate(-1.266 21.281)" fill="#001a23"/>
        </g>
        <g id="Groupe_325" data-name="Groupe 325" transform="translate(98.721 177.702)">
          <path id="Tracé_349" data-name="Tracé 349" d="M4.044-17.531a.577.577,0,0,0,.5-.236,1.18,1.18,0,0,0,.171-.692,1.167,1.167,0,0,0-.171-.689.576.576,0,0,0-.5-.239.583.583,0,0,0-.5.239,1.171,1.171,0,0,0-.171.689,1.168,1.168,0,0,0,.171.689.581.581,0,0,0,.5.239Zm-.672-2.053a1.435,1.435,0,0,1,.462-.407,1.254,1.254,0,0,1,.585-.133,1.183,1.183,0,0,1,.963.466,1.854,1.854,0,0,1,.375,1.2,1.848,1.848,0,0,1-.375,1.2,1.183,1.183,0,0,1-.963.466,1.283,1.283,0,0,1-.585-.129,1.4,1.4,0,0,1-.462-.411v.459H2.359v-4.4H3.371Z" transform="translate(-2.359 21.281)" fill="#001a23"/>
        </g>
        <g id="Groupe_326" data-name="Groupe 326" transform="translate(102.452 178.937)">
          <path id="Tracé_350" data-name="Tracé 350" d="M.344-15.312H1.356l.854,2.15.724-2.15H3.945L2.613-11.843a1.692,1.692,0,0,1-.469.737,1.1,1.1,0,0,1-.7.213H.851v-.666h.317a.654.654,0,0,0,.375-.084.529.529,0,0,0,.184-.291l.029-.087Z" transform="translate(-0.344 15.312)" fill="#001a23"/>
        </g>
        <g id="Groupe_327" data-name="Groupe 327" transform="translate(108.708 177.883)">
          <path id="Tracé_351" data-name="Tracé 351" d="M2.578-20.406H5.517v.821H3.664v.786H5.407v.824H3.664v1.791H2.578Z" transform="translate(-2.578 20.406)" fill="#001a23"/>
        </g>
        <g id="Groupe_328" data-name="Groupe 328" transform="translate(112.161 177.883)">
          <path id="Tracé_352" data-name="Tracé 352" d="M3.205-16.953H1.5l-.272.769H.141l1.565-4.222H3l1.565,4.222H3.474Zm-1.429-.782H2.931l-.575-1.681Z" transform="translate(-0.141 20.406)" fill="#001a23"/>
        </g>
        <g id="Groupe_329" data-name="Groupe 329" transform="translate(117.149 177.883)">
          <path id="Tracé_353" data-name="Tracé 353" d="M2.578-20.406H3.664v1.539l1.571-1.539H6.5l-2.034,2L6.71-16.184H5.346L3.664-17.849v1.665H2.578Z" transform="translate(-2.578 20.406)" fill="#001a23"/>
        </g>
        <g id="Groupe_330" data-name="Groupe 330" transform="translate(121.134 177.883)">
          <path id="Tracé_354" data-name="Tracé 354" d="M.14-20.406H4.033v.821h-1.4v3.4H1.543v-3.4H.14Z" transform="translate(-0.14 20.406)" fill="#001a23"/>
        </g>
        <g id="Groupe_331" data-name="Groupe 331" transform="translate(125.345 177.805)">
          <path id="Tracé_355" data-name="Tracé 355" d="M3.564-19.993a.907.907,0,0,0-.773.369,1.718,1.718,0,0,0-.272,1.035,1.716,1.716,0,0,0,.272,1.035.908.908,0,0,0,.773.365.913.913,0,0,0,.776-.365,1.7,1.7,0,0,0,.275-1.035,1.706,1.706,0,0,0-.275-1.035.912.912,0,0,0-.776-.369Zm0-.789a2.141,2.141,0,0,1,1.594.582,2.184,2.184,0,0,1,.579,1.61,2.179,2.179,0,0,1-.579,1.607,2.141,2.141,0,0,1-1.594.582,2.146,2.146,0,0,1-1.594-.582,2.175,2.175,0,0,1-.579-1.607A2.181,2.181,0,0,1,1.97-20.2,2.146,2.146,0,0,1,3.564-20.782Z" transform="translate(-1.391 20.782)" fill="#001a23"/>
        </g>
        <g id="Groupe_332" data-name="Groupe 332" transform="translate(130.516 177.883)">
          <path id="Tracé_356" data-name="Tracé 356" d="M4.124-18.534a.761.761,0,0,0,.491-.126.531.531,0,0,0,.149-.42.508.508,0,0,0-.149-.411.761.761,0,0,0-.491-.126H3.665v1.083Zm-.459.753v1.6H2.578v-4.222H4.24a2.1,2.1,0,0,1,1.222.281,1.011,1.011,0,0,1,.391.883,1.106,1.106,0,0,1-.2.689,1.155,1.155,0,0,1-.608.394.8.8,0,0,1,.4.233,2.124,2.124,0,0,1,.359.543l.592,1.2H5.229l-.514-1.051a1.132,1.132,0,0,0-.317-.43.7.7,0,0,0-.424-.116Z" transform="translate(-2.578 20.406)" fill="#001a23"/>
        </g>
        <g id="Groupe_333" data-name="Groupe 333" transform="translate(136.49 177.883)">
          <path id="Tracé_357" data-name="Tracé 357" d="M.141-20.406H1.233l1.122,3.117,1.119-3.117H4.567L3-16.184h-1.3Z" transform="translate(-0.141 20.406)" fill="#001a23"/>
        </g>
        <g id="Groupe_334" data-name="Groupe 334" transform="translate(141.478 177.883)">
          <path id="Tracé_358" data-name="Tracé 358" d="M2.578-20.406H3.664v4.222H2.578Z" transform="translate(-2.578 20.406)" fill="#001a23"/>
        </g>
        <g id="Groupe_335" data-name="Groupe 335" transform="translate(143.633 177.883)">
          <path id="Tracé_359" data-name="Tracé 359" d="M2.578-20.406H5.517v.821H3.664v.786H5.407v.824H3.664v.967H5.578v.824h-3Z" transform="translate(-2.578 20.406)" fill="#001a23"/>
        </g>
        <g id="Groupe_336" data-name="Groupe 336" transform="translate(147.591 177.883)">
          <path id="Tracé_360" data-name="Tracé 360" d="M4.124-18.534a.761.761,0,0,0,.491-.126.531.531,0,0,0,.149-.42.508.508,0,0,0-.149-.411.761.761,0,0,0-.491-.126H3.665v1.083Zm-.459.753v1.6H2.578v-4.222H4.24a2.1,2.1,0,0,1,1.222.281,1.011,1.011,0,0,1,.391.883,1.106,1.106,0,0,1-.2.689,1.155,1.155,0,0,1-.608.394.8.8,0,0,1,.4.233,2.124,2.124,0,0,1,.359.543l.592,1.2H5.229l-.514-1.051a1.132,1.132,0,0,0-.317-.43.7.7,0,0,0-.424-.116Z" transform="translate(-2.578 20.406)" fill="#001a23"/>
        </g>
        <g id="Groupe_337" data-name="Groupe 337" transform="translate(70.531 183.496)">
          <path id="Tracé_361" data-name="Tracé 361" d="M2.992-21.281v.666H2.432a.454.454,0,0,0-.3.078.357.357,0,0,0-.084.272v.22h.866v.724H2.048v2.444H1.036v-2.444h-.5v-.724h.5v-.22a.959.959,0,0,1,.288-.766,1.347,1.347,0,0,1,.9-.249Z" transform="translate(-0.531 21.281)" fill="#001a23"/>
        </g>
        <g id="Groupe_338" data-name="Groupe 338" transform="translate(73.431 184.653)">
          <path id="Tracé_362" data-name="Tracé 362" d="M4.713-14.747a1.4,1.4,0,0,0-.268-.091,1.106,1.106,0,0,0-.262-.032.738.738,0,0,0-.6.252,1.077,1.077,0,0,0-.21.715v1.461H2.359V-15.61H3.371v.521a1.286,1.286,0,0,1,.446-.453,1.206,1.206,0,0,1,.608-.145,1.077,1.077,0,0,1,.11.006c.04,0,.1.008.175.016Z" transform="translate(-2.359 15.687)" fill="#001a23"/>
        </g>
        <g id="Groupe_339" data-name="Groupe 339" transform="translate(76.049 184.653)">
          <path id="Tracé_363" data-name="Tracé 363" d="M2.949-14.964a.6.6,0,0,0-.514.242,1.166,1.166,0,0,0-.178.7,1.166,1.166,0,0,0,.178.7.6.6,0,0,0,.514.239.585.585,0,0,0,.5-.239,1.172,1.172,0,0,0,.178-.7,1.172,1.172,0,0,0-.178-.7A.583.583,0,0,0,2.949-14.964Zm0-.724a1.766,1.766,0,0,1,1.277.443,1.615,1.615,0,0,1,.459,1.222A1.62,1.62,0,0,1,4.226-12.8a1.771,1.771,0,0,1-1.277.44,1.785,1.785,0,0,1-1.284-.44A1.61,1.61,0,0,1,1.2-14.023a1.6,1.6,0,0,1,.462-1.222A1.779,1.779,0,0,1,2.949-15.688Z" transform="translate(-1.203 15.688)" fill="#001a23"/>
        </g>
        <g id="Groupe_340" data-name="Groupe 340" transform="translate(80.261 184.653)">
          <path id="Tracé_364" data-name="Tracé 364" d="M5.27-15.083a1.373,1.373,0,0,1,.456-.449,1.128,1.128,0,0,1,.582-.155,1.024,1.024,0,0,1,.831.339,1.465,1.465,0,0,1,.288.976v1.93H6.408v-1.726c0-.027,0-.066,0-.116a.9.9,0,0,0-.1-.485.348.348,0,0,0-.317-.152.5.5,0,0,0-.446.239A1.242,1.242,0,0,0,5.387-14v1.555H4.368v-1.652a1.574,1.574,0,0,0-.091-.676.346.346,0,0,0-.323-.152.508.508,0,0,0-.449.239A1.222,1.222,0,0,0,3.347-14v1.558H2.328V-15.61H3.347v.462a1.316,1.316,0,0,1,.427-.4,1.073,1.073,0,0,1,.533-.136,1.075,1.075,0,0,1,.582.158,1,1,0,0,1,.382.446Z" transform="translate(-2.328 15.688)" fill="#001a23"/>
        </g>
        <g id="Groupe_341" data-name="Groupe 341" transform="translate(87.912 183.832)">
          <path id="Tracé_365" data-name="Tracé 365" d="M1.891-19.656v.9H2.936v.724H1.891v1.345a.391.391,0,0,0,.087.3.545.545,0,0,0,.346.078h.521v.724H1.979a1.189,1.189,0,0,1-.854-.249,1.183,1.183,0,0,1-.249-.85v-1.345h-.5v-.724h.5v-.9Z" transform="translate(-0.375 19.656)" fill="#001a23"/>
        </g>
        <g id="Groupe_342" data-name="Groupe 342" transform="translate(91.091 183.496)">
          <path id="Tracé_366" data-name="Tracé 366" d="M5.544-18.808v1.93H4.526v-1.471a5.5,5.5,0,0,0-.019-.572.608.608,0,0,0-.065-.23A.413.413,0,0,0,4.28-19.3a.475.475,0,0,0-.23-.055.585.585,0,0,0-.5.246,1.106,1.106,0,0,0-.181.676v1.558H2.359v-4.4H3.371v1.7a1.617,1.617,0,0,1,.485-.407,1.232,1.232,0,0,1,.569-.133,1.027,1.027,0,0,1,.834.339,1.478,1.478,0,0,1,.285.976Z" transform="translate(-2.359 21.281)" fill="#001a23"/>
        </g>
        <g id="Groupe_343" data-name="Groupe 343" transform="translate(94.977 184.653)">
          <path id="Tracé_367" data-name="Tracé 367" d="M4.6-14.035v.291H2.235a.753.753,0,0,0,.259.533.956.956,0,0,0,.618.178,2.384,2.384,0,0,0,.653-.094,3.457,3.457,0,0,0,.689-.288v.779a4.269,4.269,0,0,1-.718.2,3.726,3.726,0,0,1-.718.071A1.912,1.912,0,0,1,1.679-12.8,1.58,1.58,0,0,1,1.2-14.022a1.6,1.6,0,0,1,.469-1.219,1.789,1.789,0,0,1,1.287-.446,1.612,1.612,0,0,1,1.2.453,1.624,1.624,0,0,1,.449,1.2Zm-1.041-.336a.641.641,0,0,0-.168-.462.58.58,0,0,0-.44-.178.69.69,0,0,0-.478.165.758.758,0,0,0-.23.475Z" transform="translate(-1.203 15.688)" fill="#001a23"/>
        </g>
        <g id="Groupe_344" data-name="Groupe 344" transform="translate(101.208 183.677)">
          <path id="Tracé_368" data-name="Tracé 368" d="M2.578-20.406H3.794l1.536,2.9v-2.9H6.361v4.222H5.145l-1.536-2.9v2.9H2.578Z" transform="translate(-2.578 20.406)" fill="#001a23"/>
        </g>
        <g id="Groupe_345" data-name="Groupe 345" transform="translate(105.772 184.653)">
          <path id="Tracé_369" data-name="Tracé 369" d="M2.949-14.964a.6.6,0,0,0-.514.242,1.166,1.166,0,0,0-.178.7,1.166,1.166,0,0,0,.178.7.6.6,0,0,0,.514.239.585.585,0,0,0,.5-.239,1.172,1.172,0,0,0,.178-.7,1.172,1.172,0,0,0-.178-.7A.583.583,0,0,0,2.949-14.964Zm0-.724a1.766,1.766,0,0,1,1.277.443,1.615,1.615,0,0,1,.459,1.222A1.62,1.62,0,0,1,4.226-12.8a1.771,1.771,0,0,1-1.277.44,1.785,1.785,0,0,1-1.284-.44A1.61,1.61,0,0,1,1.2-14.023a1.6,1.6,0,0,1,.462-1.222A1.779,1.779,0,0,1,2.949-15.688Z" transform="translate(-1.203 15.688)" fill="#001a23"/>
        </g>
        <g id="Groupe_346" data-name="Groupe 346" transform="translate(109.956 184.731)">
          <path id="Tracé_370" data-name="Tracé 370" d="M2.188-13.379v-1.933H3.206V-15c0,.173,0,.388,0,.647s0,.432,0,.517a5.444,5.444,0,0,0,.019.553.637.637,0,0,0,.068.242.446.446,0,0,0,.165.155.488.488,0,0,0,.23.052.588.588,0,0,0,.5-.242,1.11,1.11,0,0,0,.181-.676v-1.565H5.372v3.168H4.36V-12.6a1.592,1.592,0,0,1-.485.411,1.242,1.242,0,0,1-.566.129,1.035,1.035,0,0,1-.834-.336,1.464,1.464,0,0,1-.288-.98Z" transform="translate(-2.188 15.313)" fill="#001a23"/>
        </g>
        <g id="Groupe_347" data-name="Groupe 347" transform="translate(114.117 184.653)">
          <path id="Tracé_371" data-name="Tracé 371" d="M5.544-14.371v1.93H4.526v-1.478a5.418,5.418,0,0,0-.019-.566.608.608,0,0,0-.065-.23.413.413,0,0,0-.162-.152.475.475,0,0,0-.23-.055.585.585,0,0,0-.5.246A1.106,1.106,0,0,0,3.371-14v1.558H2.359V-15.61H3.371v.462a1.617,1.617,0,0,1,.485-.407,1.232,1.232,0,0,1,.569-.133,1.027,1.027,0,0,1,.834.339,1.478,1.478,0,0,1,.285.976Z" transform="translate(-2.359 15.687)" fill="#001a23"/>
        </g>
        <g id="Groupe_348" data-name="Groupe 348" transform="translate(120.303 183.677)">
          <path id="Tracé_372" data-name="Tracé 372" d="M2.578-20.406H4.385a1.88,1.88,0,0,1,1.235.359,1.245,1.245,0,0,1,.433,1.018,1.252,1.252,0,0,1-.433,1.022,1.88,1.88,0,0,1-1.235.359H3.664v1.465H2.578Zm1.086.789v1.18h.6a.7.7,0,0,0,.488-.155.553.553,0,0,0,.175-.436.549.549,0,0,0-.175-.436.715.715,0,0,0-.488-.152Z" transform="translate(-2.578 20.406)" fill="#001a23"/>
        </g>
        <g id="Groupe_349" data-name="Groupe 349" transform="translate(124.504 184.653)">
          <path id="Tracé_373" data-name="Tracé 373" d="M4.713-14.747a1.4,1.4,0,0,0-.268-.091,1.106,1.106,0,0,0-.262-.032.738.738,0,0,0-.6.252,1.077,1.077,0,0,0-.21.715v1.461H2.359V-15.61H3.371v.521a1.286,1.286,0,0,1,.446-.453,1.206,1.206,0,0,1,.608-.145,1.077,1.077,0,0,1,.11.006c.04,0,.1.008.175.016Z" transform="translate(-2.359 15.687)" fill="#001a23"/>
        </g>
        <g id="Groupe_350" data-name="Groupe 350" transform="translate(127.122 184.653)">
          <path id="Tracé_374" data-name="Tracé 374" d="M2.949-14.964a.6.6,0,0,0-.514.242,1.166,1.166,0,0,0-.178.7,1.166,1.166,0,0,0,.178.7.6.6,0,0,0,.514.239.585.585,0,0,0,.5-.239,1.172,1.172,0,0,0,.178-.7,1.172,1.172,0,0,0-.178-.7A.583.583,0,0,0,2.949-14.964Zm0-.724a1.766,1.766,0,0,1,1.277.443,1.615,1.615,0,0,1,.459,1.222A1.62,1.62,0,0,1,4.226-12.8a1.771,1.771,0,0,1-1.277.44,1.785,1.785,0,0,1-1.284-.44A1.61,1.61,0,0,1,1.2-14.023a1.6,1.6,0,0,1,.462-1.222A1.779,1.779,0,0,1,2.949-15.688Z" transform="translate(-1.203 15.688)" fill="#001a23"/>
        </g>
        <g id="Groupe_351" data-name="Groupe 351" transform="translate(130.66 183.496)">
          <path id="Tracé_375" data-name="Tracé 375" d="M-.255-20.046H.757v3.11a1.4,1.4,0,0,1-.307.973,1.134,1.134,0,0,1-.886.336h-.5v-.666H-.76a.494.494,0,0,0,.394-.129.846.846,0,0,0,.11-.514Zm0-1.235H.757v.828H-.255Z" transform="translate(0.937 21.281)" fill="#001a23"/>
        </g>
        <g id="Groupe_352" data-name="Groupe 352" transform="translate(133.088 184.653)">
          <path id="Tracé_376" data-name="Tracé 376" d="M4.6-14.035v.291H2.235a.753.753,0,0,0,.259.533.956.956,0,0,0,.618.178,2.384,2.384,0,0,0,.653-.094,3.457,3.457,0,0,0,.689-.288v.779a4.269,4.269,0,0,1-.718.2,3.726,3.726,0,0,1-.718.071A1.912,1.912,0,0,1,1.679-12.8,1.58,1.58,0,0,1,1.2-14.022a1.6,1.6,0,0,1,.469-1.219,1.789,1.789,0,0,1,1.287-.446,1.612,1.612,0,0,1,1.2.453,1.624,1.624,0,0,1,.449,1.2Zm-1.041-.336a.641.641,0,0,0-.168-.462.58.58,0,0,0-.44-.178.69.69,0,0,0-.478.165.758.758,0,0,0-.23.475Z" transform="translate(-1.203 15.688)" fill="#001a23"/>
        </g>
        <g id="Groupe_353" data-name="Groupe 353" transform="translate(137.018 184.653)">
          <path id="Tracé_377" data-name="Tracé 377" d="M4-15.509v.824a1.575,1.575,0,0,0-.414-.21,1.372,1.372,0,0,0-.43-.068.876.876,0,0,0-.663.249.958.958,0,0,0-.236.692.963.963,0,0,0,.236.692.88.88,0,0,0,.663.246,1.476,1.476,0,0,0,.449-.068A1.327,1.327,0,0,0,4-13.363v.828a2.738,2.738,0,0,1-.482.129,2.7,2.7,0,0,1-.491.045,1.923,1.923,0,0,1-1.342-.44A1.568,1.568,0,0,1,1.2-14.022a1.574,1.574,0,0,1,.482-1.225,1.927,1.927,0,0,1,1.342-.44,2.7,2.7,0,0,1,.491.045A2.705,2.705,0,0,1,4-15.509Z" transform="translate(-1.203 15.687)" fill="#001a23"/>
        </g>
        <g id="Groupe_354" data-name="Groupe 354" transform="translate(140.28 183.832)">
          <path id="Tracé_378" data-name="Tracé 378" d="M1.891-19.656v.9H2.936v.724H1.891v1.345a.391.391,0,0,0,.087.3.545.545,0,0,0,.346.078h.521v.724H1.979a1.189,1.189,0,0,1-.854-.249,1.183,1.183,0,0,1-.249-.85v-1.345h-.5v-.724h.5v-.9Z" transform="translate(-0.375 19.656)" fill="#001a23"/>
        </g>
      </g>
    </g>
  </g>
</svg>
