<svg xmlns="http://www.w3.org/2000/svg" xmlns:xlink="http://www.w3.org/1999/xlink" width="121.372" height="138.604" viewBox="0 0 121.372 138.604">
  <defs>
    <clipPath id="clip-path">
      <rect x="9" y="-7" width="121.372" height="138.604" fill="none"/>
    </clipPath>
  </defs>
  <g id="delete_button" data-name="delete button" transform="translate(-9 7)" clip-path="url(#clip-path)" style="isolation: isolate">
    <g id="Delete" transform="translate(-70.109 -12.035)">
      <path id="Tracé_215" data-name="Tracé 215" d="M135.8,51.61h6.678l9.092,89.308a2.387,2.387,0,0,0,2.393,2.141H218.8a2.387,2.387,0,0,0,2.394-2.141L230.29,51.61h6.678a2.3,2.3,0,0,0,2.362-2.329V28.825a2.322,2.322,0,0,0-2.363-2.35h-28.12V14.32a2.389,2.389,0,0,0-2.5-2.285H166.425a2.389,2.389,0,0,0-2.5,2.285V26.474H135.8a2.322,2.322,0,0,0-2.363,2.35V49.281A2.3,2.3,0,0,0,135.8,51.61Zm80.827,86.639H156.139L147.317,51.61H225.45ZM168.737,16.85h35.3v9.626h-35.3ZM138.252,31.289h96.264V46.8H138.252Z" transform="translate(-47.849)" fill="#fff"/>
      <g id="Groupe_199" data-name="Groupe 199" transform="translate(70.148 149.019)">
        <path id="Tracé_216" data-name="Tracé 216" d="M1.094-3.123a.7.7,0,0,1-.145.053A.614.614,0,0,1,.8-3.05a.549.549,0,0,1-.39-.134.491.491,0,0,1-.141-.371.486.486,0,0,1,.141-.371A.542.542,0,0,1,.8-4.062a.614.614,0,0,1,.153.019.754.754,0,0,1,.145.053v.2a.579.579,0,0,0-.138-.069.426.426,0,0,0-.141-.023A.276.276,0,0,0,.6-3.791a.338.338,0,0,0-.076.237A.345.345,0,0,0,.6-3.318a.28.28,0,0,0,.214.084.482.482,0,0,0,.141-.019.5.5,0,0,0,.138-.073Z" transform="translate(-0.266 4.062)" fill="#fff"/>
      </g>
      <g id="Groupe_200" data-name="Groupe 200" transform="translate(71.174 149.263)">
        <path id="Tracé_217" data-name="Tracé 217" d="M1-2.845a.438.438,0,0,0-.061-.023.275.275,0,0,0-.061-.008.173.173,0,0,0-.141.061A.259.259,0,0,0,.69-2.65v.336H.453v-.73H.69v.118a.266.266,0,0,1,.1-.1.282.282,0,0,1,.141-.034H.957l.038,0Z" transform="translate(-0.453 3.063)" fill="#fff"/>
      </g>
      <g id="Groupe_201" data-name="Groupe 201" transform="translate(71.781 149.263)">
        <path id="Tracé_218" data-name="Tracé 218" d="M1.017-2.681v.065H.471a.189.189,0,0,0,.061.126.224.224,0,0,0,.141.038A.6.6,0,0,0,.826-2.47a.761.761,0,0,0,.157-.069v.18a.738.738,0,0,1-.164.05.983.983,0,0,1-.164.015.443.443,0,0,1-.309-.1.37.37,0,0,1-.111-.287.369.369,0,0,1,.107-.279.419.419,0,0,1,.3-.1.372.372,0,0,1,.275.1.378.378,0,0,1,.1.279Zm-.237-.08a.135.135,0,0,0-.042-.1.131.131,0,0,0-.1-.042.161.161,0,0,0-.111.038.176.176,0,0,0-.053.107Z" transform="translate(-0.234 3.063)" fill="#fff"/>
      </g>
      <g id="Groupe_202" data-name="Groupe 202" transform="translate(72.687 149.263)">
        <path id="Tracé_219" data-name="Tracé 219" d="M.616-2.642a.2.2,0,0,0-.111.027.082.082,0,0,0-.034.073A.09.09,0,0,0,.5-2.474a.135.135,0,0,0,.084.023A.151.151,0,0,0,.693-2.5a.16.16,0,0,0,.046-.118v-.027ZM.976-2.73v.416H.739v-.107a.288.288,0,0,1-.107.1.3.3,0,0,1-.141.031A.266.266,0,0,1,.3-2.36a.233.233,0,0,1-.069-.172.216.216,0,0,1,.088-.191A.5.5,0,0,1,.6-2.784H.739V-2.8a.082.082,0,0,0-.046-.08.265.265,0,0,0-.134-.027.648.648,0,0,0-.141.015A.575.575,0,0,0,.3-2.849v-.176a1.054,1.054,0,0,1,.149-.027A1.019,1.019,0,0,1,.6-3.063a.421.421,0,0,1,.287.08.321.321,0,0,1,.088.252Z" transform="translate(-0.234 3.063)" fill="#fff"/>
      </g>
      <g id="Groupe_203" data-name="Groupe 203" transform="translate(73.551 149.072)">
        <path id="Tracé_220" data-name="Tracé 220" d="M.426-3.844v.21H.666v.164H.426v.313a.093.093,0,0,0,.019.069.159.159,0,0,0,.084.015H.647V-2.9h-.2a.276.276,0,0,1-.2-.057.27.27,0,0,1-.057-.195v-.313H.078v-.164H.193v-.21Z" transform="translate(-0.078 3.844)" fill="#fff"/>
      </g>
      <g id="Groupe_204" data-name="Groupe 204" transform="translate(74.228 149.263)">
        <path id="Tracé_221" data-name="Tracé 221" d="M1.017-2.681v.065H.471a.189.189,0,0,0,.061.126.224.224,0,0,0,.141.038A.6.6,0,0,0,.826-2.47a.761.761,0,0,0,.157-.069v.18a.738.738,0,0,1-.164.05.983.983,0,0,1-.164.015.443.443,0,0,1-.309-.1.37.37,0,0,1-.111-.287.369.369,0,0,1,.107-.279.419.419,0,0,1,.3-.1.372.372,0,0,1,.275.1.378.378,0,0,1,.1.279Zm-.237-.08a.135.135,0,0,0-.042-.1.131.131,0,0,0-.1-.042.161.161,0,0,0-.111.038.176.176,0,0,0-.053.107Z" transform="translate(-0.234 3.063)" fill="#fff"/>
      </g>
      <g id="Groupe_205" data-name="Groupe 205" transform="translate(75.139 148.996)">
        <path id="Tracé_222" data-name="Tracé 222" d="M.8-3.763v-.393h.233V-3.14H.8v-.107a.329.329,0,0,1-.107.1.285.285,0,0,1-.134.031.277.277,0,0,1-.225-.107A.435.435,0,0,1,.25-3.507a.431.431,0,0,1,.084-.275.28.28,0,0,1,.225-.107.277.277,0,0,1,.13.031.343.343,0,0,1,.111.1Zm-.157.474a.131.131,0,0,0,.115-.053A.276.276,0,0,0,.8-3.507a.253.253,0,0,0-.042-.157.129.129,0,0,0-.115-.057.134.134,0,0,0-.115.057.267.267,0,0,0-.038.157.292.292,0,0,0,.038.164A.135.135,0,0,0,.643-3.289Z" transform="translate(-0.25 4.156)" fill="#fff"/>
      </g>
      <g id="Groupe_206" data-name="Groupe 206" transform="translate(76.611 148.996)">
        <path id="Tracé_223" data-name="Tracé 223" d="M.843-3.289a.131.131,0,0,0,.115-.053A.276.276,0,0,0,1-3.507a.253.253,0,0,0-.042-.157.129.129,0,0,0-.115-.057.134.134,0,0,0-.115.057.267.267,0,0,0-.038.157.292.292,0,0,0,.038.164A.135.135,0,0,0,.843-3.289ZM.69-3.763a.312.312,0,0,1,.1-.1.3.3,0,0,1,.138-.031.278.278,0,0,1,.222.107.422.422,0,0,1,.088.275.426.426,0,0,1-.088.279.275.275,0,0,1-.222.107.3.3,0,0,1-.138-.031.293.293,0,0,1-.1-.1v.107H.453V-4.156H.69Z" transform="translate(-0.453 4.156)" fill="#fff"/>
      </g>
      <g id="Groupe_207" data-name="Groupe 207" transform="translate(77.473 149.282)">
        <path id="Tracé_224" data-name="Tracé 224" d="M.063-2.984H.3l.2.493.168-.493H.9l-.309.8a.409.409,0,0,1-.107.172.257.257,0,0,1-.164.05H.181v-.157H.254A.16.16,0,0,0,.341-2.14a.135.135,0,0,0,.042-.065l.008-.023Z" transform="translate(-0.063 2.984)" fill="#fff"/>
      </g>
      <g id="Groupe_208" data-name="Groupe 208" transform="translate(78.891 149.019)">
        <path id="Tracé_225" data-name="Tracé 225" d="M1.1-4.013v.206A.724.724,0,0,0,.941-3.86.619.619,0,0,0,.8-3.879a.262.262,0,0,0-.134.027.079.079,0,0,0-.042.076.075.075,0,0,0,.027.061.308.308,0,0,0,.107.034l.107.023a.468.468,0,0,1,.229.1.251.251,0,0,1,.069.191.3.3,0,0,1-.1.241.456.456,0,0,1-.29.076.973.973,0,0,1-.187-.019A1.008,1.008,0,0,1,.4-3.119v-.214a1.03,1.03,0,0,0,.18.076.676.676,0,0,0,.172.023A.228.228,0,0,0,.872-3.26a.083.083,0,0,0,.046-.076.081.081,0,0,0-.031-.069.307.307,0,0,0-.118-.046l-.1-.023a.421.421,0,0,1-.218-.1.258.258,0,0,1-.065-.187.273.273,0,0,1,.092-.222.409.409,0,0,1,.271-.08,1.009,1.009,0,0,1,.168.015,1.67,1.67,0,0,1,.176.034Z" transform="translate(-0.391 4.063)" fill="#fff"/>
      </g>
      <g id="Groupe_209" data-name="Groupe 209" transform="translate(79.815 149.263)">
        <path id="Tracé_226" data-name="Tracé 226" d="M.616-2.642a.2.2,0,0,0-.111.027.082.082,0,0,0-.034.073A.09.09,0,0,0,.5-2.474a.135.135,0,0,0,.084.023A.151.151,0,0,0,.693-2.5a.16.16,0,0,0,.046-.118v-.027ZM.976-2.73v.416H.739v-.107a.288.288,0,0,1-.107.1.3.3,0,0,1-.141.031A.266.266,0,0,1,.3-2.36a.233.233,0,0,1-.069-.172.216.216,0,0,1,.088-.191A.5.5,0,0,1,.6-2.784H.739V-2.8a.082.082,0,0,0-.046-.08.265.265,0,0,0-.134-.027.648.648,0,0,0-.141.015A.575.575,0,0,0,.3-2.849v-.176a1.054,1.054,0,0,1,.149-.027A1.019,1.019,0,0,1,.6-3.063a.421.421,0,0,1,.287.08.321.321,0,0,1,.088.252Z" transform="translate(-0.234 3.063)" fill="#fff"/>
      </g>
      <g id="Groupe_210" data-name="Groupe 210" transform="translate(80.721 149.263)">
        <path id="Tracé_227" data-name="Tracé 227" d="M.8-2.436a.35.35,0,0,1-.107.092.274.274,0,0,1-.134.031.277.277,0,0,1-.222-.1A.408.408,0,0,1,.25-2.688a.4.4,0,0,1,.088-.267.275.275,0,0,1,.222-.107.285.285,0,0,1,.134.031.353.353,0,0,1,.107.1v-.107h.233v.657a.329.329,0,0,1-.111.267.49.49,0,0,1-.325.1.738.738,0,0,1-.13-.011.79.79,0,0,1-.13-.034v-.18a.514.514,0,0,0,.118.05.413.413,0,0,0,.122.019.245.245,0,0,0,.168-.05A.206.206,0,0,0,.8-2.386ZM.643-2.894a.138.138,0,0,0-.115.053.26.26,0,0,0-.038.153.256.256,0,0,0,.038.153.135.135,0,0,0,.115.053.138.138,0,0,0,.115-.053A.243.243,0,0,0,.8-2.688a.246.246,0,0,0-.042-.153A.14.14,0,0,0,.643-2.894Z" transform="translate(-0.25 3.063)" fill="#fff"/>
      </g>
      <g id="Groupe_211" data-name="Groupe 211" transform="translate(81.674 149.263)">
        <path id="Tracé_228" data-name="Tracé 228" d="M.616-2.642a.2.2,0,0,0-.111.027.082.082,0,0,0-.034.073A.09.09,0,0,0,.5-2.474a.135.135,0,0,0,.084.023A.151.151,0,0,0,.693-2.5a.16.16,0,0,0,.046-.118v-.027ZM.976-2.73v.416H.739v-.107a.288.288,0,0,1-.107.1.3.3,0,0,1-.141.031A.266.266,0,0,1,.3-2.36a.233.233,0,0,1-.069-.172.216.216,0,0,1,.088-.191A.5.5,0,0,1,.6-2.784H.739V-2.8a.082.082,0,0,0-.046-.08.265.265,0,0,0-.134-.027.648.648,0,0,0-.141.015A.575.575,0,0,0,.3-2.849v-.176a1.054,1.054,0,0,1,.149-.027A1.019,1.019,0,0,1,.6-3.063a.421.421,0,0,1,.287.08.321.321,0,0,1,.088.252Z" transform="translate(-0.234 3.063)" fill="#fff"/>
      </g>
      <g id="Groupe_212" data-name="Groupe 212" transform="translate(83.08 149.019)">
        <path id="Tracé_229" data-name="Tracé 229" d="M1.1-4.013v.206A.724.724,0,0,0,.941-3.86.619.619,0,0,0,.8-3.879a.262.262,0,0,0-.134.027.079.079,0,0,0-.042.076.075.075,0,0,0,.027.061.308.308,0,0,0,.107.034l.107.023a.468.468,0,0,1,.229.1.251.251,0,0,1,.069.191.3.3,0,0,1-.1.241.456.456,0,0,1-.29.076.973.973,0,0,1-.187-.019A1.008,1.008,0,0,1,.4-3.119v-.214a1.03,1.03,0,0,0,.18.076.676.676,0,0,0,.172.023A.228.228,0,0,0,.872-3.26a.083.083,0,0,0,.046-.076.081.081,0,0,0-.031-.069.307.307,0,0,0-.118-.046l-.1-.023a.421.421,0,0,1-.218-.1.258.258,0,0,1-.065-.187.273.273,0,0,1,.092-.222.409.409,0,0,1,.271-.08,1.009,1.009,0,0,1,.168.015,1.67,1.67,0,0,1,.176.034Z" transform="translate(-0.391 4.063)" fill="#fff"/>
      </g>
      <g id="Groupe_213" data-name="Groupe 213" transform="translate(83.966 149.072)">
        <path id="Tracé_230" data-name="Tracé 230" d="M.426-3.844v.21H.666v.164H.426v.313a.093.093,0,0,0,.019.069.159.159,0,0,0,.084.015H.647V-2.9h-.2a.276.276,0,0,1-.2-.057.27.27,0,0,1-.057-.195v-.313H.078v-.164H.193v-.21Z" transform="translate(-0.078 3.844)" fill="#fff"/>
      </g>
      <g id="Groupe_214" data-name="Groupe 214" transform="translate(84.689 149.282)">
        <path id="Tracé_231" data-name="Tracé 231" d="M.422-2.541v-.443H.659v.34c0,.059,0,.1,0,.13a.1.1,0,0,0,.015.053.122.122,0,0,0,.038.038.116.116,0,0,0,.053.011.136.136,0,0,0,.115-.057.261.261,0,0,0,.042-.157v-.359h.233v.73H.926v-.107a.359.359,0,0,1-.115.1.277.277,0,0,1-.13.031.246.246,0,0,1-.195-.076.352.352,0,0,1-.065-.229Z" transform="translate(-0.422 2.984)" fill="#fff"/>
      </g>
      <g id="Groupe_215" data-name="Groupe 215" transform="translate(85.599 148.996)">
        <path id="Tracé_232" data-name="Tracé 232" d="M.8-3.763v-.393h.233V-3.14H.8v-.107a.329.329,0,0,1-.107.1.285.285,0,0,1-.134.031.277.277,0,0,1-.225-.107A.435.435,0,0,1,.25-3.507a.431.431,0,0,1,.084-.275.28.28,0,0,1,.225-.107.277.277,0,0,1,.13.031.343.343,0,0,1,.111.1Zm-.157.474a.131.131,0,0,0,.115-.053A.276.276,0,0,0,.8-3.507a.253.253,0,0,0-.042-.157.129.129,0,0,0-.115-.057.134.134,0,0,0-.115.057.267.267,0,0,0-.038.157.292.292,0,0,0,.038.164A.135.135,0,0,0,.643-3.289Z" transform="translate(-0.25 4.156)" fill="#fff"/>
      </g>
      <g id="Groupe_216" data-name="Groupe 216" transform="translate(86.606 148.996)">
        <path id="Tracé_233" data-name="Tracé 233" d="M.453-3.87H.69v.73H.453Zm0-.287H.69v.191H.453Z" transform="translate(-0.453 4.156)" fill="#fff"/>
      </g>
      <g id="Groupe_217" data-name="Groupe 217" transform="translate(87.011 149.263)">
        <path id="Tracé_234" data-name="Tracé 234" d="M.635-2.894a.137.137,0,0,0-.118.057.267.267,0,0,0-.038.157.292.292,0,0,0,.038.164.139.139,0,0,0,.118.053.141.141,0,0,0,.118-.053A.276.276,0,0,0,.8-2.681a.253.253,0,0,0-.042-.157A.139.139,0,0,0,.635-2.894Zm0-.168a.4.4,0,0,1,.294.1.365.365,0,0,1,.107.279.382.382,0,0,1-.107.287.4.4,0,0,1-.294.1.411.411,0,0,1-.294-.1.378.378,0,0,1-.107-.287.362.362,0,0,1,.107-.279A.4.4,0,0,1,.635-3.062Z" transform="translate(-0.234 3.063)" fill="#fff"/>
      </g>
      <g id="Groupe_218" data-name="Groupe 218" transform="translate(70.109 150.333)">
        <path id="Tracé_235" data-name="Tracé 235" d="M.675-4.156V-4H.549a.114.114,0,0,0-.073.019.082.082,0,0,0-.019.061v.053h.2v.164h-.2v.565H.224v-.565H.109V-3.87H.224v-.053A.221.221,0,0,1,.289-4.1.323.323,0,0,1,.5-4.156Z" transform="translate(-0.109 4.156)" fill="#fff"/>
      </g>
      <g id="Groupe_219" data-name="Groupe 219" transform="translate(70.775 150.6)">
        <path id="Tracé_236" data-name="Tracé 236" d="M1-2.845a.438.438,0,0,0-.061-.023.275.275,0,0,0-.061-.008.173.173,0,0,0-.141.061A.259.259,0,0,0,.69-2.65v.336H.453v-.73H.69v.118a.266.266,0,0,1,.1-.1.282.282,0,0,1,.141-.034H.957l.038,0Z" transform="translate(-0.453 3.063)" fill="#fff"/>
      </g>
      <g id="Groupe_220" data-name="Groupe 220" transform="translate(71.381 150.6)">
        <path id="Tracé_237" data-name="Tracé 237" d="M.635-2.894a.137.137,0,0,0-.118.057.267.267,0,0,0-.038.157.292.292,0,0,0,.038.164.139.139,0,0,0,.118.053.141.141,0,0,0,.118-.053A.276.276,0,0,0,.8-2.681a.253.253,0,0,0-.042-.157A.139.139,0,0,0,.635-2.894Zm0-.168a.4.4,0,0,1,.294.1.365.365,0,0,1,.107.279.382.382,0,0,1-.107.287.4.4,0,0,1-.294.1.411.411,0,0,1-.294-.1.378.378,0,0,1-.107-.287.362.362,0,0,1,.107-.279A.4.4,0,0,1,.635-3.062Z" transform="translate(-0.234 3.063)" fill="#fff"/>
      </g>
      <g id="Groupe_221" data-name="Groupe 221" transform="translate(72.353 150.6)">
        <path id="Tracé_238" data-name="Tracé 238" d="M1.133-2.925a.292.292,0,0,1,.1-.1.257.257,0,0,1,.138-.038.228.228,0,0,1,.187.08.322.322,0,0,1,.069.222v.447H1.393V-2.7a.04.04,0,0,0,0-.015v-.027a.215.215,0,0,0-.023-.115A.082.082,0,0,0,1.3-2.887a.121.121,0,0,0-.107.057.293.293,0,0,0-.034.157v.359H.923V-2.7A.335.335,0,0,0,.9-2.852a.076.076,0,0,0-.073-.034.117.117,0,0,0-.1.057.293.293,0,0,0-.034.157v.359H.453v-.73H.69v.107a.285.285,0,0,1,.1-.1.267.267,0,0,1,.126-.031.241.241,0,0,1,.134.038.229.229,0,0,1,.088.1Z" transform="translate(-0.453 3.063)" fill="#fff"/>
      </g>
      <g id="Groupe_222" data-name="Groupe 222" transform="translate(74.12 150.409)">
        <path id="Tracé_239" data-name="Tracé 239" d="M.426-3.844v.21H.666v.164H.426v.313a.093.093,0,0,0,.019.069.159.159,0,0,0,.084.015H.647V-2.9h-.2a.276.276,0,0,1-.2-.057.27.27,0,0,1-.057-.195v-.313H.078v-.164H.193v-.21Z" transform="translate(-0.078 3.844)" fill="#fff"/>
      </g>
      <g id="Groupe_223" data-name="Groupe 223" transform="translate(74.851 150.333)">
        <path id="Tracé_240" data-name="Tracé 240" d="M1.19-3.587v.447H.954v-.34c0-.063,0-.107,0-.13a.119.119,0,0,0-.015-.053A.075.075,0,0,0,.9-3.7a.1.1,0,0,0-.05-.015.137.137,0,0,0-.118.057A.277.277,0,0,0,.69-3.5v.359H.453V-4.156H.69v.393a.324.324,0,0,1,.111-.1.289.289,0,0,1,.13-.031.232.232,0,0,1,.191.08.322.322,0,0,1,.069.222Z" transform="translate(-0.453 4.156)" fill="#fff"/>
      </g>
      <g id="Groupe_224" data-name="Groupe 224" transform="translate(75.749 150.6)">
        <path id="Tracé_241" data-name="Tracé 241" d="M1.017-2.681v.065H.471a.189.189,0,0,0,.061.126.224.224,0,0,0,.141.038A.6.6,0,0,0,.826-2.47a.761.761,0,0,0,.157-.069v.18a.738.738,0,0,1-.164.05.983.983,0,0,1-.164.015.443.443,0,0,1-.309-.1.37.37,0,0,1-.111-.287.369.369,0,0,1,.107-.279.419.419,0,0,1,.3-.1.372.372,0,0,1,.275.1.378.378,0,0,1,.1.279Zm-.237-.08a.135.135,0,0,0-.042-.1.131.131,0,0,0-.1-.042.161.161,0,0,0-.111.038.176.176,0,0,0-.053.107Z" transform="translate(-0.234 3.063)" fill="#fff"/>
      </g>
      <g id="Groupe_225" data-name="Groupe 225" transform="translate(77.186 150.375)">
        <path id="Tracé_242" data-name="Tracé 242" d="M.5-3.984H.783l.351.669v-.669h.241v.974H1.092L.741-3.679v.669H.5Z" transform="translate(-0.5 3.984)" fill="#fff"/>
      </g>
      <g id="Groupe_226" data-name="Groupe 226" transform="translate(78.24 150.6)">
        <path id="Tracé_243" data-name="Tracé 243" d="M.635-2.894a.137.137,0,0,0-.118.057.267.267,0,0,0-.038.157.292.292,0,0,0,.038.164.139.139,0,0,0,.118.053.141.141,0,0,0,.118-.053A.276.276,0,0,0,.8-2.681a.253.253,0,0,0-.042-.157A.139.139,0,0,0,.635-2.894Zm0-.168a.4.4,0,0,1,.294.1.365.365,0,0,1,.107.279.382.382,0,0,1-.107.287.4.4,0,0,1-.294.1.411.411,0,0,1-.294-.1.378.378,0,0,1-.107-.287.362.362,0,0,1,.107-.279A.4.4,0,0,1,.635-3.062Z" transform="translate(-0.234 3.063)" fill="#fff"/>
      </g>
      <g id="Groupe_227" data-name="Groupe 227" transform="translate(79.205 150.619)">
        <path id="Tracé_244" data-name="Tracé 244" d="M.422-2.541v-.443H.659v.34c0,.059,0,.1,0,.13a.1.1,0,0,0,.015.053.122.122,0,0,0,.038.038.116.116,0,0,0,.053.011.136.136,0,0,0,.115-.057.261.261,0,0,0,.042-.157v-.359h.233v.73H.926v-.107a.359.359,0,0,1-.115.1.277.277,0,0,1-.13.031.246.246,0,0,1-.195-.076.352.352,0,0,1-.065-.229Z" transform="translate(-0.422 2.984)" fill="#fff"/>
      </g>
      <g id="Groupe_228" data-name="Groupe 228" transform="translate(80.165 150.6)">
        <path id="Tracé_245" data-name="Tracé 245" d="M1.19-2.761v.447H.954v-.34c0-.063,0-.107,0-.13a.119.119,0,0,0-.015-.053A.075.075,0,0,0,.9-2.871a.1.1,0,0,0-.05-.015.137.137,0,0,0-.118.057.277.277,0,0,0-.038.157v.359H.453v-.73H.69v.107a.324.324,0,0,1,.111-.1.289.289,0,0,1,.13-.031.232.232,0,0,1,.191.08.322.322,0,0,1,.069.222Z" transform="translate(-0.453 3.062)" fill="#fff"/>
      </g>
      <g id="Groupe_229" data-name="Groupe 229" transform="translate(81.593 150.375)">
        <path id="Tracé_246" data-name="Tracé 246" d="M.5-3.984H.916A.438.438,0,0,1,1.2-3.9a.284.284,0,0,1,.1.233.293.293,0,0,1-.1.237.449.449,0,0,1-.287.08H.752v.34H.5ZM.752-3.8v.271H.89A.162.162,0,0,0,1-3.564a.132.132,0,0,0,.042-.1A.122.122,0,0,0,1-3.767.162.162,0,0,0,.89-3.8Z" transform="translate(-0.5 3.984)" fill="#fff"/>
      </g>
      <g id="Groupe_230" data-name="Groupe 230" transform="translate(82.562 150.6)">
        <path id="Tracé_247" data-name="Tracé 247" d="M1-2.845a.438.438,0,0,0-.061-.023.275.275,0,0,0-.061-.008.173.173,0,0,0-.141.061A.259.259,0,0,0,.69-2.65v.336H.453v-.73H.69v.118a.266.266,0,0,1,.1-.1.282.282,0,0,1,.141-.034H.957l.038,0Z" transform="translate(-0.453 3.063)" fill="#fff"/>
      </g>
      <g id="Groupe_231" data-name="Groupe 231" transform="translate(83.167 150.6)">
        <path id="Tracé_248" data-name="Tracé 248" d="M.635-2.894a.137.137,0,0,0-.118.057.267.267,0,0,0-.038.157.292.292,0,0,0,.038.164.139.139,0,0,0,.118.053.141.141,0,0,0,.118-.053A.276.276,0,0,0,.8-2.681a.253.253,0,0,0-.042-.157A.139.139,0,0,0,.635-2.894Zm0-.168a.4.4,0,0,1,.294.1.365.365,0,0,1,.107.279.382.382,0,0,1-.107.287.4.4,0,0,1-.294.1.411.411,0,0,1-.294-.1.378.378,0,0,1-.107-.287.362.362,0,0,1,.107-.279A.4.4,0,0,1,.635-3.062Z" transform="translate(-0.234 3.063)" fill="#fff"/>
      </g>
      <g id="Groupe_232" data-name="Groupe 232" transform="translate(83.983 150.333)">
        <path id="Tracé_249" data-name="Tracé 249" d="M-.031-3.87H.206v.718a.314.314,0,0,1-.073.222.252.252,0,0,1-.2.08H-.188v-.157h.042a.106.106,0,0,0,.088-.031.175.175,0,0,0,.027-.115Zm0-.287H.206v.191H-.031Z" transform="translate(0.188 4.156)" fill="#fff"/>
      </g>
      <g id="Groupe_233" data-name="Groupe 233" transform="translate(84.544 150.6)">
        <path id="Tracé_250" data-name="Tracé 250" d="M1.017-2.681v.065H.471a.189.189,0,0,0,.061.126.224.224,0,0,0,.141.038A.6.6,0,0,0,.826-2.47a.761.761,0,0,0,.157-.069v.18a.738.738,0,0,1-.164.05.983.983,0,0,1-.164.015.443.443,0,0,1-.309-.1.37.37,0,0,1-.111-.287.369.369,0,0,1,.107-.279.419.419,0,0,1,.3-.1.372.372,0,0,1,.275.1.378.378,0,0,1,.1.279Zm-.237-.08a.135.135,0,0,0-.042-.1.131.131,0,0,0-.1-.042.161.161,0,0,0-.111.038.176.176,0,0,0-.053.107Z" transform="translate(-0.234 3.063)" fill="#fff"/>
      </g>
      <g id="Groupe_234" data-name="Groupe 234" transform="translate(85.45 150.6)">
        <path id="Tracé_251" data-name="Tracé 251" d="M.88-3.02v.187a.4.4,0,0,0-.1-.046.364.364,0,0,0-.1-.015.2.2,0,0,0-.153.057.218.218,0,0,0-.053.157.223.223,0,0,0,.053.16.2.2,0,0,0,.153.057.342.342,0,0,0,.1-.015.269.269,0,0,0,.092-.05v.191a.455.455,0,0,1-.111.031.583.583,0,0,1-.115.011.443.443,0,0,1-.309-.1A.37.37,0,0,1,.234-2.68a.354.354,0,0,1,.111-.279.436.436,0,0,1,.309-.1.583.583,0,0,1,.115.011A.455.455,0,0,1,.88-3.02Z" transform="translate(-0.234 3.062)" fill="#fff"/>
      </g>
      <g id="Groupe_235" data-name="Groupe 235" transform="translate(86.205 150.409)">
        <path id="Tracé_252" data-name="Tracé 252" d="M.426-3.844v.21H.666v.164H.426v.313a.093.093,0,0,0,.019.069.159.159,0,0,0,.084.015H.647V-2.9h-.2a.276.276,0,0,1-.2-.057.27.27,0,0,1-.057-.195v-.313H.078v-.164H.193v-.21Z" transform="translate(-0.078 3.844)" fill="#fff"/>
      </g>
    </g>
  </g>
</svg>
