<svg xmlns="http://www.w3.org/2000/svg" xmlns:xlink="http://www.w3.org/1999/xlink" width="175.621" height="168.35" viewBox="0 0 175.621 168.35">
  <defs>
    <clipPath id="clip-path">
      <rect y="-4" width="175.621" height="168.35" fill="none"/>
    </clipPath>
  </defs>
  <g id="Groupe_défilant_6" data-name="Groupe défilant 6" transform="translate(0 4)" clip-path="url(#clip-path)" style="isolation: isolate">
    <g id="flower" transform="translate(-70.031 -27.5)">
      <path id="Tracé_43" data-name="Tracé 43" d="M254.112,106.23c0-13.183-13.357-21.509-26.712-21.335,8.5-9.366,13.357-24.631,3.989-33.824-9.366-9.366-24.631-5.724-34.171,3.816C196.7,42.224,189.238,28,176.229,28c-13.183,0-21.509,13.53-21.335,26.886-9.366-8.5-24.631-13.357-33.824-3.989-9.366,9.366-5.724,24.631,3.816,34C112.223,85.414,98,92.873,98,105.883c0,13.183,13.53,21.509,26.712,21.335-8.5,9.366-13.357,24.631-3.989,33.824,9.366,9.366,24.631,5.724,34.171-3.816.52,12.662,7.98,26.886,20.989,26.886,13.183,0,21.509-13.53,21.335-26.886,9.366,8.5,24.631,13.357,33.824,3.989,9.366-9.366,5.724-24.631-3.816-34,12.662-.519,26.886-7.978,26.886-20.988Zm-78.056,26.019a26.192,26.192,0,1,1,26.192-26.192A26.168,26.168,0,0,1,176.056,132.248Z" transform="translate(-18.96 0)" fill="#fff"/>
      <g id="Groupe_38" data-name="Groupe 38" transform="translate(70.798 212.367)">
        <path id="Tracé_44" data-name="Tracé 44" d="M6.773-14.693a4.121,4.121,0,0,1-.939.348,4.221,4.221,0,0,1-1.016.121,3.472,3.472,0,0,1-2.5-.881,3.159,3.159,0,0,1-.924-2.4,3.152,3.152,0,0,1,.924-2.4,3.464,3.464,0,0,1,2.5-.886,4.221,4.221,0,0,1,1.016.121,4.12,4.12,0,0,1,.939.348v1.307a3.72,3.72,0,0,0-.9-.45,2.952,2.952,0,0,0-.929-.145,1.738,1.738,0,0,0-1.37.561,2.224,2.224,0,0,0-.5,1.539,2.233,2.233,0,0,0,.5,1.539,1.743,1.743,0,0,0,1.37.557,3.021,3.021,0,0,0,.929-.14,3.616,3.616,0,0,0,.9-.455Z" transform="translate(-1.391 20.781)"/>
      </g>
      <g id="Groupe_39" data-name="Groupe 39" transform="translate(77.463 213.945)">
        <path id="Tracé_45" data-name="Tracé 45" d="M5.882-14.279a2.1,2.1,0,0,0-.4-.136,1.656,1.656,0,0,0-.392-.048,1.1,1.1,0,0,0-.9.378,1.612,1.612,0,0,0-.315,1.07v2.188H2.359v-4.743H3.874v.779a1.926,1.926,0,0,1,.668-.678,1.805,1.805,0,0,1,.91-.218,1.613,1.613,0,0,1,.165.01c.06,0,.148.012.261.024Z" transform="translate(-2.359 15.687)"/>
      </g>
      <g id="Groupe_40" data-name="Groupe 40" transform="translate(81.382 213.945)">
        <path id="Tracé_46" data-name="Tracé 46" d="M6.295-13.214v.436H2.747a1.128,1.128,0,0,0,.387.8,1.431,1.431,0,0,0,.924.266,3.568,3.568,0,0,0,.978-.14,5.175,5.175,0,0,0,1.031-.431v1.166a6.39,6.39,0,0,1-1.074.3,5.577,5.577,0,0,1-1.074.106,2.862,2.862,0,0,1-2-.653A2.365,2.365,0,0,1,1.2-13.2a2.389,2.389,0,0,1,.7-1.825,2.678,2.678,0,0,1,1.926-.668,2.413,2.413,0,0,1,1.791.678,2.432,2.432,0,0,1,.673,1.8Zm-1.558-.5a.96.96,0,0,0-.252-.692.868.868,0,0,0-.658-.266,1.033,1.033,0,0,0-.716.247,1.135,1.135,0,0,0-.344.711Z" transform="translate(-1.203 15.688)"/>
      </g>
      <g id="Groupe_41" data-name="Groupe 41" transform="translate(87.264 213.945)">
        <path id="Tracé_47" data-name="Tracé 47" d="M3.686-12.963a1.306,1.306,0,0,0-.716.16.534.534,0,0,0-.237.474.563.563,0,0,0,.194.455.81.81,0,0,0,.532.16.956.956,0,0,0,.721-.3,1.073,1.073,0,0,0,.3-.77v-.174ZM6-13.534v2.705H4.475v-.7a1.958,1.958,0,0,1-.687.629,2.052,2.052,0,0,1-.929.194,1.685,1.685,0,0,1-1.2-.426,1.458,1.458,0,0,1-.46-1.118,1.37,1.37,0,0,1,.571-1.22,3.262,3.262,0,0,1,1.805-.392h.9v-.121a.561.561,0,0,0-.286-.523,1.8,1.8,0,0,0-.886-.169,4.075,4.075,0,0,0-.91.1,3.139,3.139,0,0,0-.774.29v-1.157a9.223,9.223,0,0,1,.973-.179,7.954,7.954,0,0,1,.987-.063,2.737,2.737,0,0,1,1.849.508A2.1,2.1,0,0,1,6-13.534Z" transform="translate(-1.203 15.688)"/>
      </g>
      <g id="Groupe_42" data-name="Groupe 42" transform="translate(92.86 212.716)">
        <path id="Tracé_48" data-name="Tracé 48" d="M2.645-19.656v1.345H4.208v1.084H2.645v2.013a.585.585,0,0,0,.131.445.815.815,0,0,0,.518.116h.779v1.084h-1.3A1.78,1.78,0,0,1,1.5-13.94a1.77,1.77,0,0,1-.373-1.273v-2.013H.375v-1.084h.75v-1.345Z" transform="translate(-0.375 19.656)"/>
      </g>
      <g id="Groupe_43" data-name="Groupe 43" transform="translate(97.263 213.945)">
        <path id="Tracé_49" data-name="Tracé 49" d="M6.295-13.214v.436H2.747a1.128,1.128,0,0,0,.387.8,1.431,1.431,0,0,0,.924.266,3.568,3.568,0,0,0,.978-.14,5.175,5.175,0,0,0,1.031-.431v1.166a6.39,6.39,0,0,1-1.074.3,5.577,5.577,0,0,1-1.074.106,2.862,2.862,0,0,1-2-.653A2.365,2.365,0,0,1,1.2-13.2a2.389,2.389,0,0,1,.7-1.825,2.678,2.678,0,0,1,1.926-.668,2.413,2.413,0,0,1,1.791.678,2.432,2.432,0,0,1,.673,1.8Zm-1.558-.5a.96.96,0,0,0-.252-.692.868.868,0,0,0-.658-.266,1.033,1.033,0,0,0-.716.247,1.135,1.135,0,0,0-.344.711Z" transform="translate(-1.203 15.688)"/>
      </g>
      <g id="Groupe_44" data-name="Groupe 44" transform="translate(103.164 212.212)">
        <path id="Tracé_50" data-name="Tracé 50" d="M4.828-18.74v-2.541H6.353v6.592H4.828v-.687a2,2,0,0,1-.687.615,1.907,1.907,0,0,1-.876.194,1.764,1.764,0,0,1-1.437-.7,2.759,2.759,0,0,1-.561-1.791,2.769,2.769,0,0,1,.561-1.8,1.764,1.764,0,0,1,1.437-.7,1.85,1.85,0,0,1,.871.2,2.1,2.1,0,0,1,.692.61Zm-1,3.073a.86.86,0,0,0,.74-.353,1.766,1.766,0,0,0,.257-1.036,1.747,1.747,0,0,0-.257-1.031.858.858,0,0,0-.74-.358.855.855,0,0,0-.74.358,1.738,1.738,0,0,0-.257,1.031,1.757,1.757,0,0,0,.257,1.036A.857.857,0,0,0,3.831-15.667Z" transform="translate(-1.266 21.281)"/>
      </g>
      <g id="Groupe_45" data-name="Groupe 45" transform="translate(112.731 212.212)">
        <path id="Tracé_51" data-name="Tracé 51" d="M4.881-15.667a.864.864,0,0,0,.745-.353,1.766,1.766,0,0,0,.257-1.036,1.747,1.747,0,0,0-.257-1.031.862.862,0,0,0-.745-.358.872.872,0,0,0-.75.358,1.753,1.753,0,0,0-.257,1.031,1.748,1.748,0,0,0,.257,1.031.869.869,0,0,0,.75.358ZM3.874-18.74a2.148,2.148,0,0,1,.692-.61,1.877,1.877,0,0,1,.876-.2,1.771,1.771,0,0,1,1.442.7,2.775,2.775,0,0,1,.561,1.8,2.766,2.766,0,0,1-.561,1.791,1.771,1.771,0,0,1-1.442.7,1.921,1.921,0,0,1-.876-.194,2.1,2.1,0,0,1-.692-.615v.687H2.359v-6.592H3.874Z" transform="translate(-2.359 21.281)"/>
      </g>
      <g id="Groupe_46" data-name="Groupe 46" transform="translate(118.315 214.061)">
        <path id="Tracé_52" data-name="Tracé 52" d="M.344-15.312H1.859l1.278,3.219L4.22-15.312H5.735L3.741-10.119a2.534,2.534,0,0,1-.7,1.1A1.647,1.647,0,0,1,1.984-8.7H1.1v-1h.474a.98.98,0,0,0,.561-.126.791.791,0,0,0,.276-.436l.044-.131Z" transform="translate(-0.344 15.312)"/>
      </g>
      <g id="Groupe_47" data-name="Groupe 47" transform="translate(127.68 212.483)">
        <path id="Tracé_53" data-name="Tracé 53" d="M2.578-20.406h4.4v1.229H4.2V-18H6.813v1.234H4.2v2.681H2.578Z" transform="translate(-2.578 20.406)"/>
      </g>
      <g id="Groupe_48" data-name="Groupe 48" transform="translate(133.178 213.945)">
        <path id="Tracé_54" data-name="Tracé 54" d="M6.295-13.214v.436H2.747a1.128,1.128,0,0,0,.387.8,1.431,1.431,0,0,0,.924.266,3.568,3.568,0,0,0,.978-.14,5.175,5.175,0,0,0,1.031-.431v1.166a6.39,6.39,0,0,1-1.074.3,5.577,5.577,0,0,1-1.074.106,2.862,2.862,0,0,1-2-.653A2.365,2.365,0,0,1,1.2-13.2a2.389,2.389,0,0,1,.7-1.825,2.678,2.678,0,0,1,1.926-.668,2.413,2.413,0,0,1,1.791.678,2.432,2.432,0,0,1,.673,1.8Zm-1.558-.5a.96.96,0,0,0-.252-.692.868.868,0,0,0-.658-.266,1.033,1.033,0,0,0-.716.247,1.135,1.135,0,0,0-.344.711Z" transform="translate(-1.203 15.688)"/>
      </g>
      <g id="Groupe_49" data-name="Groupe 49" transform="translate(139.08 212.212)">
        <path id="Tracé_55" data-name="Tracé 55" d="M4.828-18.74v-2.541H6.353v6.592H4.828v-.687a2,2,0,0,1-.687.615,1.907,1.907,0,0,1-.876.194,1.764,1.764,0,0,1-1.437-.7,2.759,2.759,0,0,1-.561-1.791,2.769,2.769,0,0,1,.561-1.8,1.764,1.764,0,0,1,1.437-.7,1.85,1.85,0,0,1,.871.2,2.1,2.1,0,0,1,.692.61Zm-1,3.073a.86.86,0,0,0,.74-.353,1.766,1.766,0,0,0,.257-1.036,1.747,1.747,0,0,0-.257-1.031.858.858,0,0,0-.74-.358.855.855,0,0,0-.74.358,1.738,1.738,0,0,0-.257,1.031,1.757,1.757,0,0,0,.257,1.036A.857.857,0,0,0,3.831-15.667Z" transform="translate(-1.266 21.281)"/>
      </g>
      <g id="Groupe_50" data-name="Groupe 50" transform="translate(145.268 213.945)">
        <path id="Tracé_56" data-name="Tracé 56" d="M6.295-13.214v.436H2.747a1.128,1.128,0,0,0,.387.8,1.431,1.431,0,0,0,.924.266,3.568,3.568,0,0,0,.978-.14,5.175,5.175,0,0,0,1.031-.431v1.166a6.39,6.39,0,0,1-1.074.3,5.577,5.577,0,0,1-1.074.106,2.862,2.862,0,0,1-2-.653A2.365,2.365,0,0,1,1.2-13.2a2.389,2.389,0,0,1,.7-1.825,2.678,2.678,0,0,1,1.926-.668,2.413,2.413,0,0,1,1.791.678,2.432,2.432,0,0,1,.673,1.8Zm-1.558-.5a.96.96,0,0,0-.252-.692.868.868,0,0,0-.658-.266,1.033,1.033,0,0,0-.716.247,1.135,1.135,0,0,0-.344.711Z" transform="translate(-1.203 15.688)"/>
      </g>
      <g id="Groupe_51" data-name="Groupe 51" transform="translate(151.508 213.945)">
        <path id="Tracé_57" data-name="Tracé 57" d="M5.882-14.279a2.1,2.1,0,0,0-.4-.136,1.656,1.656,0,0,0-.392-.048,1.1,1.1,0,0,0-.9.378,1.612,1.612,0,0,0-.315,1.07v2.188H2.359v-4.743H3.874v.779a1.926,1.926,0,0,1,.668-.678,1.805,1.805,0,0,1,.91-.218,1.613,1.613,0,0,1,.165.01c.06,0,.148.012.261.024Z" transform="translate(-2.359 15.687)"/>
      </g>
      <g id="Groupe_52" data-name="Groupe 52" transform="translate(155.786 212.212)">
        <path id="Tracé_58" data-name="Tracé 58" d="M2.359-19.432H3.874v4.743H2.359Zm0-1.849H3.874v1.239H2.359Z" transform="translate(-2.359 21.281)"/>
      </g>
      <g id="Groupe_53" data-name="Groupe 53" transform="translate(158.4 213.945)">
        <path id="Tracé_59" data-name="Tracé 59" d="M5.39-15.421v1.234A2.358,2.358,0,0,0,4.77-14.5a2.053,2.053,0,0,0-.644-.1,1.311,1.311,0,0,0-.992.373,1.433,1.433,0,0,0-.353,1.036,1.441,1.441,0,0,0,.353,1.036,1.317,1.317,0,0,0,.992.368,2.209,2.209,0,0,0,.673-.1,1.986,1.986,0,0,0,.59-.315v1.239a4.1,4.1,0,0,1-.721.194,4.039,4.039,0,0,1-.736.068,2.878,2.878,0,0,1-2.009-.658A2.347,2.347,0,0,1,1.2-13.195a2.356,2.356,0,0,1,.721-1.834,2.884,2.884,0,0,1,2.009-.658,4.039,4.039,0,0,1,.736.068,4.05,4.05,0,0,1,.721.2Z" transform="translate(-1.203 15.687)"/>
      </g>
      <g id="Groupe_54" data-name="Groupe 54" transform="translate(163.541 213.945)">
        <path id="Tracé_60" data-name="Tracé 60" d="M3.817-14.6a.894.894,0,0,0-.77.363A1.746,1.746,0,0,0,2.781-13.2a1.746,1.746,0,0,0,.266,1.045.9.9,0,0,0,.77.358.875.875,0,0,0,.755-.358A1.755,1.755,0,0,0,4.838-13.2a1.754,1.754,0,0,0-.266-1.045A.873.873,0,0,0,3.817-14.6Zm0-1.084a2.643,2.643,0,0,1,1.912.663A2.417,2.417,0,0,1,6.416-13.2a2.425,2.425,0,0,1-.687,1.829,2.651,2.651,0,0,1-1.912.658A2.672,2.672,0,0,1,1.9-11.366,2.409,2.409,0,0,1,1.2-13.2,2.4,2.4,0,0,1,1.9-15.025,2.663,2.663,0,0,1,3.817-15.688Z" transform="translate(-1.203 15.688)"/>
      </g>
      <g id="Groupe_55" data-name="Groupe 55" transform="translate(172.945 212.483)">
        <path id="Tracé_61" data-name="Tracé 61" d="M2.578-20.406H5.284a2.814,2.814,0,0,1,1.849.537,1.863,1.863,0,0,1,.649,1.525,1.875,1.875,0,0,1-.649,1.529,2.814,2.814,0,0,1-1.849.537H4.2v2.192H2.578ZM4.2-19.225v1.767h.905a1.054,1.054,0,0,0,.731-.232.829.829,0,0,0,.261-.653A.822.822,0,0,0,5.84-19a1.07,1.07,0,0,0-.731-.227Z" transform="translate(-2.578 20.406)"/>
      </g>
      <g id="Groupe_56" data-name="Groupe 56" transform="translate(178.875 213.945)">
        <path id="Tracé_62" data-name="Tracé 62" d="M3.686-12.963a1.306,1.306,0,0,0-.716.16.534.534,0,0,0-.237.474.563.563,0,0,0,.194.455.81.81,0,0,0,.532.16.956.956,0,0,0,.721-.3,1.073,1.073,0,0,0,.3-.77v-.174ZM6-13.534v2.705H4.475v-.7a1.958,1.958,0,0,1-.687.629,2.052,2.052,0,0,1-.929.194,1.685,1.685,0,0,1-1.2-.426,1.458,1.458,0,0,1-.46-1.118,1.37,1.37,0,0,1,.571-1.22,3.262,3.262,0,0,1,1.805-.392h.9v-.121a.561.561,0,0,0-.286-.523,1.8,1.8,0,0,0-.886-.169,4.075,4.075,0,0,0-.91.1,3.139,3.139,0,0,0-.774.29v-1.157a9.223,9.223,0,0,1,.973-.179,7.954,7.954,0,0,1,.987-.063,2.737,2.737,0,0,1,1.849.508A2.1,2.1,0,0,1,6-13.534Z" transform="translate(-1.203 15.688)"/>
      </g>
      <g id="Groupe_57" data-name="Groupe 57" transform="translate(185.087 213.945)">
        <path id="Tracé_63" data-name="Tracé 63" d="M7.127-13.717v2.889H5.6V-13.04a8.111,8.111,0,0,0-.029-.847.911.911,0,0,0-.1-.344.618.618,0,0,0-.242-.227.711.711,0,0,0-.344-.082.876.876,0,0,0-.745.368,1.656,1.656,0,0,0-.271,1.012v2.333H2.359v-4.743H3.874v.692a2.421,2.421,0,0,1,.726-.61,1.844,1.844,0,0,1,.852-.2,1.538,1.538,0,0,1,1.249.508,2.212,2.212,0,0,1,.426,1.462Z" transform="translate(-2.359 15.687)"/>
      </g>
      <g id="Groupe_58" data-name="Groupe 58" transform="translate(190.921 214.061)">
        <path id="Tracé_64" data-name="Tracé 64" d="M1.367-15.312H5.5v1.06l-2.5,2.6H5.5v1.084H1.265v-1.06l2.5-2.6h-2.4Z" transform="translate(-1.265 15.312)"/>
      </g>
      <g id="Groupe_59" data-name="Groupe 59" transform="translate(195.95 213.945)">
        <path id="Tracé_65" data-name="Tracé 65" d="M3.686-12.963a1.306,1.306,0,0,0-.716.16.534.534,0,0,0-.237.474.563.563,0,0,0,.194.455.81.81,0,0,0,.532.16.956.956,0,0,0,.721-.3,1.073,1.073,0,0,0,.3-.77v-.174ZM6-13.534v2.705H4.475v-.7a1.958,1.958,0,0,1-.687.629,2.052,2.052,0,0,1-.929.194,1.685,1.685,0,0,1-1.2-.426,1.458,1.458,0,0,1-.46-1.118,1.37,1.37,0,0,1,.571-1.22,3.262,3.262,0,0,1,1.805-.392h.9v-.121a.561.561,0,0,0-.286-.523,1.8,1.8,0,0,0-.886-.169,4.075,4.075,0,0,0-.91.1,3.139,3.139,0,0,0-.774.29v-1.157a9.223,9.223,0,0,1,.973-.179,7.954,7.954,0,0,1,.987-.063,2.737,2.737,0,0,1,1.849.508A2.1,2.1,0,0,1,6-13.534Z" transform="translate(-1.203 15.688)"/>
      </g>
      <g id="Groupe_60" data-name="Groupe 60" transform="translate(202.162 213.945)">
        <path id="Tracé_66" data-name="Tracé 66" d="M7.127-13.717v2.889H5.6V-13.04a8.111,8.111,0,0,0-.029-.847.911.911,0,0,0-.1-.344.618.618,0,0,0-.242-.227.711.711,0,0,0-.344-.082.876.876,0,0,0-.745.368,1.656,1.656,0,0,0-.271,1.012v2.333H2.359v-4.743H3.874v.692a2.421,2.421,0,0,1,.726-.61,1.844,1.844,0,0,1,.852-.2,1.538,1.538,0,0,1,1.249.508,2.212,2.212,0,0,1,.426,1.462Z" transform="translate(-2.359 15.687)"/>
      </g>
      <g id="Groupe_61" data-name="Groupe 61" transform="translate(207.977 213.945)">
        <path id="Tracé_67" data-name="Tracé 67" d="M3.817-14.6a.894.894,0,0,0-.77.363A1.746,1.746,0,0,0,2.781-13.2a1.746,1.746,0,0,0,.266,1.045.9.9,0,0,0,.77.358.875.875,0,0,0,.755-.358A1.755,1.755,0,0,0,4.838-13.2a1.754,1.754,0,0,0-.266-1.045A.873.873,0,0,0,3.817-14.6Zm0-1.084a2.643,2.643,0,0,1,1.912.663A2.417,2.417,0,0,1,6.416-13.2a2.425,2.425,0,0,1-.687,1.829,2.651,2.651,0,0,1-1.912.658A2.672,2.672,0,0,1,1.9-11.366,2.409,2.409,0,0,1,1.2-13.2,2.4,2.4,0,0,1,1.9-15.025,2.663,2.663,0,0,1,3.817-15.688Z" transform="translate(-1.203 15.688)"/>
      </g>
      <g id="Groupe_62" data-name="Groupe 62" transform="translate(70.531 220.885)">
        <path id="Tracé_68" data-name="Tracé 68" d="M4.215-21.281v1H3.377a.679.679,0,0,0-.45.116.534.534,0,0,0-.126.407v.329H4.1v1.084H2.8v3.659H1.286v-3.659H.531v-1.084h.755v-.329a1.436,1.436,0,0,1,.431-1.147,2.016,2.016,0,0,1,1.341-.373Z" transform="translate(-0.531 21.281)"/>
      </g>
      <g id="Groupe_63" data-name="Groupe 63" transform="translate(74.871 222.618)">
        <path id="Tracé_69" data-name="Tracé 69" d="M5.882-14.279a2.1,2.1,0,0,0-.4-.136,1.656,1.656,0,0,0-.392-.048,1.1,1.1,0,0,0-.9.378,1.612,1.612,0,0,0-.315,1.07v2.188H2.359v-4.743H3.874v.779a1.926,1.926,0,0,1,.668-.678,1.805,1.805,0,0,1,.91-.218,1.613,1.613,0,0,1,.165.01c.06,0,.148.012.261.024Z" transform="translate(-2.359 15.687)"/>
      </g>
      <g id="Groupe_64" data-name="Groupe 64" transform="translate(78.79 222.618)">
        <path id="Tracé_70" data-name="Tracé 70" d="M3.817-14.6a.894.894,0,0,0-.77.363A1.746,1.746,0,0,0,2.781-13.2a1.746,1.746,0,0,0,.266,1.045.9.9,0,0,0,.77.358.875.875,0,0,0,.755-.358A1.755,1.755,0,0,0,4.838-13.2a1.754,1.754,0,0,0-.266-1.045A.873.873,0,0,0,3.817-14.6Zm0-1.084a2.643,2.643,0,0,1,1.912.663A2.417,2.417,0,0,1,6.416-13.2a2.425,2.425,0,0,1-.687,1.829,2.651,2.651,0,0,1-1.912.658A2.672,2.672,0,0,1,1.9-11.366,2.409,2.409,0,0,1,1.2-13.2,2.4,2.4,0,0,1,1.9-15.025,2.663,2.663,0,0,1,3.817-15.688Z" transform="translate(-1.203 15.688)"/>
      </g>
      <g id="Groupe_65" data-name="Groupe 65" transform="translate(85.097 222.618)">
        <path id="Tracé_71" data-name="Tracé 71" d="M6.732-14.783a2.055,2.055,0,0,1,.682-.673,1.689,1.689,0,0,1,.871-.232,1.533,1.533,0,0,1,1.244.508,2.193,2.193,0,0,1,.431,1.462v2.889H8.436v-2.584c0-.041,0-.1,0-.174a1.348,1.348,0,0,0-.15-.726.521.521,0,0,0-.474-.227.755.755,0,0,0-.668.358,1.859,1.859,0,0,0-.242,1.026v2.328H5.382V-13.3a2.356,2.356,0,0,0-.136-1.012.517.517,0,0,0-.484-.227.761.761,0,0,0-.673.358,1.829,1.829,0,0,0-.237,1.021v2.333H2.328v-4.743H3.853v.692a1.971,1.971,0,0,1,.639-.6,1.606,1.606,0,0,1,.8-.2,1.61,1.61,0,0,1,.871.237,1.494,1.494,0,0,1,.571.668Z" transform="translate(-2.328 15.688)"/>
      </g>
      <g id="Groupe_66" data-name="Groupe 66" transform="translate(96.549 221.389)">
        <path id="Tracé_72" data-name="Tracé 72" d="M2.645-19.656v1.345H4.208v1.084H2.645v2.013a.585.585,0,0,0,.131.445.815.815,0,0,0,.518.116h.779v1.084h-1.3A1.78,1.78,0,0,1,1.5-13.94a1.77,1.77,0,0,1-.373-1.273v-2.013H.375v-1.084h.75v-1.345Z" transform="translate(-0.375 19.656)"/>
      </g>
      <g id="Groupe_67" data-name="Groupe 67" transform="translate(101.309 220.885)">
        <path id="Tracé_73" data-name="Tracé 73" d="M7.127-17.579v2.889H5.6v-2.2a8.238,8.238,0,0,0-.029-.857.911.911,0,0,0-.1-.344.618.618,0,0,0-.242-.227.711.711,0,0,0-.344-.082.876.876,0,0,0-.745.368,1.656,1.656,0,0,0-.271,1.012v2.333H2.359v-6.592H3.874v2.541a2.421,2.421,0,0,1,.726-.61,1.844,1.844,0,0,1,.852-.2A1.538,1.538,0,0,1,6.7-19.04a2.212,2.212,0,0,1,.426,1.462Z" transform="translate(-2.359 21.281)"/>
      </g>
      <g id="Groupe_68" data-name="Groupe 68" transform="translate(107.125 222.618)">
        <path id="Tracé_74" data-name="Tracé 74" d="M6.295-13.214v.436H2.747a1.128,1.128,0,0,0,.387.8,1.431,1.431,0,0,0,.924.266,3.568,3.568,0,0,0,.978-.14,5.175,5.175,0,0,0,1.031-.431v1.166a6.39,6.39,0,0,1-1.074.3,5.577,5.577,0,0,1-1.074.106,2.862,2.862,0,0,1-2-.653A2.365,2.365,0,0,1,1.2-13.2a2.389,2.389,0,0,1,.7-1.825,2.678,2.678,0,0,1,1.926-.668,2.413,2.413,0,0,1,1.791.678,2.432,2.432,0,0,1,.673,1.8Zm-1.558-.5a.96.96,0,0,0-.252-.692.868.868,0,0,0-.658-.266,1.033,1.033,0,0,0-.716.247,1.135,1.135,0,0,0-.344.711Z" transform="translate(-1.203 15.688)"/>
      </g>
      <g id="Groupe_69" data-name="Groupe 69" transform="translate(116.453 221.156)">
        <path id="Tracé_75" data-name="Tracé 75" d="M2.578-20.406H4.4L6.7-16.07v-4.336H8.241v6.321H6.421l-2.3-4.336v4.336H2.578Z" transform="translate(-2.578 20.406)"/>
      </g>
      <g id="Groupe_70" data-name="Groupe 70" transform="translate(123.285 222.618)">
        <path id="Tracé_76" data-name="Tracé 76" d="M3.817-14.6a.894.894,0,0,0-.77.363A1.746,1.746,0,0,0,2.781-13.2a1.746,1.746,0,0,0,.266,1.045.9.9,0,0,0,.77.358.875.875,0,0,0,.755-.358A1.755,1.755,0,0,0,4.838-13.2a1.754,1.754,0,0,0-.266-1.045A.873.873,0,0,0,3.817-14.6Zm0-1.084a2.643,2.643,0,0,1,1.912.663A2.417,2.417,0,0,1,6.416-13.2a2.425,2.425,0,0,1-.687,1.829,2.651,2.651,0,0,1-1.912.658A2.672,2.672,0,0,1,1.9-11.366,2.409,2.409,0,0,1,1.2-13.2,2.4,2.4,0,0,1,1.9-15.025,2.663,2.663,0,0,1,3.817-15.688Z" transform="translate(-1.203 15.688)"/>
      </g>
      <g id="Groupe_71" data-name="Groupe 71" transform="translate(129.549 222.734)">
        <path id="Tracé_77" data-name="Tracé 77" d="M2.188-12.418v-2.894H3.712v.474c0,.259,0,.581,0,.968s0,.646,0,.774a8.15,8.15,0,0,0,.029.828.954.954,0,0,0,.1.363.667.667,0,0,0,.247.232.73.73,0,0,0,.344.077.881.881,0,0,0,.745-.363A1.661,1.661,0,0,0,5.44-12.97v-2.342H6.955v4.743H5.44v-.687a2.383,2.383,0,0,1-.726.615,1.859,1.859,0,0,1-.847.194,1.549,1.549,0,0,1-1.249-.5,2.192,2.192,0,0,1-.431-1.466Z" transform="translate(-2.188 15.313)"/>
      </g>
      <g id="Groupe_72" data-name="Groupe 72" transform="translate(135.777 222.618)">
        <path id="Tracé_78" data-name="Tracé 78" d="M7.127-13.717v2.889H5.6V-13.04a8.111,8.111,0,0,0-.029-.847.911.911,0,0,0-.1-.344.618.618,0,0,0-.242-.227.711.711,0,0,0-.344-.082.876.876,0,0,0-.745.368,1.656,1.656,0,0,0-.271,1.012v2.333H2.359v-4.743H3.874v.692a2.421,2.421,0,0,1,.726-.61,1.844,1.844,0,0,1,.852-.2,1.538,1.538,0,0,1,1.249.508,2.212,2.212,0,0,1,.426,1.462Z" transform="translate(-2.359 15.687)"/>
      </g>
      <g id="Groupe_73" data-name="Groupe 73" transform="translate(145.038 221.156)">
        <path id="Tracé_79" data-name="Tracé 79" d="M2.578-20.406H5.284a2.814,2.814,0,0,1,1.849.537,1.863,1.863,0,0,1,.649,1.525,1.875,1.875,0,0,1-.649,1.529,2.814,2.814,0,0,1-1.849.537H4.2v2.192H2.578ZM4.2-19.225v1.767h.905a1.054,1.054,0,0,0,.731-.232.829.829,0,0,0,.261-.653A.822.822,0,0,0,5.84-19a1.07,1.07,0,0,0-.731-.227Z" transform="translate(-2.578 20.406)"/>
      </g>
      <g id="Groupe_74" data-name="Groupe 74" transform="translate(151.327 222.618)">
        <path id="Tracé_80" data-name="Tracé 80" d="M5.882-14.279a2.1,2.1,0,0,0-.4-.136,1.656,1.656,0,0,0-.392-.048,1.1,1.1,0,0,0-.9.378,1.612,1.612,0,0,0-.315,1.07v2.188H2.359v-4.743H3.874v.779a1.926,1.926,0,0,1,.668-.678,1.805,1.805,0,0,1,.91-.218,1.613,1.613,0,0,1,.165.01c.06,0,.148.012.261.024Z" transform="translate(-2.359 15.687)"/>
      </g>
      <g id="Groupe_75" data-name="Groupe 75" transform="translate(155.245 222.618)">
        <path id="Tracé_81" data-name="Tracé 81" d="M3.817-14.6a.894.894,0,0,0-.77.363A1.746,1.746,0,0,0,2.781-13.2a1.746,1.746,0,0,0,.266,1.045.9.9,0,0,0,.77.358.875.875,0,0,0,.755-.358A1.755,1.755,0,0,0,4.838-13.2a1.754,1.754,0,0,0-.266-1.045A.873.873,0,0,0,3.817-14.6Zm0-1.084a2.643,2.643,0,0,1,1.912.663A2.417,2.417,0,0,1,6.416-13.2a2.425,2.425,0,0,1-.687,1.829,2.651,2.651,0,0,1-1.912.658A2.672,2.672,0,0,1,1.9-11.366,2.409,2.409,0,0,1,1.2-13.2,2.4,2.4,0,0,1,1.9-15.025,2.663,2.663,0,0,1,3.817-15.688Z" transform="translate(-1.203 15.688)"/>
      </g>
      <g id="Groupe_76" data-name="Groupe 76" transform="translate(160.541 220.885)">
        <path id="Tracé_82" data-name="Tracé 82" d="M.084-19.432H1.6v4.656a2.091,2.091,0,0,1-.46,1.457,1.7,1.7,0,0,1-1.326.5h-.75v-1h.266a.74.74,0,0,0,.59-.194,1.266,1.266,0,0,0,.165-.77Zm0-1.849H1.6v1.239H.084Z" transform="translate(0.937 21.281)"/>
      </g>
      <g id="Groupe_77" data-name="Groupe 77" transform="translate(164.177 222.618)">
        <path id="Tracé_83" data-name="Tracé 83" d="M6.295-13.214v.436H2.747a1.128,1.128,0,0,0,.387.8,1.431,1.431,0,0,0,.924.266,3.568,3.568,0,0,0,.978-.14,5.175,5.175,0,0,0,1.031-.431v1.166a6.39,6.39,0,0,1-1.074.3,5.577,5.577,0,0,1-1.074.106,2.862,2.862,0,0,1-2-.653A2.365,2.365,0,0,1,1.2-13.2a2.389,2.389,0,0,1,.7-1.825,2.678,2.678,0,0,1,1.926-.668,2.413,2.413,0,0,1,1.791.678,2.432,2.432,0,0,1,.673,1.8Zm-1.558-.5a.96.96,0,0,0-.252-.692.868.868,0,0,0-.658-.266,1.033,1.033,0,0,0-.716.247,1.135,1.135,0,0,0-.344.711Z" transform="translate(-1.203 15.688)"/>
      </g>
      <g id="Groupe_78" data-name="Groupe 78" transform="translate(170.059 222.618)">
        <path id="Tracé_84" data-name="Tracé 84" d="M5.39-15.421v1.234A2.358,2.358,0,0,0,4.77-14.5a2.053,2.053,0,0,0-.644-.1,1.311,1.311,0,0,0-.992.373,1.433,1.433,0,0,0-.353,1.036,1.441,1.441,0,0,0,.353,1.036,1.317,1.317,0,0,0,.992.368,2.209,2.209,0,0,0,.673-.1,1.986,1.986,0,0,0,.59-.315v1.239a4.1,4.1,0,0,1-.721.194,4.039,4.039,0,0,1-.736.068,2.878,2.878,0,0,1-2.009-.658A2.347,2.347,0,0,1,1.2-13.195a2.356,2.356,0,0,1,.721-1.834,2.884,2.884,0,0,1,2.009-.658,4.039,4.039,0,0,1,.736.068,4.05,4.05,0,0,1,.721.2Z" transform="translate(-1.203 15.687)"/>
      </g>
      <g id="Groupe_79" data-name="Groupe 79" transform="translate(174.943 221.389)">
        <path id="Tracé_85" data-name="Tracé 85" d="M2.645-19.656v1.345H4.208v1.084H2.645v2.013a.585.585,0,0,0,.131.445.815.815,0,0,0,.518.116h.779v1.084h-1.3A1.78,1.78,0,0,1,1.5-13.94a1.77,1.77,0,0,1-.373-1.273v-2.013H.375v-1.084h.75v-1.345Z" transform="translate(-0.375 19.656)"/>
      </g>
    </g>
  </g>
</svg>
