<svg xmlns="http://www.w3.org/2000/svg" xmlns:xlink="http://www.w3.org/1999/xlink" width="209.666" height="212.008" viewBox="0 0 209.666 212.008">
  <defs>
    <clipPath id="clip-path">
      <rect x="11" y="-6" width="209.666" height="212.008" fill="none"/>
    </clipPath>
  </defs>
  <g id="Groupe_défilant_7" data-name="Groupe défilant 7" transform="translate(-11 6)" clip-path="url(#clip-path)" style="isolation: isolate">
    <g id="noun-happy-1013403" transform="translate(-70.031 -39.654)">
      <path id="Tracé_131" data-name="Tracé 131" d="M289.66,188.785l-31.311-32.692c.461-1.381.691-2.533,1.151-3.914l43.513-12.663L259.5,127.085a19.384,19.384,0,0,0-1.151-3.914L289.66,90.479l-43.973,11.051-2.762-2.762,10.821-43.973-32.462,31.08c-1.381-.461-2.533-.691-3.914-1.151L204.706,41.439,192.043,84.952A19.388,19.388,0,0,0,188.13,86.1L155.667,54.561l10.821,43.973-2.762,2.762L119.752,90.477l31.311,32.692c-.461,1.381-.691,2.533-1.151,3.914L106.4,139.745l43.513,12.663a19.389,19.389,0,0,0,1.151,3.914l-31.541,32.463L163.5,177.964l2.762,2.762L155.667,224.7l32.462-31.311c1.381.461,2.533.691,3.914,1.151l12.663,43.513,12.663-43.513a19.388,19.388,0,0,0,3.914-1.151L253.745,224.7l-10.821-43.973,2.762-2.762Zm-84.954,4.836a53.873,53.873,0,1,1,53.873-53.873A53.943,53.943,0,0,1,204.706,193.621Z" transform="translate(-21.121)" fill="#fff"/>
      <path id="Tracé_132" data-name="Tracé 132" d="M288.237,231.291c0,7.119-4.227,12.892-9.44,12.892s-9.44-5.773-9.44-12.892,4.227-12.894,9.44-12.894,9.44,5.773,9.44,12.894" transform="translate(-117.085 -104.207)" fill="#fff"/>
      <path id="Tracé_133" data-name="Tracé 133" d="M394.64,231.291c0,7.119-4.225,12.892-9.44,12.892s-9.438-5.773-9.438-12.892S379.987,218.4,385.2,218.4s9.44,5.773,9.44,12.894" transform="translate(-179.744 -104.207)" fill="#fff"/>
      <path id="Tracé_134" data-name="Tracé 134" d="M296.386,323.7a29.77,29.77,0,0,1-29.7-29.7h-4.6a34.3,34.3,0,1,0,68.609,0h-4.6A29.773,29.773,0,0,1,296.386,323.7Z" transform="translate(-112.801 -148.729)" fill="#fff"/>
      <g id="Groupe_121" data-name="Groupe 121" transform="translate(70.885 280.621)">
        <path id="Tracé_135" data-name="Tracé 135" d="M8.534-12.7a5.47,5.47,0,0,1-1.246.463,5.6,5.6,0,0,1-1.349.161,4.608,4.608,0,0,1-3.321-1.169,4.193,4.193,0,0,1-1.227-3.18,4.183,4.183,0,0,1,1.227-3.18,4.6,4.6,0,0,1,3.321-1.176,5.6,5.6,0,0,1,1.349.161,5.469,5.469,0,0,1,1.246.463v1.734a4.937,4.937,0,0,0-1.188-.6,3.919,3.919,0,0,0-1.233-.193,2.306,2.306,0,0,0-1.818.745,2.952,2.952,0,0,0-.662,2.043,2.963,2.963,0,0,0,.662,2.043,2.313,2.313,0,0,0,1.818.739,4.01,4.01,0,0,0,1.233-.186,4.8,4.8,0,0,0,1.188-.6Z" transform="translate(-1.391 20.781)" fill="#fff"/>
      </g>
      <g id="Groupe_122" data-name="Groupe 122" transform="translate(79.732 282.715)">
        <path id="Tracé_136" data-name="Tracé 136" d="M7.036-13.818A2.781,2.781,0,0,0,6.5-14a2.2,2.2,0,0,0-.52-.064,1.466,1.466,0,0,0-1.195.5,2.139,2.139,0,0,0-.418,1.42v2.9H2.359v-6.3H4.37V-14.5a2.556,2.556,0,0,1,.886-.9,2.4,2.4,0,0,1,1.208-.289,2.14,2.14,0,0,1,.218.013c.08,0,.2.016.347.032Z" transform="translate(-2.359 15.687)" fill="#fff"/>
      </g>
      <g id="Groupe_123" data-name="Groupe 123" transform="translate(84.934 282.715)">
        <path id="Tracé_137" data-name="Tracé 137" d="M7.961-12.4v.578H3.253a1.5,1.5,0,0,0,.514,1.06,1.9,1.9,0,0,0,1.227.353,4.736,4.736,0,0,0,1.3-.186,6.869,6.869,0,0,0,1.368-.572v1.548a8.481,8.481,0,0,1-1.426.4,7.4,7.4,0,0,1-1.426.141,3.8,3.8,0,0,1-2.659-.867A3.139,3.139,0,0,1,1.2-12.379,3.171,3.171,0,0,1,2.135-14.8a3.554,3.554,0,0,1,2.557-.886,3.2,3.2,0,0,1,2.377.9A3.228,3.228,0,0,1,7.961-12.4Zm-2.068-.668a1.274,1.274,0,0,0-.334-.919,1.152,1.152,0,0,0-.874-.353,1.371,1.371,0,0,0-.951.328,1.507,1.507,0,0,0-.456.944Z" transform="translate(-1.203 15.688)" fill="#fff"/>
      </g>
      <g id="Groupe_124" data-name="Groupe 124" transform="translate(92.74 282.715)">
        <path id="Tracé_138" data-name="Tracé 138" d="M4.5-12.071a1.733,1.733,0,0,0-.951.212.709.709,0,0,0-.315.63.747.747,0,0,0,.257.6,1.075,1.075,0,0,0,.707.212,1.269,1.269,0,0,0,.957-.4,1.424,1.424,0,0,0,.392-1.021v-.231Zm3.071-.758v3.591H5.546v-.931a2.6,2.6,0,0,1-.912.835A2.724,2.724,0,0,1,3.4-9.077a2.237,2.237,0,0,1-1.587-.565,1.935,1.935,0,0,1-.61-1.484,1.818,1.818,0,0,1,.758-1.619,4.329,4.329,0,0,1,2.4-.52H5.546v-.161a.744.744,0,0,0-.379-.694,2.388,2.388,0,0,0-1.176-.225,5.409,5.409,0,0,0-1.208.128,4.166,4.166,0,0,0-1.028.385v-1.535A12.241,12.241,0,0,1,3.047-15.6a10.558,10.558,0,0,1,1.31-.084,3.633,3.633,0,0,1,2.454.674,2.784,2.784,0,0,1,.758,2.184Z" transform="translate(-1.203 15.688)" fill="#fff"/>
      </g>
      <g id="Groupe_125" data-name="Groupe 125" transform="translate(100.167 281.084)">
        <path id="Tracé_139" data-name="Tracé 139" d="M3.388-19.656v1.786H5.463v1.439H3.388v2.672a.777.777,0,0,0,.173.591,1.082,1.082,0,0,0,.687.154H5.283v1.439H3.561a2.362,2.362,0,0,1-1.7-.495,2.35,2.35,0,0,1-.495-1.689v-2.672h-1V-17.87h1v-1.786Z" transform="translate(-0.375 19.656)" fill="#fff"/>
      </g>
      <g id="Groupe_126" data-name="Groupe 126" transform="translate(106.012 282.715)">
        <path id="Tracé_140" data-name="Tracé 140" d="M7.961-12.4v.578H3.253a1.5,1.5,0,0,0,.514,1.06,1.9,1.9,0,0,0,1.227.353,4.736,4.736,0,0,0,1.3-.186,6.869,6.869,0,0,0,1.368-.572v1.548a8.481,8.481,0,0,1-1.426.4,7.4,7.4,0,0,1-1.426.141,3.8,3.8,0,0,1-2.659-.867A3.139,3.139,0,0,1,1.2-12.379,3.171,3.171,0,0,1,2.135-14.8a3.554,3.554,0,0,1,2.557-.886,3.2,3.2,0,0,1,2.377.9A3.228,3.228,0,0,1,7.961-12.4Zm-2.068-.668a1.274,1.274,0,0,0-.334-.919,1.152,1.152,0,0,0-.874-.353,1.371,1.371,0,0,0-.951.328,1.507,1.507,0,0,0-.456.944Z" transform="translate(-1.203 15.688)" fill="#fff"/>
      </g>
      <g id="Groupe_127" data-name="Groupe 127" transform="translate(113.844 280.416)">
        <path id="Tracé_141" data-name="Tracé 141" d="M5.994-17.909v-3.372H8.017v8.749H5.994v-.912a2.649,2.649,0,0,1-.912.816,2.531,2.531,0,0,1-1.163.257A2.341,2.341,0,0,1,2.011-13.3a3.662,3.662,0,0,1-.745-2.377,3.675,3.675,0,0,1,.745-2.383,2.341,2.341,0,0,1,1.908-.925,2.455,2.455,0,0,1,1.156.263,2.786,2.786,0,0,1,.919.809ZM4.671-13.83a1.141,1.141,0,0,0,.983-.469,2.344,2.344,0,0,0,.34-1.375,2.318,2.318,0,0,0-.34-1.368,1.138,1.138,0,0,0-.983-.475,1.134,1.134,0,0,0-.983.475,2.307,2.307,0,0,0-.34,1.368,2.332,2.332,0,0,0,.34,1.375A1.137,1.137,0,0,0,4.671-13.83Z" transform="translate(-1.266 21.281)" fill="#fff"/>
      </g>
      <g id="Groupe_128" data-name="Groupe 128" transform="translate(126.542 280.416)">
        <path id="Tracé_142" data-name="Tracé 142" d="M5.706-13.83A1.147,1.147,0,0,0,6.7-14.3a2.344,2.344,0,0,0,.34-1.375,2.318,2.318,0,0,0-.34-1.368,1.144,1.144,0,0,0-.989-.475,1.158,1.158,0,0,0-1,.475,2.327,2.327,0,0,0-.34,1.368A2.32,2.32,0,0,0,4.71-14.3a1.154,1.154,0,0,0,1,.475ZM4.37-17.909a2.851,2.851,0,0,1,.919-.809,2.491,2.491,0,0,1,1.163-.263,2.351,2.351,0,0,1,1.914.925,3.684,3.684,0,0,1,.745,2.383A3.671,3.671,0,0,1,8.366-13.3a2.351,2.351,0,0,1-1.914.925,2.55,2.55,0,0,1-1.163-.257,2.782,2.782,0,0,1-.919-.816v.912H2.359v-8.749H4.37Z" transform="translate(-2.359 21.281)" fill="#fff"/>
      </g>
      <g id="Groupe_129" data-name="Groupe 129" transform="translate(133.953 282.87)">
        <path id="Tracé_143" data-name="Tracé 143" d="M.344-15.312H2.354l1.7,4.272,1.439-4.272H7.5L4.853-8.419a3.363,3.363,0,0,1-.931,1.465,2.186,2.186,0,0,1-1.4.424H1.352V-7.854h.63a1.3,1.3,0,0,0,.745-.167A1.05,1.05,0,0,0,3.093-8.6l.058-.173Z" transform="translate(-0.344 15.312)" fill="#fff"/>
      </g>
      <g id="Groupe_130" data-name="Groupe 130" transform="translate(146.383 280.775)">
        <path id="Tracé_144" data-name="Tracé 144" d="M2.578-20.406H4.736v3.193H7.929v-3.193h2.165v8.389H7.929v-3.559H4.736v3.559H2.578Z" transform="translate(-2.578 20.406)" fill="#fff"/>
      </g>
      <g id="Groupe_131" data-name="Groupe 131" transform="translate(155.45 282.715)">
        <path id="Tracé_145" data-name="Tracé 145" d="M4.5-12.071a1.733,1.733,0,0,0-.951.212.709.709,0,0,0-.315.63.747.747,0,0,0,.257.6,1.075,1.075,0,0,0,.707.212,1.269,1.269,0,0,0,.957-.4,1.424,1.424,0,0,0,.392-1.021v-.231Zm3.071-.758v3.591H5.546v-.931a2.6,2.6,0,0,1-.912.835A2.724,2.724,0,0,1,3.4-9.077a2.237,2.237,0,0,1-1.587-.565,1.935,1.935,0,0,1-.61-1.484,1.818,1.818,0,0,1,.758-1.619,4.329,4.329,0,0,1,2.4-.52H5.546v-.161a.744.744,0,0,0-.379-.694,2.388,2.388,0,0,0-1.176-.225,5.409,5.409,0,0,0-1.208.128,4.166,4.166,0,0,0-1.028.385v-1.535A12.241,12.241,0,0,1,3.047-15.6a10.558,10.558,0,0,1,1.31-.084,3.633,3.633,0,0,1,2.454.674,2.784,2.784,0,0,1,.758,2.184Z" transform="translate(-1.203 15.688)" fill="#fff"/>
      </g>
      <g id="Groupe_132" data-name="Groupe 132" transform="translate(163.13 282.87)">
        <path id="Tracé_146" data-name="Tracé 146" d="M.984-15.312H2.944L4-10.976l1.06-4.336H6.74L7.8-11.021l1.06-4.291h1.953l-1.657,6.3h-2.2L5.9-13.346l-1.06,4.33h-2.2Z" transform="translate(-0.984 15.312)" fill="#fff"/>
      </g>
      <g id="Groupe_133" data-name="Groupe 133" transform="translate(174.33 282.715)">
        <path id="Tracé_147" data-name="Tracé 147" d="M7.036-13.818A2.781,2.781,0,0,0,6.5-14a2.2,2.2,0,0,0-.52-.064,1.466,1.466,0,0,0-1.195.5,2.139,2.139,0,0,0-.418,1.42v2.9H2.359v-6.3H4.37V-14.5a2.556,2.556,0,0,1,.886-.9,2.4,2.4,0,0,1,1.208-.289,2.14,2.14,0,0,1,.218.013c.08,0,.2.016.347.032Z" transform="translate(-2.359 15.687)" fill="#fff"/>
      </g>
      <g id="Groupe_134" data-name="Groupe 134" transform="translate(179.53 282.715)">
        <path id="Tracé_148" data-name="Tracé 148" d="M4.5-12.071a1.733,1.733,0,0,0-.951.212.709.709,0,0,0-.315.63.747.747,0,0,0,.257.6,1.075,1.075,0,0,0,.707.212,1.269,1.269,0,0,0,.957-.4,1.424,1.424,0,0,0,.392-1.021v-.231Zm3.071-.758v3.591H5.546v-.931a2.6,2.6,0,0,1-.912.835A2.724,2.724,0,0,1,3.4-9.077a2.237,2.237,0,0,1-1.587-.565,1.935,1.935,0,0,1-.61-1.484,1.818,1.818,0,0,1,.758-1.619,4.329,4.329,0,0,1,2.4-.52H5.546v-.161a.744.744,0,0,0-.379-.694,2.388,2.388,0,0,0-1.176-.225,5.409,5.409,0,0,0-1.208.128,4.166,4.166,0,0,0-1.028.385v-1.535A12.241,12.241,0,0,1,3.047-15.6a10.558,10.558,0,0,1,1.31-.084,3.633,3.633,0,0,1,2.454.674,2.784,2.784,0,0,1,.758,2.184Z" transform="translate(-1.203 15.688)" fill="#fff"/>
      </g>
      <g id="Groupe_135" data-name="Groupe 135" transform="translate(187.299 282.715)">
        <path id="Tracé_149" data-name="Tracé 149" d="M4.5-12.071a1.733,1.733,0,0,0-.951.212.709.709,0,0,0-.315.63.747.747,0,0,0,.257.6,1.075,1.075,0,0,0,.707.212,1.269,1.269,0,0,0,.957-.4,1.424,1.424,0,0,0,.392-1.021v-.231Zm3.071-.758v3.591H5.546v-.931a2.6,2.6,0,0,1-.912.835A2.724,2.724,0,0,1,3.4-9.077a2.237,2.237,0,0,1-1.587-.565,1.935,1.935,0,0,1-.61-1.484,1.818,1.818,0,0,1,.758-1.619,4.329,4.329,0,0,1,2.4-.52H5.546v-.161a.744.744,0,0,0-.379-.694,2.388,2.388,0,0,0-1.176-.225,5.409,5.409,0,0,0-1.208.128,4.166,4.166,0,0,0-1.028.385v-1.535A12.241,12.241,0,0,1,3.047-15.6a10.558,10.558,0,0,1,1.31-.084,3.633,3.633,0,0,1,2.454.674,2.784,2.784,0,0,1,.758,2.184Z" transform="translate(-1.203 15.688)" fill="#fff"/>
      </g>
      <g id="Groupe_136" data-name="Groupe 136" transform="translate(198.637 280.775)">
        <path id="Tracé_150" data-name="Tracé 150" d="M6.23-13.546H2.851l-.54,1.529H.141L3.25-20.406H5.826l3.109,8.389H6.763ZM3.391-15.1H5.684L4.541-18.44Z" transform="translate(-0.141 20.406)" fill="#fff"/>
      </g>
      <g id="Groupe_137" data-name="Groupe 137" transform="translate(208.459 280.416)">
        <path id="Tracé_151" data-name="Tracé 151" d="M2.359-21.281H4.37v8.749H2.359Z" transform="translate(-2.359 21.281)" fill="#fff"/>
      </g>
      <g id="Groupe_138" data-name="Groupe 138" transform="translate(212.031 282.715)">
        <path id="Tracé_152" data-name="Tracé 152" d="M6.739-15.334v1.529a7.431,7.431,0,0,0-1.246-.4,5.233,5.233,0,0,0-1.137-.135A2,2,0,0,0,3.5-14.2a.467.467,0,0,0-.276.443.4.4,0,0,0,.212.366A2.008,2.008,0,0,0,4.2-13.2l.353.051A4.306,4.306,0,0,1,6.63-12.5a1.743,1.743,0,0,1,.533,1.407,1.712,1.712,0,0,1-.745,1.516,3.964,3.964,0,0,1-2.21.5,9.071,9.071,0,0,1-1.3-.1,10.384,10.384,0,0,1-1.362-.3V-11a5.619,5.619,0,0,0,1.227.443,5.9,5.9,0,0,0,1.291.141,1.909,1.909,0,0,0,.886-.161.531.531,0,0,0,.3-.488.439.439,0,0,0-.206-.4,2.137,2.137,0,0,0-.816-.206l-.353-.045a3.675,3.675,0,0,1-1.882-.623,1.707,1.707,0,0,1-.54-1.381A1.693,1.693,0,0,1,2.134-15.2a3.667,3.667,0,0,1,2.107-.488A8.078,8.078,0,0,1,5.4-15.6a12.839,12.839,0,0,1,1.336.263Z" transform="translate(-1.453 15.687)" fill="#fff"/>
      </g>
      <g id="Groupe_139" data-name="Groupe 139" transform="translate(218.781 282.715)">
        <path id="Tracé_153" data-name="Tracé 153" d="M4.5-12.071a1.733,1.733,0,0,0-.951.212.709.709,0,0,0-.315.63.747.747,0,0,0,.257.6,1.075,1.075,0,0,0,.707.212,1.269,1.269,0,0,0,.957-.4,1.424,1.424,0,0,0,.392-1.021v-.231Zm3.071-.758v3.591H5.546v-.931a2.6,2.6,0,0,1-.912.835A2.724,2.724,0,0,1,3.4-9.077a2.237,2.237,0,0,1-1.587-.565,1.935,1.935,0,0,1-.61-1.484,1.818,1.818,0,0,1,.758-1.619,4.329,4.329,0,0,1,2.4-.52H5.546v-.161a.744.744,0,0,0-.379-.694,2.388,2.388,0,0,0-1.176-.225,5.409,5.409,0,0,0-1.208.128,4.166,4.166,0,0,0-1.028.385v-1.535A12.241,12.241,0,0,1,3.047-15.6a10.558,10.558,0,0,1,1.31-.084,3.633,3.633,0,0,1,2.454.674,2.784,2.784,0,0,1,.758,2.184Z" transform="translate(-1.203 15.688)" fill="#fff"/>
      </g>
      <g id="Groupe_140" data-name="Groupe 140" transform="translate(227.024 280.416)">
        <path id="Tracé_154" data-name="Tracé 154" d="M2.359-21.281H4.37v8.749H2.359Z" transform="translate(-2.359 21.281)" fill="#fff"/>
      </g>
      <g id="Groupe_141" data-name="Groupe 141" transform="translate(230.957 282.715)">
        <path id="Tracé_155" data-name="Tracé 155" d="M8.174-14.487a2.727,2.727,0,0,1,.906-.893,2.242,2.242,0,0,1,1.156-.308,2.034,2.034,0,0,1,1.651.674,2.91,2.91,0,0,1,.572,1.94v3.835H10.435v-3.43c0-.055.006-.132.006-.231a1.79,1.79,0,0,0-.2-.964.692.692,0,0,0-.63-.3,1,1,0,0,0-.886.475,2.467,2.467,0,0,0-.321,1.362v3.09H6.382v-3.283a3.128,3.128,0,0,0-.18-1.343.687.687,0,0,0-.642-.3,1.009,1.009,0,0,0-.893.475,2.427,2.427,0,0,0-.315,1.355v3.1H2.328v-6.3H4.352v.919a2.616,2.616,0,0,1,.848-.8,2.132,2.132,0,0,1,1.06-.27,2.137,2.137,0,0,1,1.156.315,1.982,1.982,0,0,1,.758.886Z" transform="translate(-2.328 15.688)" fill="#fff"/>
      </g>
      <g id="Groupe_142" data-name="Groupe 142" transform="translate(242.489 282.715)">
        <path id="Tracé_156" data-name="Tracé 156" d="M4.5-12.071a1.733,1.733,0,0,0-.951.212.709.709,0,0,0-.315.63.747.747,0,0,0,.257.6,1.075,1.075,0,0,0,.707.212,1.269,1.269,0,0,0,.957-.4,1.424,1.424,0,0,0,.392-1.021v-.231Zm3.071-.758v3.591H5.546v-.931a2.6,2.6,0,0,1-.912.835A2.724,2.724,0,0,1,3.4-9.077a2.237,2.237,0,0,1-1.587-.565,1.935,1.935,0,0,1-.61-1.484,1.818,1.818,0,0,1,.758-1.619,4.329,4.329,0,0,1,2.4-.52H5.546v-.161a.744.744,0,0,0-.379-.694,2.388,2.388,0,0,0-1.176-.225,5.409,5.409,0,0,0-1.208.128,4.166,4.166,0,0,0-1.028.385v-1.535A12.241,12.241,0,0,1,3.047-15.6a10.558,10.558,0,0,1,1.31-.084,3.633,3.633,0,0,1,2.454.674,2.784,2.784,0,0,1,.758,2.184Z" transform="translate(-1.203 15.688)" fill="#fff"/>
      </g>
      <g id="Groupe_143" data-name="Groupe 143" transform="translate(250.732 282.715)">
        <path id="Tracé_157" data-name="Tracé 157" d="M8.687-13.073v3.835H6.663v-2.936A10.765,10.765,0,0,0,6.625-13.3a1.209,1.209,0,0,0-.128-.456.82.82,0,0,0-.321-.3.943.943,0,0,0-.456-.109,1.162,1.162,0,0,0-.989.488,2.2,2.2,0,0,0-.36,1.343v3.1H2.359v-6.3H4.37v.919a3.213,3.213,0,0,1,.964-.809,2.447,2.447,0,0,1,1.131-.263,2.041,2.041,0,0,1,1.657.674,2.936,2.936,0,0,1,.565,1.94Z" transform="translate(-2.359 15.687)" fill="#fff"/>
      </g>
      <g id="Groupe_144" data-name="Groupe 144" transform="translate(70.531 291.927)">
        <path id="Tracé_158" data-name="Tracé 158" d="M5.42-21.281v1.323H4.309a.9.9,0,0,0-.6.154.709.709,0,0,0-.167.54v.437H5.266v1.439H3.544v4.856H1.534v-4.856h-1v-1.439h1v-.437a1.906,1.906,0,0,1,.572-1.522,2.675,2.675,0,0,1,1.779-.495Z" transform="translate(-0.531 21.281)" fill="#fff"/>
      </g>
      <g id="Groupe_145" data-name="Groupe 145" transform="translate(76.292 294.227)">
        <path id="Tracé_159" data-name="Tracé 159" d="M7.036-13.818A2.781,2.781,0,0,0,6.5-14a2.2,2.2,0,0,0-.52-.064,1.466,1.466,0,0,0-1.195.5,2.139,2.139,0,0,0-.418,1.42v2.9H2.359v-6.3H4.37V-14.5a2.556,2.556,0,0,1,.886-.9,2.4,2.4,0,0,1,1.208-.289,2.14,2.14,0,0,1,.218.013c.08,0,.2.016.347.032Z" transform="translate(-2.359 15.687)" fill="#fff"/>
      </g>
      <g id="Groupe_146" data-name="Groupe 146" transform="translate(81.494 294.226)">
        <path id="Tracé_160" data-name="Tracé 160" d="M4.672-14.249a1.186,1.186,0,0,0-1.021.482A2.317,2.317,0,0,0,3.3-12.38a2.317,2.317,0,0,0,.353,1.388,1.189,1.189,0,0,0,1.021.475,1.162,1.162,0,0,0,1-.475,2.329,2.329,0,0,0,.353-1.388,2.329,2.329,0,0,0-.353-1.388A1.159,1.159,0,0,0,4.672-14.249Zm0-1.439a3.508,3.508,0,0,1,2.537.88,3.209,3.209,0,0,1,.912,2.428,3.218,3.218,0,0,1-.912,2.428,3.519,3.519,0,0,1-2.537.874,3.546,3.546,0,0,1-2.55-.874A3.2,3.2,0,0,1,1.2-12.38a3.188,3.188,0,0,1,.919-2.428A3.535,3.535,0,0,1,4.672-15.688Z" transform="translate(-1.203 15.688)" fill="#fff"/>
      </g>
      <g id="Groupe_147" data-name="Groupe 147" transform="translate(89.864 294.226)">
        <path id="Tracé_161" data-name="Tracé 161" d="M8.174-14.487a2.727,2.727,0,0,1,.906-.893,2.242,2.242,0,0,1,1.156-.308,2.034,2.034,0,0,1,1.651.674,2.91,2.91,0,0,1,.572,1.94v3.835H10.435v-3.43c0-.055.006-.132.006-.231a1.79,1.79,0,0,0-.2-.964.692.692,0,0,0-.63-.3,1,1,0,0,0-.886.475,2.467,2.467,0,0,0-.321,1.362v3.09H6.382v-3.283a3.128,3.128,0,0,0-.18-1.343.687.687,0,0,0-.642-.3,1.009,1.009,0,0,0-.893.475,2.427,2.427,0,0,0-.315,1.355v3.1H2.328v-6.3H4.352v.919a2.616,2.616,0,0,1,.848-.8,2.132,2.132,0,0,1,1.06-.27,2.137,2.137,0,0,1,1.156.315,1.982,1.982,0,0,1,.758.886Z" transform="translate(-2.328 15.688)" fill="#fff"/>
      </g>
      <g id="Groupe_148" data-name="Groupe 148" transform="translate(105.064 292.595)">
        <path id="Tracé_162" data-name="Tracé 162" d="M3.388-19.656v1.786H5.463v1.439H3.388v2.672a.777.777,0,0,0,.173.591,1.082,1.082,0,0,0,.687.154H5.283v1.439H3.561a2.362,2.362,0,0,1-1.7-.495,2.35,2.35,0,0,1-.495-1.689v-2.672h-1V-17.87h1v-1.786Z" transform="translate(-0.375 19.656)" fill="#fff"/>
      </g>
      <g id="Groupe_149" data-name="Groupe 149" transform="translate(111.382 291.927)">
        <path id="Tracé_163" data-name="Tracé 163" d="M8.687-16.367v3.835H6.663v-2.923a10.934,10.934,0,0,0-.039-1.137,1.209,1.209,0,0,0-.128-.456.82.82,0,0,0-.321-.3.943.943,0,0,0-.456-.109,1.162,1.162,0,0,0-.989.488,2.2,2.2,0,0,0-.36,1.343v3.1H2.359v-8.749H4.37v3.372a3.213,3.213,0,0,1,.964-.809,2.447,2.447,0,0,1,1.131-.263,2.041,2.041,0,0,1,1.657.674,2.936,2.936,0,0,1,.565,1.94Z" transform="translate(-2.359 21.281)" fill="#fff"/>
      </g>
      <g id="Groupe_150" data-name="Groupe 150" transform="translate(119.102 294.227)">
        <path id="Tracé_164" data-name="Tracé 164" d="M7.961-12.4v.578H3.253a1.5,1.5,0,0,0,.514,1.06,1.9,1.9,0,0,0,1.227.353,4.736,4.736,0,0,0,1.3-.186,6.869,6.869,0,0,0,1.368-.572v1.548a8.481,8.481,0,0,1-1.426.4,7.4,7.4,0,0,1-1.426.141,3.8,3.8,0,0,1-2.659-.867A3.139,3.139,0,0,1,1.2-12.379,3.171,3.171,0,0,1,2.135-14.8a3.554,3.554,0,0,1,2.557-.886,3.2,3.2,0,0,1,2.377.9A3.228,3.228,0,0,1,7.961-12.4Zm-2.068-.668a1.274,1.274,0,0,0-.334-.919,1.152,1.152,0,0,0-.874-.353,1.371,1.371,0,0,0-.951.328,1.507,1.507,0,0,0-.456.944Z" transform="translate(-1.203 15.688)" fill="#fff"/>
      </g>
      <g id="Groupe_151" data-name="Groupe 151" transform="translate(131.482 292.287)">
        <path id="Tracé_165" data-name="Tracé 165" d="M2.578-20.406H4.993L8.045-14.65v-5.756h2.049v8.389H7.679L4.627-17.772v5.756H2.578Z" transform="translate(-2.578 20.406)" fill="#fff"/>
      </g>
      <g id="Groupe_152" data-name="Groupe 152" transform="translate(140.55 294.226)">
        <path id="Tracé_166" data-name="Tracé 166" d="M4.672-14.249a1.186,1.186,0,0,0-1.021.482A2.317,2.317,0,0,0,3.3-12.38a2.317,2.317,0,0,0,.353,1.388,1.189,1.189,0,0,0,1.021.475,1.162,1.162,0,0,0,1-.475,2.329,2.329,0,0,0,.353-1.388,2.329,2.329,0,0,0-.353-1.388A1.159,1.159,0,0,0,4.672-14.249Zm0-1.439a3.508,3.508,0,0,1,2.537.88,3.209,3.209,0,0,1,.912,2.428,3.218,3.218,0,0,1-.912,2.428,3.519,3.519,0,0,1-2.537.874,3.546,3.546,0,0,1-2.55-.874A3.2,3.2,0,0,1,1.2-12.38a3.188,3.188,0,0,1,.919-2.428A3.535,3.535,0,0,1,4.672-15.688Z" transform="translate(-1.203 15.688)" fill="#fff"/>
      </g>
      <g id="Groupe_153" data-name="Groupe 153" transform="translate(148.864 294.381)">
        <path id="Tracé_167" data-name="Tracé 167" d="M2.188-11.471v-3.841H4.211v.63c0,.344,0,.771-.006,1.285s-.006.858-.006,1.028a10.817,10.817,0,0,0,.039,1.1,1.266,1.266,0,0,0,.135.482.885.885,0,0,0,.328.308.969.969,0,0,0,.456.1,1.169,1.169,0,0,0,.989-.482A2.205,2.205,0,0,0,6.5-12.2v-3.109H8.515v6.3H6.5V-9.93a3.163,3.163,0,0,1-.964.816,2.468,2.468,0,0,1-1.124.257,2.056,2.056,0,0,1-1.657-.668,2.909,2.909,0,0,1-.572-1.946Z" transform="translate(-2.188 15.313)" fill="#fff"/>
      </g>
      <g id="Groupe_154" data-name="Groupe 154" transform="translate(157.13 294.227)">
        <path id="Tracé_168" data-name="Tracé 168" d="M8.687-13.073v3.835H6.663v-2.936A10.765,10.765,0,0,0,6.625-13.3a1.209,1.209,0,0,0-.128-.456.82.82,0,0,0-.321-.3.943.943,0,0,0-.456-.109,1.162,1.162,0,0,0-.989.488,2.2,2.2,0,0,0-.36,1.343v3.1H2.359v-6.3H4.37v.919a3.213,3.213,0,0,1,.964-.809,2.447,2.447,0,0,1,1.131-.263,2.041,2.041,0,0,1,1.657.674,2.936,2.936,0,0,1,.565,1.94Z" transform="translate(-2.359 15.687)" fill="#fff"/>
      </g>
      <g id="Groupe_155" data-name="Groupe 155" transform="translate(169.422 292.287)">
        <path id="Tracé_169" data-name="Tracé 169" d="M2.578-20.406H6.169a3.735,3.735,0,0,1,2.454.713,2.473,2.473,0,0,1,.861,2.023,2.488,2.488,0,0,1-.861,2.03,3.735,3.735,0,0,1-2.454.713H4.736v2.91H2.578Zm2.158,1.567v2.345h1.2a1.4,1.4,0,0,0,.97-.308,1.1,1.1,0,0,0,.347-.867,1.091,1.091,0,0,0-.347-.867,1.42,1.42,0,0,0-.97-.3Z" transform="translate(-2.578 20.406)" fill="#fff"/>
      </g>
      <g id="Groupe_156" data-name="Groupe 156" transform="translate(177.77 294.227)">
        <path id="Tracé_170" data-name="Tracé 170" d="M7.036-13.818A2.781,2.781,0,0,0,6.5-14a2.2,2.2,0,0,0-.52-.064,1.466,1.466,0,0,0-1.195.5,2.139,2.139,0,0,0-.418,1.42v2.9H2.359v-6.3H4.37V-14.5a2.556,2.556,0,0,1,.886-.9,2.4,2.4,0,0,1,1.208-.289,2.14,2.14,0,0,1,.218.013c.08,0,.2.016.347.032Z" transform="translate(-2.359 15.687)" fill="#fff"/>
      </g>
      <g id="Groupe_157" data-name="Groupe 157" transform="translate(182.97 294.226)">
        <path id="Tracé_171" data-name="Tracé 171" d="M4.672-14.249a1.186,1.186,0,0,0-1.021.482A2.317,2.317,0,0,0,3.3-12.38a2.317,2.317,0,0,0,.353,1.388,1.189,1.189,0,0,0,1.021.475,1.162,1.162,0,0,0,1-.475,2.329,2.329,0,0,0,.353-1.388,2.329,2.329,0,0,0-.353-1.388A1.159,1.159,0,0,0,4.672-14.249Zm0-1.439a3.508,3.508,0,0,1,2.537.88,3.209,3.209,0,0,1,.912,2.428,3.218,3.218,0,0,1-.912,2.428,3.519,3.519,0,0,1-2.537.874,3.546,3.546,0,0,1-2.55-.874A3.2,3.2,0,0,1,1.2-12.38a3.188,3.188,0,0,1,.919-2.428A3.535,3.535,0,0,1,4.672-15.688Z" transform="translate(-1.203 15.688)" fill="#fff"/>
      </g>
      <g id="Groupe_158" data-name="Groupe 158" transform="translate(189.999 291.927)">
        <path id="Tracé_172" data-name="Tracé 172" d="M.418-18.827H2.429v6.18a2.776,2.776,0,0,1-.61,1.934,2.254,2.254,0,0,1-1.76.668h-1v-1.323h.353A.982.982,0,0,0,.2-11.626a1.68,1.68,0,0,0,.218-1.021Zm0-2.454H2.429v1.644H.418Z" transform="translate(0.937 21.281)" fill="#fff"/>
      </g>
      <g id="Groupe_159" data-name="Groupe 159" transform="translate(194.825 294.227)">
        <path id="Tracé_173" data-name="Tracé 173" d="M7.961-12.4v.578H3.253a1.5,1.5,0,0,0,.514,1.06,1.9,1.9,0,0,0,1.227.353,4.736,4.736,0,0,0,1.3-.186,6.869,6.869,0,0,0,1.368-.572v1.548a8.481,8.481,0,0,1-1.426.4,7.4,7.4,0,0,1-1.426.141,3.8,3.8,0,0,1-2.659-.867A3.139,3.139,0,0,1,1.2-12.379,3.171,3.171,0,0,1,2.135-14.8a3.554,3.554,0,0,1,2.557-.886,3.2,3.2,0,0,1,2.377.9A3.228,3.228,0,0,1,7.961-12.4Zm-2.068-.668a1.274,1.274,0,0,0-.334-.919,1.152,1.152,0,0,0-.874-.353,1.371,1.371,0,0,0-.951.328,1.507,1.507,0,0,0-.456.944Z" transform="translate(-1.203 15.688)" fill="#fff"/>
      </g>
      <g id="Groupe_160" data-name="Groupe 160" transform="translate(202.633 294.227)">
        <path id="Tracé_174" data-name="Tracé 174" d="M6.76-15.334V-13.7a3.129,3.129,0,0,0-.822-.418,2.725,2.725,0,0,0-.854-.135,1.74,1.74,0,0,0-1.317.495A1.9,1.9,0,0,0,3.3-12.379,1.913,1.913,0,0,0,3.766-11a1.748,1.748,0,0,0,1.317.488,2.933,2.933,0,0,0,.893-.135,2.636,2.636,0,0,0,.784-.418v1.644a5.441,5.441,0,0,1-.957.257,5.361,5.361,0,0,1-.976.09,3.82,3.82,0,0,1-2.666-.874A3.115,3.115,0,0,1,1.2-12.379a3.127,3.127,0,0,1,.957-2.435,3.828,3.828,0,0,1,2.666-.874,5.361,5.361,0,0,1,.976.09,5.375,5.375,0,0,1,.957.263Z" transform="translate(-1.203 15.687)" fill="#fff"/>
      </g>
      <g id="Groupe_161" data-name="Groupe 161" transform="translate(209.114 292.595)">
        <path id="Tracé_175" data-name="Tracé 175" d="M3.388-19.656v1.786H5.463v1.439H3.388v2.672a.777.777,0,0,0,.173.591,1.082,1.082,0,0,0,.687.154H5.283v1.439H3.561a2.362,2.362,0,0,1-1.7-.495,2.35,2.35,0,0,1-.495-1.689v-2.672h-1V-17.87h1v-1.786Z" transform="translate(-0.375 19.656)" fill="#fff"/>
      </g>
    </g>
  </g>
</svg>
