<svg xmlns="http://www.w3.org/2000/svg" xmlns:xlink="http://www.w3.org/1999/xlink" width="150" height="150" viewBox="0 0 150 150">
  <defs>
    <clipPath id="clip-path">
      <rect x="20" y="-6" width="64.375" height="101" fill="none"/>
    </clipPath>
  </defs>
  <g id="login" transform="translate(-1107 -4611)">
    <rect id="Rectangle_7" data-name="Rectangle 7" width="150" height="150" rx="75" transform="translate(1107 4611)" fill="#fff"/>
    <g id="Groupe_défilant_9" data-name="Groupe défilant 9" transform="translate(1127 4634.5)" clip-path="url(#clip-path)" style="isolation: isolate">
      <g id="noun-user-118391" transform="translate(-70.531 -33.6)">
        <path id="Tracé_929" data-name="Tracé 929" d="M252.163,329.672h-61.2l5.711-37.282a11.326,11.326,0,0,1,11.1-9.59h27.584a11.326,11.326,0,0,1,11.1,9.59Z" transform="translate(-97.257 -201.251)" fill="#001a23"/>
        <path id="Tracé_930" data-name="Tracé 930" d="M282.134,54.827A21.227,21.227,0,1,1,260.907,33.6a21.227,21.227,0,0,1,21.227,21.227" transform="translate(-136.602)" fill="#001a23"/>
        <g id="Groupe_859" data-name="Groupe 859" transform="translate(70.697 147.05)">
          <path id="Tracé_931" data-name="Tracé 931" d="M4.734-17a2.56,2.56,0,0,1-.583.216,2.622,2.622,0,0,1-.631.075,2.157,2.157,0,0,1-1.554-.547,1.962,1.962,0,0,1-.574-1.488,1.958,1.958,0,0,1,.574-1.488,2.152,2.152,0,0,1,1.554-.55,2.622,2.622,0,0,1,.631.075,2.559,2.559,0,0,1,.583.216v.812a2.311,2.311,0,0,0-.556-.28,1.834,1.834,0,0,0-.577-.09,1.079,1.079,0,0,0-.851.349,1.382,1.382,0,0,0-.31.956,1.387,1.387,0,0,0,.31.956,1.082,1.082,0,0,0,.851.346,1.877,1.877,0,0,0,.577-.087,2.246,2.246,0,0,0,.556-.283Z" transform="translate(-1.391 20.781)" fill="#001a23"/>
        </g>
        <g id="Groupe_860" data-name="Groupe 860" transform="translate(74.837 148.031)">
          <path id="Tracé_932" data-name="Tracé 932" d="M4.548-14.813A1.3,1.3,0,0,0,4.3-14.9a1.029,1.029,0,0,0-.244-.03.686.686,0,0,0-.559.235,1,1,0,0,0-.2.664v1.359H2.359v-2.946H3.3v.484a1.2,1.2,0,0,1,.415-.421,1.122,1.122,0,0,1,.565-.135,1,1,0,0,1,.1.006c.038,0,.092.008.162.015Z" transform="translate(-2.359 15.687)" fill="#001a23"/>
        </g>
        <g id="Groupe_861" data-name="Groupe 861" transform="translate(77.272 148.031)">
          <path id="Tracé_933" data-name="Tracé 933" d="M4.366-14.151v.271h-2.2a.7.7,0,0,0,.241.5.889.889,0,0,0,.574.165,2.217,2.217,0,0,0,.607-.087,3.215,3.215,0,0,0,.64-.268v.725a3.969,3.969,0,0,1-.667.189,3.465,3.465,0,0,1-.667.066A1.778,1.778,0,0,1,1.645-13,1.469,1.469,0,0,1,1.2-14.139a1.484,1.484,0,0,1,.436-1.133,1.663,1.663,0,0,1,1.2-.415,1.5,1.5,0,0,1,1.112.421,1.511,1.511,0,0,1,.418,1.115ZM3.4-14.464a.6.6,0,0,0-.156-.43.539.539,0,0,0-.409-.165.642.642,0,0,0-.445.153.705.705,0,0,0-.213.442Z" transform="translate(-1.203 15.688)" fill="#001a23"/>
        </g>
        <g id="Groupe_862" data-name="Groupe 862" transform="translate(80.925 148.031)">
          <path id="Tracé_934" data-name="Tracé 934" d="M2.745-13.995a.811.811,0,0,0-.445.1.332.332,0,0,0-.147.295.35.35,0,0,0,.12.283.5.5,0,0,0,.331.1.594.594,0,0,0,.448-.189.666.666,0,0,0,.183-.478v-.108Zm1.437-.355v1.681H3.235V-13.1a1.217,1.217,0,0,1-.427.391,1.275,1.275,0,0,1-.577.12,1.047,1.047,0,0,1-.743-.265.906.906,0,0,1-.286-.694.851.851,0,0,1,.355-.758,2.026,2.026,0,0,1,1.121-.244h.556v-.075a.348.348,0,0,0-.177-.325,1.117,1.117,0,0,0-.55-.105,2.532,2.532,0,0,0-.565.06,1.95,1.95,0,0,0-.481.18v-.719a5.729,5.729,0,0,1,.6-.111,4.941,4.941,0,0,1,.613-.039,1.7,1.7,0,0,1,1.148.316,1.3,1.3,0,0,1,.355,1.022Z" transform="translate(-1.203 15.688)" fill="#001a23"/>
        </g>
        <g id="Groupe_863" data-name="Groupe 863" transform="translate(84.402 147.267)">
          <path id="Tracé_935" data-name="Tracé 935" d="M1.785-19.656v.836h.971v.673H1.785V-16.9a.364.364,0,0,0,.081.277.506.506,0,0,0,.322.072h.484v.673H1.866a1.106,1.106,0,0,1-.794-.231A1.1,1.1,0,0,1,.841-16.9v-1.251H.375v-.673H.841v-.836Z" transform="translate(-0.375 19.656)" fill="#001a23"/>
        </g>
        <g id="Groupe_864" data-name="Groupe 864" transform="translate(87.137 148.031)">
          <path id="Tracé_936" data-name="Tracé 936" d="M4.366-14.151v.271h-2.2a.7.7,0,0,0,.241.5.889.889,0,0,0,.574.165,2.217,2.217,0,0,0,.607-.087,3.215,3.215,0,0,0,.64-.268v.725a3.969,3.969,0,0,1-.667.189,3.465,3.465,0,0,1-.667.066A1.778,1.778,0,0,1,1.645-13,1.469,1.469,0,0,1,1.2-14.139a1.484,1.484,0,0,1,.436-1.133,1.663,1.663,0,0,1,1.2-.415,1.5,1.5,0,0,1,1.112.421,1.511,1.511,0,0,1,.418,1.115ZM3.4-14.464a.6.6,0,0,0-.156-.43.539.539,0,0,0-.409-.165.642.642,0,0,0-.445.153.705.705,0,0,0-.213.442Z" transform="translate(-1.203 15.688)" fill="#001a23"/>
        </g>
        <g id="Groupe_865" data-name="Groupe 865" transform="translate(90.803 146.954)">
          <path id="Tracé_937" data-name="Tracé 937" d="M3.479-19.7v-1.578h.947v4.095H3.479v-.427a1.24,1.24,0,0,1-.427.382,1.184,1.184,0,0,1-.544.12,1.1,1.1,0,0,1-.893-.433,1.714,1.714,0,0,1-.349-1.112,1.72,1.72,0,0,1,.349-1.115,1.1,1.1,0,0,1,.893-.433,1.149,1.149,0,0,1,.541.123,1.3,1.3,0,0,1,.43.379Zm-.619,1.909a.534.534,0,0,0,.46-.219,1.1,1.1,0,0,0,.159-.643,1.085,1.085,0,0,0-.159-.64.533.533,0,0,0-.46-.222.531.531,0,0,0-.46.222,1.08,1.08,0,0,0-.159.64,1.092,1.092,0,0,0,.159.643A.532.532,0,0,0,2.859-17.794Z" transform="translate(-1.266 21.281)" fill="#001a23"/>
        </g>
        <g id="Groupe_866" data-name="Groupe 866" transform="translate(96.745 146.954)">
          <path id="Tracé_938" data-name="Tracé 938" d="M3.926-17.794a.537.537,0,0,0,.463-.219,1.1,1.1,0,0,0,.159-.643,1.085,1.085,0,0,0-.159-.64.535.535,0,0,0-.463-.222.542.542,0,0,0-.466.222,1.089,1.089,0,0,0-.159.64,1.086,1.086,0,0,0,.159.64.54.54,0,0,0,.466.222ZM3.3-19.7a1.334,1.334,0,0,1,.43-.379,1.166,1.166,0,0,1,.544-.123,1.1,1.1,0,0,1,.9.433,1.724,1.724,0,0,1,.349,1.115,1.718,1.718,0,0,1-.349,1.112,1.1,1.1,0,0,1-.9.433,1.193,1.193,0,0,1-.544-.12,1.3,1.3,0,0,1-.43-.382v.427H2.359v-4.095H3.3Z" transform="translate(-2.359 21.281)" fill="#001a23"/>
        </g>
        <g id="Groupe_867" data-name="Groupe 867" transform="translate(100.214 148.103)">
          <path id="Tracé_939" data-name="Tracé 939" d="M.344-15.312h.941l.794,2,.673-2h.941L2.454-12.086a1.574,1.574,0,0,1-.436.685,1.023,1.023,0,0,1-.655.2H.816v-.619H1.11a.609.609,0,0,0,.349-.078.492.492,0,0,0,.171-.271l.027-.081Z" transform="translate(-0.344 15.312)" fill="#001a23"/>
        </g>
        <g id="Groupe_868" data-name="Groupe 868" transform="translate(105.803 147.05)">
          <path id="Tracé_940" data-name="Tracé 940" d="M4.734-17a2.56,2.56,0,0,1-.583.216,2.622,2.622,0,0,1-.631.075,2.157,2.157,0,0,1-1.554-.547,1.962,1.962,0,0,1-.574-1.488,1.958,1.958,0,0,1,.574-1.488,2.152,2.152,0,0,1,1.554-.55,2.622,2.622,0,0,1,.631.075,2.559,2.559,0,0,1,.583.216v.812a2.311,2.311,0,0,0-.556-.28,1.834,1.834,0,0,0-.577-.09,1.079,1.079,0,0,0-.851.349,1.382,1.382,0,0,0-.31.956,1.387,1.387,0,0,0,.31.956,1.082,1.082,0,0,0,.851.346,1.877,1.877,0,0,0,.577-.087,2.246,2.246,0,0,0,.556-.283Z" transform="translate(-1.391 20.781)" fill="#001a23"/>
        </g>
        <g id="Groupe_869" data-name="Groupe 869" transform="translate(109.943 146.954)">
          <path id="Tracé_941" data-name="Tracé 941" d="M5.321-18.981v1.795H4.374v-1.368a5.117,5.117,0,0,0-.018-.532A.566.566,0,0,0,4.3-19.3a.384.384,0,0,0-.15-.141.441.441,0,0,0-.213-.051.544.544,0,0,0-.463.228,1.029,1.029,0,0,0-.168.628v1.449H2.359v-4.095H3.3V-19.7a1.5,1.5,0,0,1,.451-.379,1.145,1.145,0,0,1,.529-.123.955.955,0,0,1,.776.316,1.374,1.374,0,0,1,.265.908Z" transform="translate(-2.359 21.281)" fill="#001a23"/>
        </g>
        <g id="Groupe_870" data-name="Groupe 870" transform="translate(113.778 148.031)">
          <path id="Tracé_942" data-name="Tracé 942" d="M4.548-14.813A1.3,1.3,0,0,0,4.3-14.9a1.029,1.029,0,0,0-.244-.03.686.686,0,0,0-.559.235,1,1,0,0,0-.2.664v1.359H2.359v-2.946H3.3v.484a1.2,1.2,0,0,1,.415-.421,1.122,1.122,0,0,1,.565-.135,1,1,0,0,1,.1.006c.038,0,.092.008.162.015Z" transform="translate(-2.359 15.687)" fill="#001a23"/>
        </g>
        <g id="Groupe_871" data-name="Groupe 871" transform="translate(116.435 146.954)">
          <path id="Tracé_943" data-name="Tracé 943" d="M2.359-20.132H3.3v2.946H2.359Zm0-1.148H3.3v.77H2.359Z" transform="translate(-2.359 21.281)" fill="#001a23"/>
        </g>
        <g id="Groupe_872" data-name="Groupe 872" transform="translate(118.108 148.031)">
          <path id="Tracé_944" data-name="Tracé 944" d="M3.927-15.522v.716A3.478,3.478,0,0,0,3.344-15a2.449,2.449,0,0,0-.532-.063.936.936,0,0,0-.4.066.219.219,0,0,0-.129.207.189.189,0,0,0,.1.171.94.94,0,0,0,.355.09L2.9-14.5a2.015,2.015,0,0,1,.974.3.816.816,0,0,1,.25.658.8.8,0,0,1-.349.71,1.855,1.855,0,0,1-1.034.235,4.245,4.245,0,0,1-.607-.045,4.86,4.86,0,0,1-.637-.138v-.716a2.63,2.63,0,0,0,.574.207,2.762,2.762,0,0,0,.6.066.893.893,0,0,0,.415-.075.249.249,0,0,0,.138-.228.205.205,0,0,0-.1-.186,1,1,0,0,0-.382-.1l-.165-.021a1.72,1.72,0,0,1-.881-.292.8.8,0,0,1-.253-.646.792.792,0,0,1,.319-.694,1.716,1.716,0,0,1,.986-.228,3.781,3.781,0,0,1,.544.042,6.01,6.01,0,0,1,.625.123Z" transform="translate(-1.453 15.687)" fill="#001a23"/>
        </g>
        <g id="Groupe_873" data-name="Groupe 873" transform="translate(123.407 147.123)">
          <path id="Tracé_945" data-name="Tracé 945" d="M2.578-20.406H4.259a1.748,1.748,0,0,1,1.148.334,1.157,1.157,0,0,1,.4.947,1.165,1.165,0,0,1-.4.95,1.748,1.748,0,0,1-1.148.334h-.67v1.362H2.578Zm1.01.734v1.1H4.15a.654.654,0,0,0,.454-.144.515.515,0,0,0,.162-.406.51.51,0,0,0-.162-.406.665.665,0,0,0-.454-.141Z" transform="translate(-2.578 20.406)" fill="#001a23"/>
        </g>
        <g id="Groupe_874" data-name="Groupe 874" transform="translate(127.313 146.954)">
          <path id="Tracé_946" data-name="Tracé 946" d="M2.359-21.281H3.3v4.095H2.359Z" transform="translate(-2.359 21.281)" fill="#001a23"/>
        </g>
        <g id="Groupe_875" data-name="Groupe 875" transform="translate(128.938 148.03)">
          <path id="Tracé_947" data-name="Tracé 947" d="M2.827-15.015a.555.555,0,0,0-.478.225,1.085,1.085,0,0,0-.165.649,1.085,1.085,0,0,0,.165.649.557.557,0,0,0,.478.222A.544.544,0,0,0,3.3-13.49a1.09,1.09,0,0,0,.165-.649,1.09,1.09,0,0,0-.165-.649A.542.542,0,0,0,2.827-15.015Zm0-.673a1.642,1.642,0,0,1,1.188.412,1.5,1.5,0,0,1,.427,1.136A1.506,1.506,0,0,1,4.014-13a1.647,1.647,0,0,1-1.188.409A1.66,1.66,0,0,1,1.633-13,1.5,1.5,0,0,1,1.2-14.14a1.492,1.492,0,0,1,.43-1.136A1.654,1.654,0,0,1,2.827-15.688Z" transform="translate(-1.203 15.688)" fill="#001a23"/>
        </g>
        <g id="Groupe_876" data-name="Groupe 876" transform="translate(132.597 148.103)">
          <path id="Tracé_948" data-name="Tracé 948" d="M.984-15.312H1.9l.493,2.029.5-2.029h.788l.5,2.008.5-2.008h.914l-.776,2.946H3.78l-.5-2.026-.5,2.026H1.76Z" transform="translate(-0.984 15.312)" fill="#001a23"/>
        </g>
        <g id="Groupe_877" data-name="Groupe 877" transform="translate(137.832 148.03)">
          <path id="Tracé_949" data-name="Tracé 949" d="M5.064-15.126a1.276,1.276,0,0,1,.424-.418,1.049,1.049,0,0,1,.541-.144.952.952,0,0,1,.773.316,1.362,1.362,0,0,1,.268.908v1.795H6.122v-1.605c0-.026,0-.062,0-.108a.838.838,0,0,0-.093-.451.324.324,0,0,0-.295-.141.469.469,0,0,0-.415.222,1.155,1.155,0,0,0-.15.637v1.446H4.225v-1.536a1.464,1.464,0,0,0-.084-.628.321.321,0,0,0-.3-.141.472.472,0,0,0-.418.222,1.136,1.136,0,0,0-.147.634v1.449H2.328v-2.946h.947v.43a1.224,1.224,0,0,1,.4-.376,1,1,0,0,1,.5-.126,1,1,0,0,1,.541.147.928.928,0,0,1,.355.415Z" transform="translate(-2.328 15.688)" fill="#001a23"/>
        </g>
        <g id="Groupe_878" data-name="Groupe 878" transform="translate(143.23 148.031)">
          <path id="Tracé_950" data-name="Tracé 950" d="M2.745-13.995a.811.811,0,0,0-.445.1.332.332,0,0,0-.147.295.35.35,0,0,0,.12.283.5.5,0,0,0,.331.1.594.594,0,0,0,.448-.189.666.666,0,0,0,.183-.478v-.108Zm1.437-.355v1.681H3.235V-13.1a1.217,1.217,0,0,1-.427.391,1.275,1.275,0,0,1-.577.12,1.047,1.047,0,0,1-.743-.265.906.906,0,0,1-.286-.694.851.851,0,0,1,.355-.758,2.026,2.026,0,0,1,1.121-.244h.556v-.075a.348.348,0,0,0-.177-.325,1.117,1.117,0,0,0-.55-.105,2.532,2.532,0,0,0-.565.06,1.95,1.95,0,0,0-.481.18v-.719a5.729,5.729,0,0,1,.6-.111,4.941,4.941,0,0,1,.613-.039,1.7,1.7,0,0,1,1.148.316,1.3,1.3,0,0,1,.355,1.022Z" transform="translate(-1.203 15.688)" fill="#001a23"/>
        </g>
        <g id="Groupe_879" data-name="Groupe 879" transform="translate(147.088 148.031)">
          <path id="Tracé_951" data-name="Tracé 951" d="M5.321-14.464v1.795H4.374v-1.374a5.038,5.038,0,0,0-.018-.526.566.566,0,0,0-.06-.213.384.384,0,0,0-.15-.141.442.442,0,0,0-.213-.051.544.544,0,0,0-.463.228,1.029,1.029,0,0,0-.168.628v1.449H2.359v-2.946H3.3v.43a1.5,1.5,0,0,1,.451-.379,1.145,1.145,0,0,1,.529-.123.955.955,0,0,1,.776.316,1.374,1.374,0,0,1,.265.908Z" transform="translate(-2.359 15.687)" fill="#001a23"/>
        </g>
        <g id="Groupe_880" data-name="Groupe 880" transform="translate(70.531 152.342)">
          <path id="Tracé_952" data-name="Tracé 952" d="M2.819-21.281v.619H2.3a.422.422,0,0,0-.28.072.332.332,0,0,0-.078.253v.2h.806v.673H1.941v2.273H1v-2.273H.531v-.673H1v-.2a.892.892,0,0,1,.268-.713,1.252,1.252,0,0,1,.833-.231Z" transform="translate(-0.531 21.281)" fill="#001a23"/>
        </g>
        <g id="Groupe_881" data-name="Groupe 881" transform="translate(73.227 153.418)">
          <path id="Tracé_953" data-name="Tracé 953" d="M4.548-14.813A1.3,1.3,0,0,0,4.3-14.9a1.029,1.029,0,0,0-.244-.03.686.686,0,0,0-.559.235,1,1,0,0,0-.2.664v1.359H2.359v-2.946H3.3v.484a1.2,1.2,0,0,1,.415-.421,1.122,1.122,0,0,1,.565-.135,1,1,0,0,1,.1.006c.038,0,.092.008.162.015Z" transform="translate(-2.359 15.687)" fill="#001a23"/>
        </g>
        <g id="Groupe_882" data-name="Groupe 882" transform="translate(75.662 153.418)">
          <path id="Tracé_954" data-name="Tracé 954" d="M2.827-15.015a.555.555,0,0,0-.478.225,1.085,1.085,0,0,0-.165.649,1.085,1.085,0,0,0,.165.649.557.557,0,0,0,.478.222A.544.544,0,0,0,3.3-13.49a1.09,1.09,0,0,0,.165-.649,1.09,1.09,0,0,0-.165-.649A.542.542,0,0,0,2.827-15.015Zm0-.673a1.642,1.642,0,0,1,1.188.412,1.5,1.5,0,0,1,.427,1.136A1.506,1.506,0,0,1,4.014-13a1.647,1.647,0,0,1-1.188.409A1.66,1.66,0,0,1,1.633-13,1.5,1.5,0,0,1,1.2-14.14a1.492,1.492,0,0,1,.43-1.136A1.654,1.654,0,0,1,2.827-15.688Z" transform="translate(-1.203 15.688)" fill="#001a23"/>
        </g>
        <g id="Groupe_883" data-name="Groupe 883" transform="translate(79.579 153.418)">
          <path id="Tracé_955" data-name="Tracé 955" d="M5.064-15.126a1.276,1.276,0,0,1,.424-.418,1.049,1.049,0,0,1,.541-.144.952.952,0,0,1,.773.316,1.362,1.362,0,0,1,.268.908v1.795H6.122v-1.605c0-.026,0-.062,0-.108a.838.838,0,0,0-.093-.451.324.324,0,0,0-.295-.141.469.469,0,0,0-.415.222,1.155,1.155,0,0,0-.15.637v1.446H4.225v-1.536a1.464,1.464,0,0,0-.084-.628.321.321,0,0,0-.3-.141.472.472,0,0,0-.418.222,1.136,1.136,0,0,0-.147.634v1.449H2.328v-2.946h.947v.43a1.224,1.224,0,0,1,.4-.376,1,1,0,0,1,.5-.126,1,1,0,0,1,.541.147.928.928,0,0,1,.355.415Z" transform="translate(-2.328 15.688)" fill="#001a23"/>
        </g>
        <g id="Groupe_884" data-name="Groupe 884" transform="translate(86.693 152.654)">
          <path id="Tracé_956" data-name="Tracé 956" d="M1.785-19.656v.836h.971v.673H1.785V-16.9a.364.364,0,0,0,.081.277.506.506,0,0,0,.322.072h.484v.673H1.866a1.106,1.106,0,0,1-.794-.231A1.1,1.1,0,0,1,.841-16.9v-1.251H.375v-.673H.841v-.836Z" transform="translate(-0.375 19.656)" fill="#001a23"/>
        </g>
        <g id="Groupe_885" data-name="Groupe 885" transform="translate(89.65 152.342)">
          <path id="Tracé_957" data-name="Tracé 957" d="M5.321-18.981v1.795H4.374v-1.368a5.117,5.117,0,0,0-.018-.532A.566.566,0,0,0,4.3-19.3a.384.384,0,0,0-.15-.141.441.441,0,0,0-.213-.051.544.544,0,0,0-.463.228,1.029,1.029,0,0,0-.168.628v1.449H2.359v-4.095H3.3V-19.7a1.5,1.5,0,0,1,.451-.379,1.145,1.145,0,0,1,.529-.123.955.955,0,0,1,.776.316,1.374,1.374,0,0,1,.265.908Z" transform="translate(-2.359 21.281)" fill="#001a23"/>
        </g>
        <g id="Groupe_886" data-name="Groupe 886" transform="translate(93.263 153.418)">
          <path id="Tracé_958" data-name="Tracé 958" d="M4.366-14.151v.271h-2.2a.7.7,0,0,0,.241.5.889.889,0,0,0,.574.165,2.217,2.217,0,0,0,.607-.087,3.215,3.215,0,0,0,.64-.268v.725a3.969,3.969,0,0,1-.667.189,3.465,3.465,0,0,1-.667.066A1.778,1.778,0,0,1,1.645-13,1.469,1.469,0,0,1,1.2-14.139a1.484,1.484,0,0,1,.436-1.133,1.663,1.663,0,0,1,1.2-.415,1.5,1.5,0,0,1,1.112.421,1.511,1.511,0,0,1,.418,1.115ZM3.4-14.464a.6.6,0,0,0-.156-.43.539.539,0,0,0-.409-.165.642.642,0,0,0-.445.153.705.705,0,0,0-.213.442Z" transform="translate(-1.203 15.688)" fill="#001a23"/>
        </g>
        <g id="Groupe_887" data-name="Groupe 887" transform="translate(99.057 152.51)">
          <path id="Tracé_959" data-name="Tracé 959" d="M2.578-20.406h1.13l1.428,2.694v-2.694H6.1v3.926H4.965L3.537-19.173v2.694H2.578Z" transform="translate(-2.578 20.406)" fill="#001a23"/>
        </g>
        <g id="Groupe_888" data-name="Groupe 888" transform="translate(103.302 153.418)">
          <path id="Tracé_960" data-name="Tracé 960" d="M2.827-15.015a.555.555,0,0,0-.478.225,1.085,1.085,0,0,0-.165.649,1.085,1.085,0,0,0,.165.649.557.557,0,0,0,.478.222A.544.544,0,0,0,3.3-13.49a1.09,1.09,0,0,0,.165-.649,1.09,1.09,0,0,0-.165-.649A.542.542,0,0,0,2.827-15.015Zm0-.673a1.642,1.642,0,0,1,1.188.412,1.5,1.5,0,0,1,.427,1.136A1.506,1.506,0,0,1,4.014-13a1.647,1.647,0,0,1-1.188.409A1.66,1.66,0,0,1,1.633-13,1.5,1.5,0,0,1,1.2-14.14a1.492,1.492,0,0,1,.43-1.136A1.654,1.654,0,0,1,2.827-15.688Z" transform="translate(-1.203 15.688)" fill="#001a23"/>
        </g>
        <g id="Groupe_889" data-name="Groupe 889" transform="translate(107.193 153.49)">
          <path id="Tracé_961" data-name="Tracé 961" d="M2.188-13.515v-1.8h.947v.295c0,.161,0,.361,0,.6s0,.4,0,.481a5.063,5.063,0,0,0,.018.514.593.593,0,0,0,.063.225.414.414,0,0,0,.153.144A.454.454,0,0,0,3.576-13a.547.547,0,0,0,.463-.225,1.032,1.032,0,0,0,.168-.628v-1.455h.941v2.946H4.208v-.427a1.48,1.48,0,0,1-.451.382,1.155,1.155,0,0,1-.526.12.962.962,0,0,1-.776-.313,1.361,1.361,0,0,1-.268-.911Z" transform="translate(-2.188 15.313)" fill="#001a23"/>
        </g>
        <g id="Groupe_890" data-name="Groupe 890" transform="translate(111.061 153.418)">
          <path id="Tracé_962" data-name="Tracé 962" d="M5.321-14.464v1.795H4.374v-1.374a5.038,5.038,0,0,0-.018-.526.566.566,0,0,0-.06-.213.384.384,0,0,0-.15-.141.442.442,0,0,0-.213-.051.544.544,0,0,0-.463.228,1.029,1.029,0,0,0-.168.628v1.449H2.359v-2.946H3.3v.43a1.5,1.5,0,0,1,.451-.379,1.145,1.145,0,0,1,.529-.123.955.955,0,0,1,.776.316,1.374,1.374,0,0,1,.265.908Z" transform="translate(-2.359 15.687)" fill="#001a23"/>
        </g>
        <g id="Groupe_891" data-name="Groupe 891" transform="translate(116.814 152.51)">
          <path id="Tracé_963" data-name="Tracé 963" d="M2.578-20.406H4.259a1.748,1.748,0,0,1,1.148.334,1.157,1.157,0,0,1,.4.947,1.165,1.165,0,0,1-.4.95,1.748,1.748,0,0,1-1.148.334h-.67v1.362H2.578Zm1.01.734v1.1H4.15a.654.654,0,0,0,.454-.144.515.515,0,0,0,.162-.406.51.51,0,0,0-.162-.406.665.665,0,0,0-.454-.141Z" transform="translate(-2.578 20.406)" fill="#001a23"/>
        </g>
        <g id="Groupe_892" data-name="Groupe 892" transform="translate(120.721 153.418)">
          <path id="Tracé_964" data-name="Tracé 964" d="M4.548-14.813A1.3,1.3,0,0,0,4.3-14.9a1.029,1.029,0,0,0-.244-.03.686.686,0,0,0-.559.235,1,1,0,0,0-.2.664v1.359H2.359v-2.946H3.3v.484a1.2,1.2,0,0,1,.415-.421,1.122,1.122,0,0,1,.565-.135,1,1,0,0,1,.1.006c.038,0,.092.008.162.015Z" transform="translate(-2.359 15.687)" fill="#001a23"/>
        </g>
        <g id="Groupe_893" data-name="Groupe 893" transform="translate(123.155 153.418)">
          <path id="Tracé_965" data-name="Tracé 965" d="M2.827-15.015a.555.555,0,0,0-.478.225,1.085,1.085,0,0,0-.165.649,1.085,1.085,0,0,0,.165.649.557.557,0,0,0,.478.222A.544.544,0,0,0,3.3-13.49a1.09,1.09,0,0,0,.165-.649,1.09,1.09,0,0,0-.165-.649A.542.542,0,0,0,2.827-15.015Zm0-.673a1.642,1.642,0,0,1,1.188.412,1.5,1.5,0,0,1,.427,1.136A1.506,1.506,0,0,1,4.014-13a1.647,1.647,0,0,1-1.188.409A1.66,1.66,0,0,1,1.633-13,1.5,1.5,0,0,1,1.2-14.14a1.492,1.492,0,0,1,.43-1.136A1.654,1.654,0,0,1,2.827-15.688Z" transform="translate(-1.203 15.688)" fill="#001a23"/>
        </g>
        <g id="Groupe_894" data-name="Groupe 894" transform="translate(126.445 152.342)">
          <path id="Tracé_966" data-name="Tracé 966" d="M-.3-20.132H.638v2.892a1.3,1.3,0,0,1-.286.9,1.055,1.055,0,0,1-.824.313H-.937v-.619h.165a.46.46,0,0,0,.367-.12.787.787,0,0,0,.1-.478Zm0-1.148H.638v.77H-.3Z" transform="translate(0.937 21.281)" fill="#001a23"/>
        </g>
        <g id="Groupe_895" data-name="Groupe 895" transform="translate(128.703 153.418)">
          <path id="Tracé_967" data-name="Tracé 967" d="M4.366-14.151v.271h-2.2a.7.7,0,0,0,.241.5.889.889,0,0,0,.574.165,2.217,2.217,0,0,0,.607-.087,3.215,3.215,0,0,0,.64-.268v.725a3.969,3.969,0,0,1-.667.189,3.465,3.465,0,0,1-.667.066A1.778,1.778,0,0,1,1.645-13,1.469,1.469,0,0,1,1.2-14.139a1.484,1.484,0,0,1,.436-1.133,1.663,1.663,0,0,1,1.2-.415,1.5,1.5,0,0,1,1.112.421,1.511,1.511,0,0,1,.418,1.115ZM3.4-14.464a.6.6,0,0,0-.156-.43.539.539,0,0,0-.409-.165.642.642,0,0,0-.445.153.705.705,0,0,0-.213.442Z" transform="translate(-1.203 15.688)" fill="#001a23"/>
        </g>
        <g id="Groupe_896" data-name="Groupe 896" transform="translate(132.358 153.418)">
          <path id="Tracé_968" data-name="Tracé 968" d="M3.8-15.522v.767a1.465,1.465,0,0,0-.385-.2,1.275,1.275,0,0,0-.4-.063.814.814,0,0,0-.616.231.89.89,0,0,0-.219.643A.9.9,0,0,0,2.4-13.5a.818.818,0,0,0,.616.228,1.372,1.372,0,0,0,.418-.063,1.234,1.234,0,0,0,.367-.2v.77a2.546,2.546,0,0,1-.448.12,2.509,2.509,0,0,1-.457.042A1.788,1.788,0,0,1,1.651-13,1.458,1.458,0,0,1,1.2-14.139a1.464,1.464,0,0,1,.448-1.139A1.792,1.792,0,0,1,2.9-15.687a2.509,2.509,0,0,1,.457.042,2.515,2.515,0,0,1,.448.123Z" transform="translate(-1.203 15.687)" fill="#001a23"/>
        </g>
        <g id="Groupe_897" data-name="Groupe 897" transform="translate(135.391 152.654)">
          <path id="Tracé_969" data-name="Tracé 969" d="M1.785-19.656v.836h.971v.673H1.785V-16.9a.364.364,0,0,0,.081.277.506.506,0,0,0,.322.072h.484v.673H1.866a1.106,1.106,0,0,1-.794-.231A1.1,1.1,0,0,1,.841-16.9v-1.251H.375v-.673H.841v-.836Z" transform="translate(-0.375 19.656)" fill="#001a23"/>
        </g>
      </g>
    </g>
  </g>
</svg>
