<svg xmlns="http://www.w3.org/2000/svg" xmlns:xlink="http://www.w3.org/1999/xlink" width="150" height="150" viewBox="0 0 150 150">
  <defs>
    <clipPath id="clip-path">
      <rect x="7" y="-9" width="137.872" height="111.081" fill="none"/>
    </clipPath>
  </defs>
  <g id="profile" transform="translate(-1681 -4428)">
    <rect id="Rectangle_8" data-name="Rectangle 8" width="150" height="150" rx="75" transform="translate(1681 4428)" fill="#fff"/>
    <g id="Groupe_défilant_8" data-name="Groupe défilant 8" transform="translate(1681 4451.167)" clip-path="url(#clip-path)" style="isolation: isolate">
      <g id="noun-profile-1262935" transform="translate(-70.531 -89.8)">
        <path id="Tracé_851" data-name="Tracé 851" d="M165.527,100.8a7.022,7.022,0,0,0-7.037,7.037v14.075a7.037,7.037,0,0,0,14.075,0V107.837A7.022,7.022,0,0,0,165.527,100.8Zm-53.484,16.889a8.427,8.427,0,0,0-8.445,8.445v56.3a8.427,8.427,0,0,0,8.445,8.445H219.01a8.427,8.427,0,0,0,8.445-8.445v-56.3a8.427,8.427,0,0,0-8.445-8.445H175.379v4.223a9.852,9.852,0,1,1-19.7,0v-4.223Zm26.742,18.3a8.445,8.445,0,1,1-8.445,8.445A8.445,8.445,0,0,1,138.785,135.987Zm32.372,0h42.224a2.815,2.815,0,1,1,0,5.629H171.157a2.815,2.815,0,1,1,0-5.629Zm0,15.483h42.224a2.815,2.815,0,0,1,0,5.629H171.157a2.815,2.815,0,1,1,0-5.629Zm-32.372,7.037c10.137,0,18.3,5.39,18.3,11.744v2.331H120.488V170.25c0-6.354,8.161-11.744,18.3-11.744Zm32.372,8.445h42.224a2.815,2.815,0,0,1,0,5.629H171.157a2.815,2.815,0,1,1,0-5.629Z" transform="translate(-19.052 -11)" fill="#001a23"/>
        <g id="Groupe_785" data-name="Groupe 785" transform="translate(70.748 232.101)">
          <path id="Tracé_852" data-name="Tracé 852" d="M5.758-15.841A3.344,3.344,0,0,1,5-15.558a3.425,3.425,0,0,1-.825.1,2.817,2.817,0,0,1-2.03-.715,2.563,2.563,0,0,1-.75-1.944,2.557,2.557,0,0,1,.75-1.944,2.811,2.811,0,0,1,2.03-.719,3.425,3.425,0,0,1,.825.1,3.343,3.343,0,0,1,.762.283v1.06a3.018,3.018,0,0,0-.727-.365,2.4,2.4,0,0,0-.754-.118,1.41,1.41,0,0,0-1.111.456,1.8,1.8,0,0,0-.4,1.249,1.812,1.812,0,0,0,.4,1.249,1.414,1.414,0,0,0,1.111.452,2.452,2.452,0,0,0,.754-.114,2.934,2.934,0,0,0,.727-.369Z" transform="translate(-1.391 20.781)" fill="#001a23"/>
        </g>
        <g id="Groupe_786" data-name="Groupe 786" transform="translate(76.156 233.381)">
          <path id="Tracé_853" data-name="Tracé 853" d="M5.218-14.545a1.7,1.7,0,0,0-.326-.11,1.344,1.344,0,0,0-.318-.039.9.9,0,0,0-.73.306,1.308,1.308,0,0,0-.255.868v1.775H2.359v-3.848H3.588v.632a1.562,1.562,0,0,1,.542-.55,1.465,1.465,0,0,1,.738-.177A1.308,1.308,0,0,1,5-15.68c.049,0,.12.01.212.02Z" transform="translate(-2.359 15.687)" fill="#001a23"/>
        </g>
        <g id="Groupe_787" data-name="Groupe 787" transform="translate(79.336 233.381)">
          <path id="Tracé_854" data-name="Tracé 854" d="M5.335-13.681v.353H2.456a.915.915,0,0,0,.314.648,1.161,1.161,0,0,0,.75.216,2.9,2.9,0,0,0,.793-.114,4.2,4.2,0,0,0,.836-.35v.946a5.185,5.185,0,0,1-.872.247,4.525,4.525,0,0,1-.872.086,2.323,2.323,0,0,1-1.626-.53A1.919,1.919,0,0,1,1.2-13.665a1.939,1.939,0,0,1,.569-1.48,2.173,2.173,0,0,1,1.563-.542,1.958,1.958,0,0,1,1.453.55,1.973,1.973,0,0,1,.546,1.457ZM4.07-14.089a.779.779,0,0,0-.2-.562.7.7,0,0,0-.534-.216.838.838,0,0,0-.581.2.921.921,0,0,0-.279.577Z" transform="translate(-1.203 15.688)" fill="#001a23"/>
        </g>
        <g id="Groupe_788" data-name="Groupe 788" transform="translate(84.108 233.381)">
          <path id="Tracé_855" data-name="Tracé 855" d="M3.218-13.477a1.06,1.06,0,0,0-.581.13.433.433,0,0,0-.192.385.457.457,0,0,0,.157.369.657.657,0,0,0,.432.13.776.776,0,0,0,.585-.247.87.87,0,0,0,.24-.624v-.141Zm1.877-.463v2.2H3.858v-.569A1.589,1.589,0,0,1,3.3-11.8a1.665,1.665,0,0,1-.754.157,1.368,1.368,0,0,1-.97-.346A1.183,1.183,0,0,1,1.2-12.9a1.111,1.111,0,0,1,.463-.99,2.647,2.647,0,0,1,1.465-.318h.727v-.1a.455.455,0,0,0-.232-.424,1.46,1.46,0,0,0-.719-.137,3.307,3.307,0,0,0-.738.079,2.547,2.547,0,0,0-.628.236v-.939a7.484,7.484,0,0,1,.789-.145,6.454,6.454,0,0,1,.8-.051,2.221,2.221,0,0,1,1.5.412,1.7,1.7,0,0,1,.463,1.335Z" transform="translate(-1.203 15.688)" fill="#001a23"/>
        </g>
        <g id="Groupe_789" data-name="Groupe 789" transform="translate(88.649 232.384)">
          <path id="Tracé_856" data-name="Tracé 856" d="M2.217-19.656v1.092H3.485v.88H2.217v1.634a.475.475,0,0,0,.106.361.662.662,0,0,0,.42.094h.632v.88H2.323a1.444,1.444,0,0,1-1.037-.3,1.437,1.437,0,0,1-.3-1.033v-1.634H.375v-.88H.984v-1.092Z" transform="translate(-0.375 19.656)" fill="#001a23"/>
        </g>
        <g id="Groupe_790" data-name="Groupe 790" transform="translate(92.222 233.381)">
          <path id="Tracé_857" data-name="Tracé 857" d="M5.335-13.681v.353H2.456a.915.915,0,0,0,.314.648,1.161,1.161,0,0,0,.75.216,2.9,2.9,0,0,0,.793-.114,4.2,4.2,0,0,0,.836-.35v.946a5.185,5.185,0,0,1-.872.247,4.525,4.525,0,0,1-.872.086,2.323,2.323,0,0,1-1.626-.53A1.919,1.919,0,0,1,1.2-13.665a1.939,1.939,0,0,1,.569-1.48,2.173,2.173,0,0,1,1.563-.542,1.958,1.958,0,0,1,1.453.55,1.973,1.973,0,0,1,.546,1.457ZM4.07-14.089a.779.779,0,0,0-.2-.562.7.7,0,0,0-.534-.216.838.838,0,0,0-.581.2.921.921,0,0,0-.279.577Z" transform="translate(-1.203 15.688)" fill="#001a23"/>
        </g>
        <g id="Groupe_791" data-name="Groupe 791" transform="translate(97.01 231.975)">
          <path id="Tracé_858" data-name="Tracé 858" d="M4.156-19.219v-2.062H5.393v5.349H4.156v-.558a1.619,1.619,0,0,1-.558.5,1.547,1.547,0,0,1-.711.157A1.431,1.431,0,0,1,1.722-16.4a2.239,2.239,0,0,1-.456-1.453,2.246,2.246,0,0,1,.456-1.457,1.431,1.431,0,0,1,1.166-.566,1.5,1.5,0,0,1,.707.161,1.7,1.7,0,0,1,.562.495Zm-.809,2.494a.7.7,0,0,0,.6-.287,1.433,1.433,0,0,0,.208-.84,1.417,1.417,0,0,0-.208-.836.7.7,0,0,0-.6-.291.694.694,0,0,0-.6.291,1.41,1.41,0,0,0-.208.836,1.426,1.426,0,0,0,.208.84A.7.7,0,0,0,3.347-16.726Z" transform="translate(-1.266 21.281)" fill="#001a23"/>
        </g>
        <g id="Groupe_792" data-name="Groupe 792" transform="translate(104.773 231.975)">
          <path id="Tracé_859" data-name="Tracé 859" d="M4.405-16.726a.7.7,0,0,0,.6-.287,1.433,1.433,0,0,0,.208-.84,1.417,1.417,0,0,0-.208-.836.7.7,0,0,0-.6-.291.708.708,0,0,0-.609.291,1.422,1.422,0,0,0-.208.836,1.418,1.418,0,0,0,.208.836.705.705,0,0,0,.609.291Zm-.817-2.494a1.743,1.743,0,0,1,.562-.495,1.523,1.523,0,0,1,.711-.161,1.437,1.437,0,0,1,1.17.565,2.252,2.252,0,0,1,.456,1.457A2.244,2.244,0,0,1,6.031-16.4a1.437,1.437,0,0,1-1.17.565,1.559,1.559,0,0,1-.711-.157,1.7,1.7,0,0,1-.562-.5v.558H2.359v-5.349H3.589Z" transform="translate(-2.359 21.281)" fill="#001a23"/>
        </g>
        <g id="Groupe_793" data-name="Groupe 793" transform="translate(109.303 233.475)">
          <path id="Tracé_860" data-name="Tracé 860" d="M.344-15.312H1.573L2.61-12.7l.88-2.612H4.718L3.1-11.1a2.056,2.056,0,0,1-.569.9,1.336,1.336,0,0,1-.856.259H.96v-.809h.385a.8.8,0,0,0,.456-.1.642.642,0,0,0,.224-.353l.035-.106Z" transform="translate(-0.344 15.312)" fill="#001a23"/>
        </g>
        <g id="Groupe_794" data-name="Groupe 794" transform="translate(116.902 232.195)">
          <path id="Tracé_861" data-name="Tracé 861" d="M4.455-18.132a.925.925,0,0,0,.6-.153.645.645,0,0,0,.181-.511.617.617,0,0,0-.181-.5.925.925,0,0,0-.6-.153H3.9v1.316Zm-.558.915v1.94H2.578v-5.129H4.6a2.556,2.556,0,0,1,1.484.342,1.228,1.228,0,0,1,.475,1.072,1.344,1.344,0,0,1-.247.836,1.4,1.4,0,0,1-.738.479.972.972,0,0,1,.483.283,2.58,2.58,0,0,1,.436.66l.719,1.457H5.8l-.624-1.276a1.375,1.375,0,0,0-.385-.522.852.852,0,0,0-.514-.141Z" transform="translate(-2.578 20.406)" fill="#001a23"/>
        </g>
        <g id="Groupe_795" data-name="Groupe 795" transform="translate(121.975 233.381)">
          <path id="Tracé_862" data-name="Tracé 862" d="M3.324-14.808a.725.725,0,0,0-.624.295,1.417,1.417,0,0,0-.216.848,1.417,1.417,0,0,0,.216.848.727.727,0,0,0,.624.291.71.71,0,0,0,.613-.291,1.424,1.424,0,0,0,.216-.848,1.424,1.424,0,0,0-.216-.848A.708.708,0,0,0,3.324-14.808Zm0-.88a2.145,2.145,0,0,1,1.551.538,1.961,1.961,0,0,1,.558,1.484,1.967,1.967,0,0,1-.558,1.484,2.151,2.151,0,0,1-1.551.534,2.168,2.168,0,0,1-1.559-.534A1.955,1.955,0,0,1,1.2-13.666a1.949,1.949,0,0,1,.562-1.484A2.161,2.161,0,0,1,3.324-15.688Z" transform="translate(-1.203 15.688)" fill="#001a23"/>
        </g>
        <g id="Groupe_796" data-name="Groupe 796" transform="translate(126.81 233.381)">
          <path id="Tracé_863" data-name="Tracé 863" d="M4.6-15.471v1a1.913,1.913,0,0,0-.5-.255,1.666,1.666,0,0,0-.522-.082,1.064,1.064,0,0,0-.805.3,1.163,1.163,0,0,0-.287.84,1.17,1.17,0,0,0,.287.84,1.069,1.069,0,0,0,.805.3,1.793,1.793,0,0,0,.546-.082,1.612,1.612,0,0,0,.479-.255v1.005a3.326,3.326,0,0,1-.585.157,3.277,3.277,0,0,1-.6.055,2.335,2.335,0,0,1-1.63-.534A1.9,1.9,0,0,1,1.2-13.665a1.912,1.912,0,0,1,.585-1.488,2.34,2.34,0,0,1,1.63-.534,3.277,3.277,0,0,1,.6.055,3.286,3.286,0,0,1,.585.161Z" transform="translate(-1.203 15.687)" fill="#001a23"/>
        </g>
        <g id="Groupe_797" data-name="Groupe 797" transform="translate(131.271 231.975)">
          <path id="Tracé_864" data-name="Tracé 864" d="M2.359-21.281H3.588v2.914L5-19.781H6.432L4.555-18.014l2.026,2.081H5.089l-1.5-1.606v1.606H2.359Z" transform="translate(-2.359 21.281)" fill="#001a23"/>
        </g>
        <g id="Groupe_798" data-name="Groupe 798" transform="translate(135.952 231.975)">
          <path id="Tracé_865" data-name="Tracé 865" d="M2.359-19.781H3.589v3.848H2.359Zm0-1.5H3.589v1.005H2.359Z" transform="translate(-2.359 21.281)" fill="#001a23"/>
        </g>
        <g id="Groupe_799" data-name="Groupe 799" transform="translate(138.073 233.381)">
          <path id="Tracé_866" data-name="Tracé 866" d="M4.6-15.471v1a1.913,1.913,0,0,0-.5-.255,1.666,1.666,0,0,0-.522-.082,1.064,1.064,0,0,0-.805.3,1.163,1.163,0,0,0-.287.84,1.17,1.17,0,0,0,.287.84,1.069,1.069,0,0,0,.805.3,1.793,1.793,0,0,0,.546-.082,1.612,1.612,0,0,0,.479-.255v1.005a3.326,3.326,0,0,1-.585.157,3.277,3.277,0,0,1-.6.055,2.335,2.335,0,0,1-1.63-.534A1.9,1.9,0,0,1,1.2-13.665a1.912,1.912,0,0,1,.585-1.488,2.34,2.34,0,0,1,1.63-.534,3.277,3.277,0,0,1,.6.055,3.286,3.286,0,0,1,.585.161Z" transform="translate(-1.203 15.687)" fill="#001a23"/>
        </g>
        <g id="Groupe_800" data-name="Groupe 800" transform="translate(142.246 233.381)">
          <path id="Tracé_867" data-name="Tracé 867" d="M3.324-14.808a.725.725,0,0,0-.624.295,1.417,1.417,0,0,0-.216.848,1.417,1.417,0,0,0,.216.848.727.727,0,0,0,.624.291.71.71,0,0,0,.613-.291,1.424,1.424,0,0,0,.216-.848,1.424,1.424,0,0,0-.216-.848A.708.708,0,0,0,3.324-14.808Zm0-.88a2.145,2.145,0,0,1,1.551.538,1.961,1.961,0,0,1,.558,1.484,1.967,1.967,0,0,1-.558,1.484,2.151,2.151,0,0,1-1.551.534,2.168,2.168,0,0,1-1.559-.534A1.955,1.955,0,0,1,1.2-13.666a1.949,1.949,0,0,1,.562-1.484A2.161,2.161,0,0,1,3.324-15.688Z" transform="translate(-1.203 15.688)" fill="#001a23"/>
        </g>
        <g id="Groupe_801" data-name="Groupe 801" transform="translate(147.37 233.381)">
          <path id="Tracé_868" data-name="Tracé 868" d="M6.228-14.089v2.344H4.991v-1.795a6.581,6.581,0,0,0-.024-.687.739.739,0,0,0-.079-.279.5.5,0,0,0-.2-.185.577.577,0,0,0-.279-.067.71.71,0,0,0-.6.3,1.343,1.343,0,0,0-.22.821v1.893H2.359v-3.848H3.589v.562a1.964,1.964,0,0,1,.589-.495,1.5,1.5,0,0,1,.691-.161,1.248,1.248,0,0,1,1.013.412,1.8,1.8,0,0,1,.346,1.186Z" transform="translate(-2.359 15.687)" fill="#001a23"/>
        </g>
        <g id="Groupe_802" data-name="Groupe 802" transform="translate(70.531 239.013)">
          <path id="Tracé_869" data-name="Tracé 869" d="M3.52-21.281v.809H2.841a.551.551,0,0,0-.365.094.434.434,0,0,0-.1.33v.267H3.426v.88H2.373v2.969H1.144V-18.9H.531v-.88h.613v-.267a1.165,1.165,0,0,1,.35-.931,1.636,1.636,0,0,1,1.088-.3Z" transform="translate(-0.531 21.281)" fill="#001a23"/>
        </g>
        <g id="Groupe_803" data-name="Groupe 803" transform="translate(74.053 240.418)">
          <path id="Tracé_870" data-name="Tracé 870" d="M5.218-14.545a1.7,1.7,0,0,0-.326-.11,1.344,1.344,0,0,0-.318-.039.9.9,0,0,0-.73.306,1.308,1.308,0,0,0-.255.868v1.775H2.359v-3.848H3.588v.632a1.562,1.562,0,0,1,.542-.55,1.465,1.465,0,0,1,.738-.177A1.308,1.308,0,0,1,5-15.68c.049,0,.12.01.212.02Z" transform="translate(-2.359 15.687)" fill="#001a23"/>
        </g>
        <g id="Groupe_804" data-name="Groupe 804" transform="translate(77.233 240.418)">
          <path id="Tracé_871" data-name="Tracé 871" d="M3.324-14.808a.725.725,0,0,0-.624.295,1.417,1.417,0,0,0-.216.848,1.417,1.417,0,0,0,.216.848.727.727,0,0,0,.624.291.71.71,0,0,0,.613-.291,1.424,1.424,0,0,0,.216-.848,1.424,1.424,0,0,0-.216-.848A.708.708,0,0,0,3.324-14.808Zm0-.88a2.145,2.145,0,0,1,1.551.538,1.961,1.961,0,0,1,.558,1.484,1.967,1.967,0,0,1-.558,1.484,2.151,2.151,0,0,1-1.551.534,2.168,2.168,0,0,1-1.559-.534A1.955,1.955,0,0,1,1.2-13.666a1.949,1.949,0,0,1,.562-1.484A2.161,2.161,0,0,1,3.324-15.688Z" transform="translate(-1.203 15.688)" fill="#001a23"/>
        </g>
        <g id="Groupe_805" data-name="Groupe 805" transform="translate(82.35 240.418)">
          <path id="Tracé_872" data-name="Tracé 872" d="M5.9-14.954a1.667,1.667,0,0,1,.554-.546,1.371,1.371,0,0,1,.707-.188,1.244,1.244,0,0,1,1.009.412,1.779,1.779,0,0,1,.35,1.186v2.344H7.284v-2.1c0-.033,0-.081,0-.141a1.094,1.094,0,0,0-.122-.589.423.423,0,0,0-.385-.185.613.613,0,0,0-.542.291,1.508,1.508,0,0,0-.2.833v1.889H4.806v-2.007a1.912,1.912,0,0,0-.11-.821.42.42,0,0,0-.393-.185.617.617,0,0,0-.546.291,1.484,1.484,0,0,0-.192.829v1.893H2.328v-3.848H3.565v.562a1.6,1.6,0,0,1,.518-.491,1.3,1.3,0,0,1,.648-.165,1.306,1.306,0,0,1,.707.192,1.212,1.212,0,0,1,.463.542Z" transform="translate(-2.328 15.688)" fill="#001a23"/>
        </g>
        <g id="Groupe_806" data-name="Groupe 806" transform="translate(91.642 239.421)">
          <path id="Tracé_873" data-name="Tracé 873" d="M2.217-19.656v1.092H3.485v.88H2.217v1.634a.475.475,0,0,0,.106.361.662.662,0,0,0,.42.094h.632v.88H2.323a1.444,1.444,0,0,1-1.037-.3,1.437,1.437,0,0,1-.3-1.033v-1.634H.375v-.88H.984v-1.092Z" transform="translate(-0.375 19.656)" fill="#001a23"/>
        </g>
        <g id="Groupe_807" data-name="Groupe 807" transform="translate(95.505 239.012)">
          <path id="Tracé_874" data-name="Tracé 874" d="M6.228-18.277v2.344H4.991v-1.787a6.684,6.684,0,0,0-.024-.7.739.739,0,0,0-.079-.279.5.5,0,0,0-.2-.185.577.577,0,0,0-.279-.067.71.71,0,0,0-.6.3,1.343,1.343,0,0,0-.22.821v1.893H2.359v-5.349H3.589v2.062a1.964,1.964,0,0,1,.589-.495,1.5,1.5,0,0,1,.691-.161,1.248,1.248,0,0,1,1.013.412,1.8,1.8,0,0,1,.346,1.186Z" transform="translate(-2.359 21.281)" fill="#001a23"/>
        </g>
        <g id="Groupe_808" data-name="Groupe 808" transform="translate(100.224 240.418)">
          <path id="Tracé_875" data-name="Tracé 875" d="M5.335-13.681v.353H2.456a.915.915,0,0,0,.314.648,1.161,1.161,0,0,0,.75.216,2.9,2.9,0,0,0,.793-.114,4.2,4.2,0,0,0,.836-.35v.946a5.185,5.185,0,0,1-.872.247,4.525,4.525,0,0,1-.872.086,2.323,2.323,0,0,1-1.626-.53A1.919,1.919,0,0,1,1.2-13.665a1.939,1.939,0,0,1,.569-1.48,2.173,2.173,0,0,1,1.563-.542,1.958,1.958,0,0,1,1.453.55,1.973,1.973,0,0,1,.546,1.457ZM4.07-14.089a.779.779,0,0,0-.2-.562.7.7,0,0,0-.534-.216.838.838,0,0,0-.581.2.921.921,0,0,0-.279.577Z" transform="translate(-1.203 15.688)" fill="#001a23"/>
        </g>
        <g id="Groupe_809" data-name="Groupe 809" transform="translate(107.792 239.232)">
          <path id="Tracé_876" data-name="Tracé 876" d="M2.578-20.406H4.055L5.92-16.887v-3.519H7.173v5.129H5.7L3.831-18.8v3.519H2.578Z" transform="translate(-2.578 20.406)" fill="#001a23"/>
        </g>
        <g id="Groupe_810" data-name="Groupe 810" transform="translate(113.336 240.418)">
          <path id="Tracé_877" data-name="Tracé 877" d="M3.324-14.808a.725.725,0,0,0-.624.295,1.417,1.417,0,0,0-.216.848,1.417,1.417,0,0,0,.216.848.727.727,0,0,0,.624.291.71.71,0,0,0,.613-.291,1.424,1.424,0,0,0,.216-.848,1.424,1.424,0,0,0-.216-.848A.708.708,0,0,0,3.324-14.808Zm0-.88a2.145,2.145,0,0,1,1.551.538,1.961,1.961,0,0,1,.558,1.484,1.967,1.967,0,0,1-.558,1.484,2.151,2.151,0,0,1-1.551.534,2.168,2.168,0,0,1-1.559-.534A1.955,1.955,0,0,1,1.2-13.666a1.949,1.949,0,0,1,.562-1.484A2.161,2.161,0,0,1,3.324-15.688Z" transform="translate(-1.203 15.688)" fill="#001a23"/>
        </g>
        <g id="Groupe_811" data-name="Groupe 811" transform="translate(118.419 240.513)">
          <path id="Tracé_878" data-name="Tracé 878" d="M2.188-12.964v-2.348H3.425v.385c0,.21,0,.471,0,.785s0,.524,0,.628a6.613,6.613,0,0,0,.024.672.774.774,0,0,0,.082.295.541.541,0,0,0,.2.188A.592.592,0,0,0,4-12.3a.715.715,0,0,0,.6-.295,1.348,1.348,0,0,0,.22-.821v-1.9H6.056v3.848H4.826v-.558a1.934,1.934,0,0,1-.589.5,1.509,1.509,0,0,1-.687.157,1.257,1.257,0,0,1-1.013-.408,1.778,1.778,0,0,1-.35-1.19Z" transform="translate(-2.188 15.313)" fill="#001a23"/>
        </g>
        <g id="Groupe_812" data-name="Groupe 812" transform="translate(123.472 240.418)">
          <path id="Tracé_879" data-name="Tracé 879" d="M6.228-14.089v2.344H4.991v-1.795a6.581,6.581,0,0,0-.024-.687.739.739,0,0,0-.079-.279.5.5,0,0,0-.2-.185.577.577,0,0,0-.279-.067.71.71,0,0,0-.6.3,1.343,1.343,0,0,0-.22.821v1.893H2.359v-3.848H3.589v.562a1.964,1.964,0,0,1,.589-.495,1.5,1.5,0,0,1,.691-.161,1.248,1.248,0,0,1,1.013.412,1.8,1.8,0,0,1,.346,1.186Z" transform="translate(-2.359 15.687)" fill="#001a23"/>
        </g>
        <g id="Groupe_813" data-name="Groupe 813" transform="translate(130.987 239.232)">
          <path id="Tracé_880" data-name="Tracé 880" d="M2.578-20.406h2.2a2.283,2.283,0,0,1,1.5.436A1.512,1.512,0,0,1,6.8-18.733a1.521,1.521,0,0,1-.526,1.241,2.283,2.283,0,0,1-1.5.436H3.9v1.779H2.578Zm1.319.958v1.433h.734a.855.855,0,0,0,.593-.188.672.672,0,0,0,.212-.53.667.667,0,0,0-.212-.53.868.868,0,0,0-.593-.185Z" transform="translate(-2.578 20.406)" fill="#001a23"/>
        </g>
        <g id="Groupe_814" data-name="Groupe 814" transform="translate(136.09 240.418)">
          <path id="Tracé_881" data-name="Tracé 881" d="M5.218-14.545a1.7,1.7,0,0,0-.326-.11,1.344,1.344,0,0,0-.318-.039.9.9,0,0,0-.73.306,1.308,1.308,0,0,0-.255.868v1.775H2.359v-3.848H3.588v.632a1.562,1.562,0,0,1,.542-.55,1.465,1.465,0,0,1,.738-.177A1.308,1.308,0,0,1,5-15.68c.049,0,.12.01.212.02Z" transform="translate(-2.359 15.687)" fill="#001a23"/>
        </g>
        <g id="Groupe_815" data-name="Groupe 815" transform="translate(139.269 240.418)">
          <path id="Tracé_882" data-name="Tracé 882" d="M3.324-14.808a.725.725,0,0,0-.624.295,1.417,1.417,0,0,0-.216.848,1.417,1.417,0,0,0,.216.848.727.727,0,0,0,.624.291.71.71,0,0,0,.613-.291,1.424,1.424,0,0,0,.216-.848,1.424,1.424,0,0,0-.216-.848A.708.708,0,0,0,3.324-14.808Zm0-.88a2.145,2.145,0,0,1,1.551.538,1.961,1.961,0,0,1,.558,1.484,1.967,1.967,0,0,1-.558,1.484,2.151,2.151,0,0,1-1.551.534,2.168,2.168,0,0,1-1.559-.534A1.955,1.955,0,0,1,1.2-13.666a1.949,1.949,0,0,1,.562-1.484A2.161,2.161,0,0,1,3.324-15.688Z" transform="translate(-1.203 15.688)" fill="#001a23"/>
        </g>
        <g id="Groupe_816" data-name="Groupe 816" transform="translate(143.566 239.013)">
          <path id="Tracé_883" data-name="Tracé 883" d="M-.109-19.781H1.12V-16a1.7,1.7,0,0,1-.373,1.182,1.378,1.378,0,0,1-1.076.408H-.937v-.809h.216a.6.6,0,0,0,.479-.157A1.027,1.027,0,0,0-.109-16Zm0-1.5H1.12v1.005H-.109Z" transform="translate(0.937 21.281)" fill="#001a23"/>
        </g>
        <g id="Groupe_817" data-name="Groupe 817" transform="translate(146.516 240.418)">
          <path id="Tracé_884" data-name="Tracé 884" d="M5.335-13.681v.353H2.456a.915.915,0,0,0,.314.648,1.161,1.161,0,0,0,.75.216,2.9,2.9,0,0,0,.793-.114,4.2,4.2,0,0,0,.836-.35v.946a5.185,5.185,0,0,1-.872.247,4.525,4.525,0,0,1-.872.086,2.323,2.323,0,0,1-1.626-.53A1.919,1.919,0,0,1,1.2-13.665a1.939,1.939,0,0,1,.569-1.48,2.173,2.173,0,0,1,1.563-.542,1.958,1.958,0,0,1,1.453.55,1.973,1.973,0,0,1,.546,1.457ZM4.07-14.089a.779.779,0,0,0-.2-.562.7.7,0,0,0-.534-.216.838.838,0,0,0-.581.2.921.921,0,0,0-.279.577Z" transform="translate(-1.203 15.688)" fill="#001a23"/>
        </g>
        <g id="Groupe_818" data-name="Groupe 818" transform="translate(151.29 240.418)">
          <path id="Tracé_885" data-name="Tracé 885" d="M4.6-15.471v1a1.913,1.913,0,0,0-.5-.255,1.666,1.666,0,0,0-.522-.082,1.064,1.064,0,0,0-.805.3,1.163,1.163,0,0,0-.287.84,1.17,1.17,0,0,0,.287.84,1.069,1.069,0,0,0,.805.3,1.793,1.793,0,0,0,.546-.082,1.612,1.612,0,0,0,.479-.255v1.005a3.326,3.326,0,0,1-.585.157,3.277,3.277,0,0,1-.6.055,2.335,2.335,0,0,1-1.63-.534A1.9,1.9,0,0,1,1.2-13.665a1.912,1.912,0,0,1,.585-1.488,2.34,2.34,0,0,1,1.63-.534,3.277,3.277,0,0,1,.6.055,3.286,3.286,0,0,1,.585.161Z" transform="translate(-1.203 15.687)" fill="#001a23"/>
        </g>
        <g id="Groupe_819" data-name="Groupe 819" transform="translate(155.252 239.421)">
          <path id="Tracé_886" data-name="Tracé 886" d="M2.217-19.656v1.092H3.485v.88H2.217v1.634a.475.475,0,0,0,.106.361.662.662,0,0,0,.42.094h.632v.88H2.323a1.444,1.444,0,0,1-1.037-.3,1.437,1.437,0,0,1-.3-1.033v-1.634H.375v-.88H.984v-1.092Z" transform="translate(-0.375 19.656)" fill="#001a23"/>
        </g>
      </g>
    </g>
  </g>
</svg>
