<svg xmlns="http://www.w3.org/2000/svg" xmlns:xlink="http://www.w3.org/1999/xlink" width="225.881" height="221.989" viewBox="0 0 225.881 221.989">
  <defs>
    <clipPath id="clip-path">
      <rect x="3" y="-8" width="225.881" height="221.989" fill="none"/>
    </clipPath>
  </defs>
  <g id="Groupe_défilant_7" data-name="Groupe défilant 7" transform="translate(-3 8)" clip-path="url(#clip-path)" style="isolation: isolate">
    <g id="sad" transform="translate(-70.031 -39.654)">
      <path id="Tracé_86" data-name="Tracé 86" d="M292.448,191.027l-31.787-33.19c.468-1.4.7-2.571,1.169-3.973L306,141.008,261.83,128.388a19.682,19.682,0,0,0-1.169-3.973l31.787-33.19-44.642,11.219-2.8-2.8L255.987,55,223.03,86.55c-1.4-.468-2.571-.7-3.973-1.169L206.2,41.439,193.346,85.614a19.684,19.684,0,0,0-3.973,1.169L156.417,54.761,167.4,99.4l-2.8,2.8L119.955,91.222l31.787,33.19c-.468,1.4-.7,2.571-1.169,3.973L106.4,141.241,150.573,154.1a19.684,19.684,0,0,0,1.169,3.973l-32.021,32.956,44.642-10.985,2.8,2.8-10.752,44.642L189.372,195.7c1.4.468,2.571.7,3.973,1.169L206.2,241.044l12.856-44.175a19.684,19.684,0,0,0,3.973-1.169l32.956,31.787L245,182.845l2.8-2.8ZM206.2,195.936a54.693,54.693,0,1,1,54.693-54.693A54.764,54.764,0,0,1,206.2,195.936Z" transform="translate(-20.897)" fill="#fff"/>
      <path id="Tracé_87" data-name="Tracé 87" d="M288.525,231.487c0,7.227-4.291,13.088-9.583,13.088s-9.583-5.861-9.583-13.088,4.291-13.09,9.583-13.09,9.583,5.861,9.583,13.09" transform="translate(-115.841 -103.1)" fill="#fff"/>
      <path id="Tracé_88" data-name="Tracé 88" d="M394.927,231.487c0,7.227-4.289,13.088-9.583,13.088s-9.582-5.861-9.582-13.088,4.289-13.09,9.582-13.09,9.583,5.861,9.583,13.09" transform="translate(-177.835 -103.1)" fill="#fff"/>
      <path id="Tracé_89" data-name="Tracé 89" d="M307.672,303.52a27.133,27.133,0,0,0-27.113,27.113h3.505a23.373,23.373,0,1,1,46.746,0h3.505a26.444,26.444,0,0,0-26.644-27.113Z" transform="translate(-122.367 -152.695)" fill="#fff"/>
      <g id="Groupe_80" data-name="Groupe 80" transform="translate(70.89 284.259)">
        <path id="Tracé_90" data-name="Tracé 90" d="M8.643-12.577a5.553,5.553,0,0,1-1.265.47,5.688,5.688,0,0,1-1.369.163,4.678,4.678,0,0,1-3.372-1.187A4.257,4.257,0,0,1,1.391-16.36a4.247,4.247,0,0,1,1.246-3.228,4.668,4.668,0,0,1,3.372-1.193,5.687,5.687,0,0,1,1.369.163,5.552,5.552,0,0,1,1.265.47v1.761a5.012,5.012,0,0,0-1.206-.606,3.978,3.978,0,0,0-1.252-.2,2.342,2.342,0,0,0-1.846.756,3,3,0,0,0-.672,2.074,3.008,3.008,0,0,0,.672,2.074,2.348,2.348,0,0,0,1.846.75,4.071,4.071,0,0,0,1.252-.189,4.872,4.872,0,0,0,1.206-.613Z" transform="translate(-1.391 20.781)" fill="#fff"/>
      </g>
      <g id="Groupe_81" data-name="Groupe 81" transform="translate(79.872 286.385)">
        <path id="Tracé_91" data-name="Tracé 91" d="M7.107-13.79a2.823,2.823,0,0,0-.541-.183,2.231,2.231,0,0,0-.528-.065,1.488,1.488,0,0,0-1.213.509A2.172,2.172,0,0,0,4.4-12.088V-9.14H2.359v-6.391H4.4v1.05a2.6,2.6,0,0,1,.9-.913,2.433,2.433,0,0,1,1.226-.293,2.173,2.173,0,0,1,.222.013c.082,0,.2.016.352.033Z" transform="translate(-2.359 15.687)" fill="#fff"/>
      </g>
      <g id="Groupe_82" data-name="Groupe 82" transform="translate(85.153 286.385)">
        <path id="Tracé_92" data-name="Tracé 92" d="M8.064-12.355v.587H3.284a1.52,1.52,0,0,0,.522,1.076,1.928,1.928,0,0,0,1.246.359,4.808,4.808,0,0,0,1.317-.189,6.973,6.973,0,0,0,1.389-.58v1.572A8.61,8.61,0,0,1,6.31-9.12a7.515,7.515,0,0,1-1.448.143,3.857,3.857,0,0,1-2.7-.88A3.187,3.187,0,0,1,1.2-12.329a3.219,3.219,0,0,1,.946-2.459,3.608,3.608,0,0,1,2.6-.9,3.251,3.251,0,0,1,2.413.913,3.277,3.277,0,0,1,.906,2.419Zm-2.1-.678a1.293,1.293,0,0,0-.339-.933,1.169,1.169,0,0,0-.887-.359,1.392,1.392,0,0,0-.965.333,1.53,1.53,0,0,0-.463.959Z" transform="translate(-1.203 15.688)" fill="#fff"/>
      </g>
      <g id="Groupe_83" data-name="Groupe 83" transform="translate(93.078 286.385)">
        <path id="Tracé_93" data-name="Tracé 93" d="M4.549-12.016a1.76,1.76,0,0,0-.965.215.72.72,0,0,0-.32.639.758.758,0,0,0,.261.613,1.092,1.092,0,0,0,.717.215,1.288,1.288,0,0,0,.972-.411,1.445,1.445,0,0,0,.4-1.037v-.235Zm3.117-.77V-9.14H5.612v-.946a2.639,2.639,0,0,1-.926.848,2.765,2.765,0,0,1-1.252.261,2.271,2.271,0,0,1-1.611-.574,1.965,1.965,0,0,1-.62-1.506,1.845,1.845,0,0,1,.77-1.643,4.4,4.4,0,0,1,2.433-.528H5.612v-.163a.755.755,0,0,0-.385-.7,2.424,2.424,0,0,0-1.193-.228,5.491,5.491,0,0,0-1.226.13,4.23,4.23,0,0,0-1.043.391v-1.559A12.427,12.427,0,0,1,3.075-15.6a10.719,10.719,0,0,1,1.33-.085A3.688,3.688,0,0,1,6.9-15a2.826,2.826,0,0,1,.77,2.217Z" transform="translate(-1.203 15.688)" fill="#fff"/>
      </g>
      <g id="Groupe_84" data-name="Groupe 84" transform="translate(100.618 284.729)">
        <path id="Tracé_94" data-name="Tracé 94" d="M3.434-19.656v1.813H5.54v1.461H3.434v2.713a.789.789,0,0,0,.176.6,1.1,1.1,0,0,0,.7.157h1.05v1.461H3.61a2.4,2.4,0,0,1-1.722-.5,2.386,2.386,0,0,1-.5-1.715v-2.713H.375v-1.461H1.386v-1.813Z" transform="translate(-0.375 19.656)" fill="#fff"/>
      </g>
      <g id="Groupe_85" data-name="Groupe 85" transform="translate(106.551 286.385)">
        <path id="Tracé_95" data-name="Tracé 95" d="M8.064-12.355v.587H3.284a1.52,1.52,0,0,0,.522,1.076,1.928,1.928,0,0,0,1.246.359,4.808,4.808,0,0,0,1.317-.189,6.973,6.973,0,0,0,1.389-.58v1.572A8.61,8.61,0,0,1,6.31-9.12a7.515,7.515,0,0,1-1.448.143,3.857,3.857,0,0,1-2.7-.88A3.187,3.187,0,0,1,1.2-12.329a3.219,3.219,0,0,1,.946-2.459,3.608,3.608,0,0,1,2.6-.9,3.251,3.251,0,0,1,2.413.913,3.277,3.277,0,0,1,.906,2.419Zm-2.1-.678a1.293,1.293,0,0,0-.339-.933,1.169,1.169,0,0,0-.887-.359,1.392,1.392,0,0,0-.965.333,1.53,1.53,0,0,0-.463.959Z" transform="translate(-1.203 15.688)" fill="#fff"/>
      </g>
      <g id="Groupe_86" data-name="Groupe 86" transform="translate(114.503 284.051)">
        <path id="Tracé_96" data-name="Tracé 96" d="M6.066-17.857v-3.424H8.12V-12.4H6.066v-.926a2.689,2.689,0,0,1-.926.828,2.569,2.569,0,0,1-1.18.261,2.377,2.377,0,0,1-1.937-.939,3.718,3.718,0,0,1-.756-2.413,3.731,3.731,0,0,1,.756-2.419,2.377,2.377,0,0,1,1.937-.939,2.493,2.493,0,0,1,1.174.267,2.828,2.828,0,0,1,.933.822ZM4.722-13.716a1.159,1.159,0,0,0,1-.476,2.38,2.38,0,0,0,.346-1.4,2.354,2.354,0,0,0-.346-1.389,1.156,1.156,0,0,0-1-.483,1.152,1.152,0,0,0-1,.483,2.342,2.342,0,0,0-.346,1.389,2.368,2.368,0,0,0,.346,1.4,1.155,1.155,0,0,0,1,.476Z" transform="translate(-1.266 21.281)" fill="#fff"/>
      </g>
      <g id="Groupe_87" data-name="Groupe 87" transform="translate(127.394 284.051)">
        <path id="Tracé_97" data-name="Tracé 97" d="M5.757-13.716a1.164,1.164,0,0,0,1-.476,2.38,2.38,0,0,0,.346-1.4,2.354,2.354,0,0,0-.346-1.389,1.162,1.162,0,0,0-1-.483,1.175,1.175,0,0,0-1.011.483A2.362,2.362,0,0,0,4.4-15.588,2.355,2.355,0,0,0,4.746-14.2a1.171,1.171,0,0,0,1.011.483ZM4.4-17.857a2.894,2.894,0,0,1,.933-.822,2.529,2.529,0,0,1,1.18-.267,2.387,2.387,0,0,1,1.943.939,3.74,3.74,0,0,1,.756,2.419,3.727,3.727,0,0,1-.756,2.413,2.387,2.387,0,0,1-1.943.939,2.588,2.588,0,0,1-1.18-.261,2.824,2.824,0,0,1-.933-.828v.926H2.359v-8.882H4.4Z" transform="translate(-2.359 21.281)" fill="#fff"/>
      </g>
      <g id="Groupe_88" data-name="Groupe 88" transform="translate(134.918 286.542)">
        <path id="Tracé_98" data-name="Tracé 98" d="M.344-15.312H2.385l1.722,4.337,1.461-4.337H7.609l-2.687,7a3.414,3.414,0,0,1-.946,1.487,2.219,2.219,0,0,1-1.422.43H1.368V-7.74h.639a1.32,1.32,0,0,0,.756-.17A1.066,1.066,0,0,0,3.135-8.5l.059-.176Z" transform="translate(-0.344 15.312)" fill="#fff"/>
      </g>
      <g id="Groupe_89" data-name="Groupe 89" transform="translate(147.537 284.416)">
        <path id="Tracé_99" data-name="Tracé 99" d="M2.578-20.406H4.769v3.241H8.01v-3.241h2.2v8.517H8.01V-15.5H4.769v3.613H2.578Z" transform="translate(-2.578 20.406)" fill="#fff"/>
      </g>
      <g id="Groupe_90" data-name="Groupe 90" transform="translate(156.742 286.385)">
        <path id="Tracé_100" data-name="Tracé 100" d="M4.549-12.016a1.76,1.76,0,0,0-.965.215.72.72,0,0,0-.32.639.758.758,0,0,0,.261.613,1.092,1.092,0,0,0,.717.215,1.288,1.288,0,0,0,.972-.411,1.445,1.445,0,0,0,.4-1.037v-.235Zm3.117-.77V-9.14H5.612v-.946a2.639,2.639,0,0,1-.926.848,2.765,2.765,0,0,1-1.252.261,2.271,2.271,0,0,1-1.611-.574,1.965,1.965,0,0,1-.62-1.506,1.845,1.845,0,0,1,.77-1.643,4.4,4.4,0,0,1,2.433-.528H5.612v-.163a.755.755,0,0,0-.385-.7,2.424,2.424,0,0,0-1.193-.228,5.491,5.491,0,0,0-1.226.13,4.23,4.23,0,0,0-1.043.391v-1.559A12.427,12.427,0,0,1,3.075-15.6a10.719,10.719,0,0,1,1.33-.085A3.688,3.688,0,0,1,6.9-15a2.826,2.826,0,0,1,.77,2.217Z" transform="translate(-1.203 15.688)" fill="#fff"/>
      </g>
      <g id="Groupe_91" data-name="Groupe 91" transform="translate(164.538 286.542)">
        <path id="Tracé_101" data-name="Tracé 101" d="M.984-15.312H2.973l1.07,4.4,1.076-4.4H6.828L7.9-10.955,8.98-15.312h1.983L9.28-8.921H7.049l-1.076-4.4L4.9-8.921H2.667Z" transform="translate(-0.984 15.312)" fill="#fff"/>
      </g>
      <g id="Groupe_92" data-name="Groupe 92" transform="translate(175.909 286.385)">
        <path id="Tracé_102" data-name="Tracé 102" d="M7.107-13.79a2.823,2.823,0,0,0-.541-.183,2.231,2.231,0,0,0-.528-.065,1.488,1.488,0,0,0-1.213.509A2.172,2.172,0,0,0,4.4-12.088V-9.14H2.359v-6.391H4.4v1.05a2.6,2.6,0,0,1,.9-.913,2.433,2.433,0,0,1,1.226-.293,2.173,2.173,0,0,1,.222.013c.082,0,.2.016.352.033Z" transform="translate(-2.359 15.687)" fill="#fff"/>
      </g>
      <g id="Groupe_93" data-name="Groupe 93" transform="translate(181.188 286.385)">
        <path id="Tracé_103" data-name="Tracé 103" d="M4.549-12.016a1.76,1.76,0,0,0-.965.215.72.72,0,0,0-.32.639.758.758,0,0,0,.261.613,1.092,1.092,0,0,0,.717.215,1.288,1.288,0,0,0,.972-.411,1.445,1.445,0,0,0,.4-1.037v-.235Zm3.117-.77V-9.14H5.612v-.946a2.639,2.639,0,0,1-.926.848,2.765,2.765,0,0,1-1.252.261,2.271,2.271,0,0,1-1.611-.574,1.965,1.965,0,0,1-.62-1.506,1.845,1.845,0,0,1,.77-1.643,4.4,4.4,0,0,1,2.433-.528H5.612v-.163a.755.755,0,0,0-.385-.7,2.424,2.424,0,0,0-1.193-.228,5.491,5.491,0,0,0-1.226.13,4.23,4.23,0,0,0-1.043.391v-1.559A12.427,12.427,0,0,1,3.075-15.6a10.719,10.719,0,0,1,1.33-.085A3.688,3.688,0,0,1,6.9-15a2.826,2.826,0,0,1,.77,2.217Z" transform="translate(-1.203 15.688)" fill="#fff"/>
      </g>
      <g id="Groupe_94" data-name="Groupe 94" transform="translate(189.075 286.385)">
        <path id="Tracé_104" data-name="Tracé 104" d="M4.549-12.016a1.76,1.76,0,0,0-.965.215.72.72,0,0,0-.32.639.758.758,0,0,0,.261.613,1.092,1.092,0,0,0,.717.215,1.288,1.288,0,0,0,.972-.411,1.445,1.445,0,0,0,.4-1.037v-.235Zm3.117-.77V-9.14H5.612v-.946a2.639,2.639,0,0,1-.926.848,2.765,2.765,0,0,1-1.252.261,2.271,2.271,0,0,1-1.611-.574,1.965,1.965,0,0,1-.62-1.506,1.845,1.845,0,0,1,.77-1.643,4.4,4.4,0,0,1,2.433-.528H5.612v-.163a.755.755,0,0,0-.385-.7,2.424,2.424,0,0,0-1.193-.228,5.491,5.491,0,0,0-1.226.13,4.23,4.23,0,0,0-1.043.391v-1.559A12.427,12.427,0,0,1,3.075-15.6a10.719,10.719,0,0,1,1.33-.085A3.688,3.688,0,0,1,6.9-15a2.826,2.826,0,0,1,.77,2.217Z" transform="translate(-1.203 15.688)" fill="#fff"/>
      </g>
      <g id="Groupe_95" data-name="Groupe 95" transform="translate(200.586 284.416)">
        <path id="Tracé_105" data-name="Tracé 105" d="M6.323-13.441H2.893l-.548,1.552H.141L3.3-20.406H5.912l3.156,8.517h-2.2ZM3.44-15.019H5.769L4.608-18.411Z" transform="translate(-0.141 20.406)" fill="#fff"/>
      </g>
      <g id="Groupe_96" data-name="Groupe 96" transform="translate(210.557 284.051)">
        <path id="Tracé_106" data-name="Tracé 106" d="M2.359-21.281H4.4V-12.4H2.359Z" transform="translate(-2.359 21.281)" fill="#fff"/>
      </g>
      <g id="Groupe_97" data-name="Groupe 97" transform="translate(214.183 286.385)">
        <path id="Tracé_107" data-name="Tracé 107" d="M6.82-15.329v1.552a7.544,7.544,0,0,0-1.265-.411A5.313,5.313,0,0,0,4.4-14.324a2.03,2.03,0,0,0-.867.143.474.474,0,0,0-.28.45.411.411,0,0,0,.215.372,2.039,2.039,0,0,0,.77.2l.359.052a4.371,4.371,0,0,1,2.113.659,1.769,1.769,0,0,1,.541,1.428,1.738,1.738,0,0,1-.756,1.539,4.024,4.024,0,0,1-2.243.509,9.208,9.208,0,0,1-1.317-.1,10.542,10.542,0,0,1-1.383-.3v-1.552a5.7,5.7,0,0,0,1.246.45,5.991,5.991,0,0,0,1.311.143,1.938,1.938,0,0,0,.9-.163.539.539,0,0,0,.3-.5.445.445,0,0,0-.209-.4A2.17,2.17,0,0,0,4.27-11.6l-.359-.046A3.731,3.731,0,0,1,2-12.283a1.733,1.733,0,0,1-.548-1.4,1.719,1.719,0,0,1,.691-1.506,3.722,3.722,0,0,1,2.139-.5,8.2,8.2,0,0,1,1.18.091,13.034,13.034,0,0,1,1.356.267Z" transform="translate(-1.453 15.687)" fill="#fff"/>
      </g>
      <g id="Groupe_98" data-name="Groupe 98" transform="translate(221.036 286.385)">
        <path id="Tracé_108" data-name="Tracé 108" d="M4.549-12.016a1.76,1.76,0,0,0-.965.215.72.72,0,0,0-.32.639.758.758,0,0,0,.261.613,1.092,1.092,0,0,0,.717.215,1.288,1.288,0,0,0,.972-.411,1.445,1.445,0,0,0,.4-1.037v-.235Zm3.117-.77V-9.14H5.612v-.946a2.639,2.639,0,0,1-.926.848,2.765,2.765,0,0,1-1.252.261,2.271,2.271,0,0,1-1.611-.574,1.965,1.965,0,0,1-.62-1.506,1.845,1.845,0,0,1,.77-1.643,4.4,4.4,0,0,1,2.433-.528H5.612v-.163a.755.755,0,0,0-.385-.7,2.424,2.424,0,0,0-1.193-.228,5.491,5.491,0,0,0-1.226.13,4.23,4.23,0,0,0-1.043.391v-1.559A12.427,12.427,0,0,1,3.075-15.6a10.719,10.719,0,0,1,1.33-.085A3.688,3.688,0,0,1,6.9-15a2.826,2.826,0,0,1,.77,2.217Z" transform="translate(-1.203 15.688)" fill="#fff"/>
      </g>
      <g id="Groupe_99" data-name="Groupe 99" transform="translate(229.404 284.051)">
        <path id="Tracé_109" data-name="Tracé 109" d="M2.359-21.281H4.4V-12.4H2.359Z" transform="translate(-2.359 21.281)" fill="#fff"/>
      </g>
      <g id="Groupe_100" data-name="Groupe 100" transform="translate(233.397 286.385)">
        <path id="Tracé_110" data-name="Tracé 110" d="M8.263-14.468a2.769,2.769,0,0,1,.92-.906,2.276,2.276,0,0,1,1.174-.313A2.065,2.065,0,0,1,12.032-15a2.955,2.955,0,0,1,.58,1.97V-9.14H10.558v-3.482c0-.055.007-.134.007-.235a1.817,1.817,0,0,0-.2-.978.7.7,0,0,0-.639-.307,1.018,1.018,0,0,0-.9.483A2.5,2.5,0,0,0,8.5-12.277V-9.14H6.443v-3.332a3.175,3.175,0,0,0-.183-1.363.7.7,0,0,0-.652-.307,1.025,1.025,0,0,0-.906.483,2.464,2.464,0,0,0-.32,1.376V-9.14H2.328v-6.391H4.382v.933a2.655,2.655,0,0,1,.861-.815,2.165,2.165,0,0,1,1.076-.274,2.169,2.169,0,0,1,1.174.32,2.013,2.013,0,0,1,.77.9Z" transform="translate(-2.328 15.688)" fill="#fff"/>
      </g>
      <g id="Groupe_101" data-name="Groupe 101" transform="translate(245.105 286.385)">
        <path id="Tracé_111" data-name="Tracé 111" d="M4.549-12.016a1.76,1.76,0,0,0-.965.215.72.72,0,0,0-.32.639.758.758,0,0,0,.261.613,1.092,1.092,0,0,0,.717.215,1.288,1.288,0,0,0,.972-.411,1.445,1.445,0,0,0,.4-1.037v-.235Zm3.117-.77V-9.14H5.612v-.946a2.639,2.639,0,0,1-.926.848,2.765,2.765,0,0,1-1.252.261,2.271,2.271,0,0,1-1.611-.574,1.965,1.965,0,0,1-.62-1.506,1.845,1.845,0,0,1,.77-1.643,4.4,4.4,0,0,1,2.433-.528H5.612v-.163a.755.755,0,0,0-.385-.7,2.424,2.424,0,0,0-1.193-.228,5.491,5.491,0,0,0-1.226.13,4.23,4.23,0,0,0-1.043.391v-1.559A12.427,12.427,0,0,1,3.075-15.6a10.719,10.719,0,0,1,1.33-.085A3.688,3.688,0,0,1,6.9-15a2.826,2.826,0,0,1,.77,2.217Z" transform="translate(-1.203 15.688)" fill="#fff"/>
      </g>
      <g id="Groupe_102" data-name="Groupe 102" transform="translate(253.473 286.385)">
        <path id="Tracé_112" data-name="Tracé 112" d="M8.783-13.033V-9.14H6.729v-2.98a10.929,10.929,0,0,0-.039-1.141,1.227,1.227,0,0,0-.13-.463.832.832,0,0,0-.326-.307.958.958,0,0,0-.463-.111,1.18,1.18,0,0,0-1,.5A2.231,2.231,0,0,0,4.4-12.283V-9.14H2.359v-6.391H4.4v.933a3.262,3.262,0,0,1,.978-.822,2.484,2.484,0,0,1,1.148-.267A2.072,2.072,0,0,1,8.209-15a2.981,2.981,0,0,1,.574,1.97Z" transform="translate(-2.359 15.687)" fill="#fff"/>
      </g>
      <g id="Groupe_103" data-name="Groupe 103" transform="translate(70.531 295.737)">
        <path id="Tracé_113" data-name="Tracé 113" d="M5.494-21.281v1.343H4.366a.915.915,0,0,0-.606.157.72.72,0,0,0-.17.548v.443H5.338v1.461H3.59v4.93H1.549v-4.93H.531V-18.79H1.549v-.443a1.935,1.935,0,0,1,.58-1.546,2.716,2.716,0,0,1,1.806-.5Z" transform="translate(-0.531 21.281)" fill="#fff"/>
      </g>
      <g id="Groupe_104" data-name="Groupe 104" transform="translate(76.379 298.072)">
        <path id="Tracé_114" data-name="Tracé 114" d="M7.107-13.79a2.823,2.823,0,0,0-.541-.183,2.231,2.231,0,0,0-.528-.065,1.488,1.488,0,0,0-1.213.509A2.172,2.172,0,0,0,4.4-12.088V-9.14H2.359v-6.391H4.4v1.05a2.6,2.6,0,0,1,.9-.913,2.433,2.433,0,0,1,1.226-.293,2.173,2.173,0,0,1,.222.013c.082,0,.2.016.352.033Z" transform="translate(-2.359 15.687)" fill="#fff"/>
      </g>
      <g id="Groupe_105" data-name="Groupe 105" transform="translate(81.66 298.072)">
        <path id="Tracé_115" data-name="Tracé 115" d="M4.725-14.227a1.2,1.2,0,0,0-1.037.489,2.353,2.353,0,0,0-.359,1.409,2.353,2.353,0,0,0,.359,1.409,1.207,1.207,0,0,0,1.037.483,1.179,1.179,0,0,0,1.017-.483A2.364,2.364,0,0,0,6.1-12.329a2.364,2.364,0,0,0-.359-1.409A1.176,1.176,0,0,0,4.725-14.227Zm0-1.461a3.561,3.561,0,0,1,2.576.893,3.257,3.257,0,0,1,.926,2.465A3.267,3.267,0,0,1,7.3-9.864a3.572,3.572,0,0,1-2.576.887,3.6,3.6,0,0,1-2.589-.887A3.247,3.247,0,0,1,1.2-12.329a3.237,3.237,0,0,1,.933-2.465A3.589,3.589,0,0,1,4.725-15.688Z" transform="translate(-1.203 15.688)" fill="#fff"/>
      </g>
      <g id="Groupe_106" data-name="Groupe 106" transform="translate(90.158 298.072)">
        <path id="Tracé_116" data-name="Tracé 116" d="M8.263-14.468a2.769,2.769,0,0,1,.92-.906,2.276,2.276,0,0,1,1.174-.313A2.065,2.065,0,0,1,12.032-15a2.955,2.955,0,0,1,.58,1.97V-9.14H10.558v-3.482c0-.055.007-.134.007-.235a1.817,1.817,0,0,0-.2-.978.7.7,0,0,0-.639-.307,1.018,1.018,0,0,0-.9.483A2.5,2.5,0,0,0,8.5-12.277V-9.14H6.443v-3.332a3.175,3.175,0,0,0-.183-1.363.7.7,0,0,0-.652-.307,1.025,1.025,0,0,0-.906.483,2.464,2.464,0,0,0-.32,1.376V-9.14H2.328v-6.391H4.382v.933a2.655,2.655,0,0,1,.861-.815,2.165,2.165,0,0,1,1.076-.274,2.169,2.169,0,0,1,1.174.32,2.013,2.013,0,0,1,.77.9Z" transform="translate(-2.328 15.688)" fill="#fff"/>
      </g>
      <g id="Groupe_107" data-name="Groupe 107" transform="translate(105.589 296.415)">
        <path id="Tracé_117" data-name="Tracé 117" d="M3.434-19.656v1.813H5.54v1.461H3.434v2.713a.789.789,0,0,0,.176.6,1.1,1.1,0,0,0,.7.157h1.05v1.461H3.61a2.4,2.4,0,0,1-1.722-.5,2.386,2.386,0,0,1-.5-1.715v-2.713H.375v-1.461H1.386v-1.813Z" transform="translate(-0.375 19.656)" fill="#fff"/>
      </g>
      <g id="Groupe_108" data-name="Groupe 108" transform="translate(112.003 295.737)">
        <path id="Tracé_118" data-name="Tracé 118" d="M8.783-16.292V-12.4H6.729v-2.967A11.1,11.1,0,0,0,6.69-16.52a1.227,1.227,0,0,0-.13-.463.832.832,0,0,0-.326-.307A.958.958,0,0,0,5.77-17.4a1.18,1.18,0,0,0-1,.5A2.231,2.231,0,0,0,4.4-15.542V-12.4H2.359v-8.882H4.4v3.424a3.262,3.262,0,0,1,.978-.822,2.484,2.484,0,0,1,1.148-.267,2.072,2.072,0,0,1,1.683.685,2.981,2.981,0,0,1,.574,1.97Z" transform="translate(-2.359 21.281)" fill="#fff"/>
      </g>
      <g id="Groupe_109" data-name="Groupe 109" transform="translate(119.84 298.072)">
        <path id="Tracé_119" data-name="Tracé 119" d="M8.064-12.355v.587H3.284a1.52,1.52,0,0,0,.522,1.076,1.928,1.928,0,0,0,1.246.359,4.808,4.808,0,0,0,1.317-.189,6.973,6.973,0,0,0,1.389-.58v1.572A8.61,8.61,0,0,1,6.31-9.12a7.515,7.515,0,0,1-1.448.143,3.857,3.857,0,0,1-2.7-.88A3.187,3.187,0,0,1,1.2-12.329a3.219,3.219,0,0,1,.946-2.459,3.608,3.608,0,0,1,2.6-.9,3.251,3.251,0,0,1,2.413.913,3.277,3.277,0,0,1,.906,2.419Zm-2.1-.678a1.293,1.293,0,0,0-.339-.933,1.169,1.169,0,0,0-.887-.359,1.392,1.392,0,0,0-.965.333,1.53,1.53,0,0,0-.463.959Z" transform="translate(-1.203 15.688)" fill="#fff"/>
      </g>
      <g id="Groupe_110" data-name="Groupe 110" transform="translate(132.409 296.102)">
        <path id="Tracé_120" data-name="Tracé 120" d="M2.578-20.406H5.03l3.1,5.843v-5.843h2.08v8.517H7.756l-3.1-5.843v5.843H2.578Z" transform="translate(-2.578 20.406)" fill="#fff"/>
      </g>
      <g id="Groupe_111" data-name="Groupe 111" transform="translate(141.615 298.072)">
        <path id="Tracé_121" data-name="Tracé 121" d="M4.725-14.227a1.2,1.2,0,0,0-1.037.489,2.353,2.353,0,0,0-.359,1.409,2.353,2.353,0,0,0,.359,1.409,1.207,1.207,0,0,0,1.037.483,1.179,1.179,0,0,0,1.017-.483A2.364,2.364,0,0,0,6.1-12.329a2.364,2.364,0,0,0-.359-1.409A1.176,1.176,0,0,0,4.725-14.227Zm0-1.461a3.561,3.561,0,0,1,2.576.893,3.257,3.257,0,0,1,.926,2.465A3.267,3.267,0,0,1,7.3-9.864a3.572,3.572,0,0,1-2.576.887,3.6,3.6,0,0,1-2.589-.887A3.247,3.247,0,0,1,1.2-12.329a3.237,3.237,0,0,1,.933-2.465A3.589,3.589,0,0,1,4.725-15.688Z" transform="translate(-1.203 15.688)" fill="#fff"/>
      </g>
      <g id="Groupe_112" data-name="Groupe 112" transform="translate(150.056 298.228)">
        <path id="Tracé_122" data-name="Tracé 122" d="M2.188-11.413v-3.9H4.242v.639c0,.349,0,.783-.007,1.3s-.007.871-.007,1.043a10.982,10.982,0,0,0,.039,1.115,1.285,1.285,0,0,0,.137.489.9.9,0,0,0,.333.313.984.984,0,0,0,.463.1,1.187,1.187,0,0,0,1-.489,2.239,2.239,0,0,0,.365-1.363v-3.156H8.611v6.391H6.57v-.926a3.211,3.211,0,0,1-.978.828,2.505,2.505,0,0,1-1.141.261,2.087,2.087,0,0,1-1.683-.678,2.953,2.953,0,0,1-.58-1.976Z" transform="translate(-2.188 15.313)" fill="#fff"/>
      </g>
      <g id="Groupe_113" data-name="Groupe 113" transform="translate(158.447 298.072)">
        <path id="Tracé_123" data-name="Tracé 123" d="M8.783-13.033V-9.14H6.729v-2.98a10.929,10.929,0,0,0-.039-1.141,1.227,1.227,0,0,0-.13-.463.832.832,0,0,0-.326-.307.958.958,0,0,0-.463-.111,1.18,1.18,0,0,0-1,.5A2.231,2.231,0,0,0,4.4-12.283V-9.14H2.359v-6.391H4.4v.933a3.262,3.262,0,0,1,.978-.822,2.484,2.484,0,0,1,1.148-.267A2.072,2.072,0,0,1,8.209-15a2.981,2.981,0,0,1,.574,1.97Z" transform="translate(-2.359 15.687)" fill="#fff"/>
      </g>
      <g id="Groupe_114" data-name="Groupe 114" transform="translate(170.926 296.102)">
        <path id="Tracé_124" data-name="Tracé 124" d="M2.578-20.406H6.224a3.792,3.792,0,0,1,2.491.724,2.511,2.511,0,0,1,.874,2.054,2.526,2.526,0,0,1-.874,2.061,3.792,3.792,0,0,1-2.491.724H4.769v2.954H2.578Zm2.191,1.591v2.38h1.22a1.42,1.42,0,0,0,.985-.313,1.116,1.116,0,0,0,.352-.88,1.107,1.107,0,0,0-.352-.88,1.442,1.442,0,0,0-.985-.307Z" transform="translate(-2.578 20.406)" fill="#fff"/>
      </g>
      <g id="Groupe_115" data-name="Groupe 115" transform="translate(179.401 298.072)">
        <path id="Tracé_125" data-name="Tracé 125" d="M7.107-13.79a2.823,2.823,0,0,0-.541-.183,2.231,2.231,0,0,0-.528-.065,1.488,1.488,0,0,0-1.213.509A2.172,2.172,0,0,0,4.4-12.088V-9.14H2.359v-6.391H4.4v1.05a2.6,2.6,0,0,1,.9-.913,2.433,2.433,0,0,1,1.226-.293,2.173,2.173,0,0,1,.222.013c.082,0,.2.016.352.033Z" transform="translate(-2.359 15.687)" fill="#fff"/>
      </g>
      <g id="Groupe_116" data-name="Groupe 116" transform="translate(184.68 298.072)">
        <path id="Tracé_126" data-name="Tracé 126" d="M4.725-14.227a1.2,1.2,0,0,0-1.037.489,2.353,2.353,0,0,0-.359,1.409,2.353,2.353,0,0,0,.359,1.409,1.207,1.207,0,0,0,1.037.483,1.179,1.179,0,0,0,1.017-.483A2.364,2.364,0,0,0,6.1-12.329a2.364,2.364,0,0,0-.359-1.409A1.176,1.176,0,0,0,4.725-14.227Zm0-1.461a3.561,3.561,0,0,1,2.576.893,3.257,3.257,0,0,1,.926,2.465A3.267,3.267,0,0,1,7.3-9.864a3.572,3.572,0,0,1-2.576.887,3.6,3.6,0,0,1-2.589-.887A3.247,3.247,0,0,1,1.2-12.329a3.237,3.237,0,0,1,.933-2.465A3.589,3.589,0,0,1,4.725-15.688Z" transform="translate(-1.203 15.688)" fill="#fff"/>
      </g>
      <g id="Groupe_117" data-name="Groupe 117" transform="translate(191.816 295.737)">
        <path id="Tracé_127" data-name="Tracé 127" d="M.439-18.79H2.48v6.274a2.818,2.818,0,0,1-.62,1.963,2.288,2.288,0,0,1-1.787.678H-.937v-1.343h.359a1,1,0,0,0,.8-.261,1.706,1.706,0,0,0,.222-1.037Zm0-2.491H2.48v1.669H.439Z" transform="translate(0.937 21.281)" fill="#fff"/>
      </g>
      <g id="Groupe_118" data-name="Groupe 118" transform="translate(196.715 298.072)">
        <path id="Tracé_128" data-name="Tracé 128" d="M8.064-12.355v.587H3.284a1.52,1.52,0,0,0,.522,1.076,1.928,1.928,0,0,0,1.246.359,4.808,4.808,0,0,0,1.317-.189,6.973,6.973,0,0,0,1.389-.58v1.572A8.61,8.61,0,0,1,6.31-9.12a7.515,7.515,0,0,1-1.448.143,3.857,3.857,0,0,1-2.7-.88A3.187,3.187,0,0,1,1.2-12.329a3.219,3.219,0,0,1,.946-2.459,3.608,3.608,0,0,1,2.6-.9,3.251,3.251,0,0,1,2.413.913,3.277,3.277,0,0,1,.906,2.419Zm-2.1-.678a1.293,1.293,0,0,0-.339-.933,1.169,1.169,0,0,0-.887-.359,1.392,1.392,0,0,0-.965.333,1.53,1.53,0,0,0-.463.959Z" transform="translate(-1.203 15.688)" fill="#fff"/>
      </g>
      <g id="Groupe_119" data-name="Groupe 119" transform="translate(204.642 298.072)">
        <path id="Tracé_129" data-name="Tracé 129" d="M6.844-15.329v1.663a3.177,3.177,0,0,0-.835-.424,2.767,2.767,0,0,0-.867-.137,1.766,1.766,0,0,0-1.337.5,1.932,1.932,0,0,0-.476,1.4,1.942,1.942,0,0,0,.476,1.4,1.775,1.775,0,0,0,1.337.5,2.977,2.977,0,0,0,.906-.137,2.676,2.676,0,0,0,.8-.424v1.669a5.523,5.523,0,0,1-.972.261,5.443,5.443,0,0,1-.991.091,3.878,3.878,0,0,1-2.706-.887A3.163,3.163,0,0,1,1.2-12.329,3.175,3.175,0,0,1,2.175-14.8a3.886,3.886,0,0,1,2.706-.887,5.442,5.442,0,0,1,.991.091,5.456,5.456,0,0,1,.972.267Z" transform="translate(-1.203 15.687)" fill="#fff"/>
      </g>
      <g id="Groupe_120" data-name="Groupe 120" transform="translate(211.222 296.415)">
        <path id="Tracé_130" data-name="Tracé 130" d="M3.434-19.656v1.813H5.54v1.461H3.434v2.713a.789.789,0,0,0,.176.6,1.1,1.1,0,0,0,.7.157h1.05v1.461H3.61a2.4,2.4,0,0,1-1.722-.5,2.386,2.386,0,0,1-.5-1.715v-2.713H.375v-1.461H1.386v-1.813Z" transform="translate(-0.375 19.656)" fill="#fff"/>
      </g>
    </g>
  </g>
</svg>
