<svg xmlns="http://www.w3.org/2000/svg" xmlns:xlink="http://www.w3.org/1999/xlink" width="126.393" height="143.598" viewBox="0 0 126.393 143.598">
  <defs>
    <clipPath id="clip-path">
      <rect y="-13" width="126.393" height="143.598" fill="none"/>
    </clipPath>
  </defs>
  <g id="modify_button" data-name="modify button" transform="translate(0 13)" clip-path="url(#clip-path)" style="isolation: isolate">
    <g id="noun-modify-4084230" transform="translate(-70.531 -19.5)">
      <path id="Tracé_296" data-name="Tracé 296" d="M168.454,148.68H117.718A33.756,33.756,0,0,1,84,114.961V64.223A33.758,33.758,0,0,1,117.716,30.5h22.6v3.875h-22.6A29.878,29.878,0,0,0,87.87,64.224v50.737a29.878,29.878,0,0,0,29.846,29.846h50.736A29.878,29.878,0,0,0,198.3,114.961V89.593h3.875v25.369a33.756,33.756,0,0,1-33.722,33.719Z" transform="translate(-10.344 -8.454)" fill="#fff"/>
      <path id="Tracé_297" data-name="Tracé 297" d="M308.142,19.5,244.894,82.748l-.043.194-5.09,23.74,23.74-5.09.194-.042L326.94,38.3ZM263.577,97.393,249.044,82.859l46.2-46.189L309.773,51.2Z" transform="translate(-130.016)" fill="#fff"/>
      <g id="Groupe_277" data-name="Groupe 277" transform="translate(70.731 159.394)">
        <path id="Tracé_298" data-name="Tracé 298" d="M5.417-16.227a3.083,3.083,0,0,1-.7.261,3.158,3.158,0,0,1-.76.091,2.6,2.6,0,0,1-1.872-.659,2.363,2.363,0,0,1-.692-1.792,2.358,2.358,0,0,1,.692-1.792,2.591,2.591,0,0,1,1.872-.663,3.158,3.158,0,0,1,.76.091,3.082,3.082,0,0,1,.7.261v.978a2.783,2.783,0,0,0-.67-.337,2.209,2.209,0,0,0-.7-.109,1.3,1.3,0,0,0-1.025.42,1.664,1.664,0,0,0-.373,1.151,1.67,1.67,0,0,0,.373,1.151,1.3,1.3,0,0,0,1.025.416,2.26,2.26,0,0,0,.7-.1,2.705,2.705,0,0,0,.67-.34Z" transform="translate(-1.391 20.781)" fill="#fff"/>
      </g>
      <g id="Groupe_278" data-name="Groupe 278" transform="translate(75.717 160.574)">
        <path id="Tracé_299" data-name="Tracé 299" d="M4.995-14.634a1.568,1.568,0,0,0-.3-.1,1.239,1.239,0,0,0-.293-.036.826.826,0,0,0-.673.282,1.206,1.206,0,0,0-.235.8v1.637H2.359V-15.6H3.492v.583a1.441,1.441,0,0,1,.5-.507,1.351,1.351,0,0,1,.681-.163,1.206,1.206,0,0,1,.123.007c.045,0,.11.009.2.018Z" transform="translate(-2.359 15.687)" fill="#fff"/>
      </g>
      <g id="Groupe_279" data-name="Groupe 279" transform="translate(78.649 160.574)">
        <path id="Tracé_300" data-name="Tracé 300" d="M5.012-13.837v.326H2.358a.844.844,0,0,0,.29.6,1.07,1.07,0,0,0,.692.2,2.669,2.669,0,0,0,.731-.1,3.871,3.871,0,0,0,.771-.322v.873a4.78,4.78,0,0,1-.8.228,4.172,4.172,0,0,1-.8.08,2.141,2.141,0,0,1-1.5-.489A1.769,1.769,0,0,1,1.2-13.823a1.787,1.787,0,0,1,.525-1.365,2,2,0,0,1,1.441-.5,1.805,1.805,0,0,1,1.34.507,1.819,1.819,0,0,1,.5,1.343Zm-1.166-.377a.718.718,0,0,0-.188-.518.649.649,0,0,0-.492-.2.773.773,0,0,0-.536.185.849.849,0,0,0-.257.532Z" transform="translate(-1.203 15.688)" fill="#fff"/>
      </g>
      <g id="Groupe_280" data-name="Groupe 280" transform="translate(83.049 160.574)">
        <path id="Tracé_301" data-name="Tracé 301" d="M3.06-13.649a.977.977,0,0,0-.536.119.4.4,0,0,0-.177.355.421.421,0,0,0,.145.34.606.606,0,0,0,.4.119.715.715,0,0,0,.539-.228.8.8,0,0,0,.221-.576v-.13Zm1.731-.427v2.024H3.651v-.525a1.465,1.465,0,0,1-.514.471,1.535,1.535,0,0,1-.7.145,1.261,1.261,0,0,1-.894-.319,1.091,1.091,0,0,1-.344-.836,1.025,1.025,0,0,1,.427-.912,2.44,2.44,0,0,1,1.35-.293h.67v-.091a.419.419,0,0,0-.214-.391,1.346,1.346,0,0,0-.663-.127,3.049,3.049,0,0,0-.681.072,2.348,2.348,0,0,0-.579.217v-.865a6.9,6.9,0,0,1,.728-.134,5.951,5.951,0,0,1,.739-.047,2.048,2.048,0,0,1,1.383.38,1.569,1.569,0,0,1,.427,1.231Z" transform="translate(-1.203 15.688)" fill="#fff"/>
      </g>
      <g id="Groupe_281" data-name="Groupe 281" transform="translate(87.235 159.654)">
        <path id="Tracé_302" data-name="Tracé 302" d="M2.073-19.656v1.007H3.243v.811H2.073v1.506a.438.438,0,0,0,.1.333.61.61,0,0,0,.387.087h.583v.811h-.97a1.332,1.332,0,0,1-.956-.279,1.324,1.324,0,0,1-.279-.952v-1.506H.375v-.811H.936v-1.007Z" transform="translate(-0.375 19.656)" fill="#fff"/>
      </g>
      <g id="Groupe_282" data-name="Groupe 282" transform="translate(90.529 160.574)">
        <path id="Tracé_303" data-name="Tracé 303" d="M5.012-13.837v.326H2.358a.844.844,0,0,0,.29.6,1.07,1.07,0,0,0,.692.2,2.669,2.669,0,0,0,.731-.1,3.871,3.871,0,0,0,.771-.322v.873a4.78,4.78,0,0,1-.8.228,4.172,4.172,0,0,1-.8.08,2.141,2.141,0,0,1-1.5-.489A1.769,1.769,0,0,1,1.2-13.823a1.787,1.787,0,0,1,.525-1.365,2,2,0,0,1,1.441-.5,1.805,1.805,0,0,1,1.34.507,1.819,1.819,0,0,1,.5,1.343Zm-1.166-.377a.718.718,0,0,0-.188-.518.649.649,0,0,0-.492-.2.773.773,0,0,0-.536.185.849.849,0,0,0-.257.532Z" transform="translate(-1.203 15.688)" fill="#fff"/>
      </g>
      <g id="Groupe_283" data-name="Groupe 283" transform="translate(94.944 159.278)">
        <path id="Tracé_304" data-name="Tracé 304" d="M3.931-19.38v-1.9H5.071v4.931H3.931v-.514a1.493,1.493,0,0,1-.514.46,1.426,1.426,0,0,1-.655.145,1.319,1.319,0,0,1-1.075-.521,2.064,2.064,0,0,1-.42-1.34,2.071,2.071,0,0,1,.42-1.343,1.319,1.319,0,0,1,1.075-.521,1.384,1.384,0,0,1,.652.148,1.57,1.57,0,0,1,.518.456Zm-.746,2.3a.643.643,0,0,0,.554-.264,1.321,1.321,0,0,0,.192-.775,1.307,1.307,0,0,0-.192-.771.642.642,0,0,0-.554-.268.639.639,0,0,0-.554.268,1.3,1.3,0,0,0-.192.771,1.314,1.314,0,0,0,.192.775A.641.641,0,0,0,3.185-17.081Z" transform="translate(-1.266 21.281)" fill="#fff"/>
      </g>
      <g id="Groupe_284" data-name="Groupe 284" transform="translate(102.101 159.278)">
        <path id="Tracé_305" data-name="Tracé 305" d="M4.246-17.081a.646.646,0,0,0,.558-.264A1.321,1.321,0,0,0,5-18.12a1.307,1.307,0,0,0-.192-.771.645.645,0,0,0-.558-.268.653.653,0,0,0-.561.268,1.311,1.311,0,0,0-.192.771,1.308,1.308,0,0,0,.192.771.65.65,0,0,0,.561.268Zm-.753-2.3a1.607,1.607,0,0,1,.518-.456,1.4,1.4,0,0,1,.655-.148,1.325,1.325,0,0,1,1.079.521,2.076,2.076,0,0,1,.42,1.343,2.069,2.069,0,0,1-.42,1.34,1.325,1.325,0,0,1-1.079.521A1.437,1.437,0,0,1,4.01-16.4a1.568,1.568,0,0,1-.518-.46v.514H2.359v-4.931H3.493Z" transform="translate(-2.359 21.281)" fill="#fff"/>
      </g>
      <g id="Groupe_285" data-name="Groupe 285" transform="translate(106.278 160.661)">
        <path id="Tracé_306" data-name="Tracé 306" d="M.344-15.312H1.477L2.433-12.9l.811-2.408H4.377L2.885-11.427a1.9,1.9,0,0,1-.525.826,1.232,1.232,0,0,1-.789.239H.912v-.746h.355a.733.733,0,0,0,.42-.094.592.592,0,0,0,.206-.326l.033-.1Z" transform="translate(-0.344 15.312)" fill="#fff"/>
      </g>
      <g id="Groupe_286" data-name="Groupe 286" transform="translate(113.284 159.481)">
        <path id="Tracé_307" data-name="Tracé 307" d="M4.309-18.309a.853.853,0,0,0,.55-.141.6.6,0,0,0,.167-.471.568.568,0,0,0-.167-.46.853.853,0,0,0-.55-.141H3.795v1.213Zm-.514.844v1.789H2.578v-4.728H4.439a2.356,2.356,0,0,1,1.369.315,1.132,1.132,0,0,1,.438.988,1.239,1.239,0,0,1-.228.771,1.293,1.293,0,0,1-.681.442.9.9,0,0,1,.445.261,2.379,2.379,0,0,1,.4.608l.663,1.343h-1.3l-.576-1.177a1.268,1.268,0,0,0-.355-.482.785.785,0,0,0-.474-.13Z" transform="translate(-2.578 20.406)" fill="#fff"/>
      </g>
      <g id="Groupe_287" data-name="Groupe 287" transform="translate(117.961 160.574)">
        <path id="Tracé_308" data-name="Tracé 308" d="M3.06-13.649a.977.977,0,0,0-.536.119.4.4,0,0,0-.177.355.421.421,0,0,0,.145.34.606.606,0,0,0,.4.119.715.715,0,0,0,.539-.228.8.8,0,0,0,.221-.576v-.13Zm1.731-.427v2.024H3.651v-.525a1.465,1.465,0,0,1-.514.471,1.535,1.535,0,0,1-.7.145,1.261,1.261,0,0,1-.894-.319,1.091,1.091,0,0,1-.344-.836,1.025,1.025,0,0,1,.427-.912,2.44,2.44,0,0,1,1.35-.293h.67v-.091a.419.419,0,0,0-.214-.391,1.346,1.346,0,0,0-.663-.127,3.049,3.049,0,0,0-.681.072,2.348,2.348,0,0,0-.579.217v-.865a6.9,6.9,0,0,1,.728-.134,5.951,5.951,0,0,1,.739-.047,2.048,2.048,0,0,1,1.383.38,1.569,1.569,0,0,1,.427,1.231Z" transform="translate(-1.203 15.688)" fill="#fff"/>
      </g>
      <g id="Groupe_288" data-name="Groupe 288" transform="translate(122.607 159.278)">
        <path id="Tracé_309" data-name="Tracé 309" d="M2.359-19.9H3.493v3.548H2.359Zm0-1.383H3.493v.927H2.359Z" transform="translate(-2.359 21.281)" fill="#fff"/>
      </g>
      <g id="Groupe_289" data-name="Groupe 289" transform="translate(124.831 160.574)">
        <path id="Tracé_310" data-name="Tracé 310" d="M5.926-14.214v2.162H4.785v-1.655a6.068,6.068,0,0,0-.022-.634.681.681,0,0,0-.072-.257.462.462,0,0,0-.181-.17.532.532,0,0,0-.257-.062.655.655,0,0,0-.558.275,1.239,1.239,0,0,0-.2.757v1.745H2.359V-15.6H3.493v.518a1.811,1.811,0,0,1,.543-.456,1.379,1.379,0,0,1,.637-.148,1.151,1.151,0,0,1,.934.38,1.655,1.655,0,0,1,.319,1.093Z" transform="translate(-2.359 15.687)" fill="#fff"/>
      </g>
      <g id="Groupe_290" data-name="Groupe 290" transform="translate(129.45 159.278)">
        <path id="Tracé_311" data-name="Tracé 311" d="M4.246-17.081a.646.646,0,0,0,.558-.264A1.321,1.321,0,0,0,5-18.12a1.307,1.307,0,0,0-.192-.771.645.645,0,0,0-.558-.268.653.653,0,0,0-.561.268,1.311,1.311,0,0,0-.192.771,1.308,1.308,0,0,0,.192.771.65.65,0,0,0,.561.268Zm-.753-2.3a1.607,1.607,0,0,1,.518-.456,1.4,1.4,0,0,1,.655-.148,1.325,1.325,0,0,1,1.079.521,2.076,2.076,0,0,1,.42,1.343,2.069,2.069,0,0,1-.42,1.34,1.325,1.325,0,0,1-1.079.521A1.437,1.437,0,0,1,4.01-16.4a1.568,1.568,0,0,1-.518-.46v.514H2.359v-4.931H3.493Z" transform="translate(-2.359 21.281)" fill="#fff"/>
      </g>
      <g id="Groupe_291" data-name="Groupe 291" transform="translate(133.826 160.574)">
        <path id="Tracé_312" data-name="Tracé 312" d="M3.158-14.877a.669.669,0,0,0-.576.272,1.306,1.306,0,0,0-.2.782,1.306,1.306,0,0,0,.2.782.67.67,0,0,0,.576.268.655.655,0,0,0,.565-.268,1.313,1.313,0,0,0,.2-.782,1.313,1.313,0,0,0-.2-.782A.653.653,0,0,0,3.158-14.877Zm0-.811a1.977,1.977,0,0,1,1.43.5A1.808,1.808,0,0,1,5.1-13.823a1.814,1.814,0,0,1-.514,1.369,1.983,1.983,0,0,1-1.43.492,2,2,0,0,1-1.437-.492A1.8,1.8,0,0,1,1.2-13.823a1.8,1.8,0,0,1,.518-1.369A1.992,1.992,0,0,1,3.158-15.688Z" transform="translate(-1.203 15.688)" fill="#fff"/>
      </g>
      <g id="Groupe_292" data-name="Groupe 292" transform="translate(138.233 160.661)">
        <path id="Tracé_313" data-name="Tracé 313" d="M.984-15.312h1.1l.594,2.444.6-2.444h.949l.6,2.419.6-2.419h1.1L5.59-11.764H4.352l-.6-2.44-.6,2.44H1.918Z" transform="translate(-0.984 15.312)" fill="#fff"/>
      </g>
      <g id="Groupe_293" data-name="Groupe 293" transform="translate(146.855 159.48)">
        <path id="Tracé_314" data-name="Tracé 314" d="M3.795-19.487V-16.6h.438a1.615,1.615,0,0,0,1.144-.369,1.408,1.408,0,0,0,.395-1.079,1.388,1.388,0,0,0-.395-1.068,1.607,1.607,0,0,0-1.144-.369Zm-1.217-.92H3.863a6.251,6.251,0,0,1,1.6.152,2.1,2.1,0,0,1,.905.521,2,2,0,0,1,.492.739,2.58,2.58,0,0,1,.163.945,2.626,2.626,0,0,1-.163.956,2.023,2.023,0,0,1-.492.742,2.161,2.161,0,0,1-.912.521,6.235,6.235,0,0,1-1.6.152H2.578Z" transform="translate(-2.578 20.407)" fill="#fff"/>
      </g>
      <g id="Groupe_294" data-name="Groupe 294" transform="translate(151.922 160.574)">
        <path id="Tracé_315" data-name="Tracé 315" d="M5.012-13.837v.326H2.358a.844.844,0,0,0,.29.6,1.07,1.07,0,0,0,.692.2,2.669,2.669,0,0,0,.731-.1,3.871,3.871,0,0,0,.771-.322v.873a4.78,4.78,0,0,1-.8.228,4.172,4.172,0,0,1-.8.08,2.141,2.141,0,0,1-1.5-.489A1.769,1.769,0,0,1,1.2-13.823a1.787,1.787,0,0,1,.525-1.365,2,2,0,0,1,1.441-.5,1.805,1.805,0,0,1,1.34.507,1.819,1.819,0,0,1,.5,1.343Zm-1.166-.377a.718.718,0,0,0-.188-.518.649.649,0,0,0-.492-.2.773.773,0,0,0-.536.185.849.849,0,0,0-.257.532Z" transform="translate(-1.203 15.688)" fill="#fff"/>
      </g>
      <g id="Groupe_295" data-name="Groupe 295" transform="translate(156.38 160.574)">
        <path id="Tracé_316" data-name="Tracé 316" d="M4.433-15.488v.862a4.188,4.188,0,0,0-.7-.228,2.95,2.95,0,0,0-.641-.076,1.127,1.127,0,0,0-.482.08.263.263,0,0,0-.156.25.228.228,0,0,0,.119.206A1.132,1.132,0,0,0,3-14.286l.2.029a2.427,2.427,0,0,1,1.173.366.982.982,0,0,1,.3.793.965.965,0,0,1-.42.854,2.234,2.234,0,0,1-1.245.282,5.112,5.112,0,0,1-.731-.054,5.853,5.853,0,0,1-.768-.167v-.862a3.167,3.167,0,0,0,.692.25,3.326,3.326,0,0,0,.728.08,1.076,1.076,0,0,0,.5-.091.3.3,0,0,0,.167-.275.247.247,0,0,0-.116-.224,1.2,1.2,0,0,0-.46-.116l-.2-.025A2.071,2.071,0,0,1,1.757-13.8a.962.962,0,0,1-.3-.778.954.954,0,0,1,.384-.836,2.067,2.067,0,0,1,1.188-.275,4.552,4.552,0,0,1,.655.051,7.236,7.236,0,0,1,.753.148Z" transform="translate(-1.453 15.687)" fill="#fff"/>
      </g>
      <g id="Groupe_296" data-name="Groupe 296" transform="translate(160.452 159.278)">
        <path id="Tracé_317" data-name="Tracé 317" d="M2.359-19.9H3.493v3.548H2.359Zm0-1.383H3.493v.927H2.359Z" transform="translate(-2.359 21.281)" fill="#fff"/>
      </g>
      <g id="Groupe_297" data-name="Groupe 297" transform="translate(162.423 160.581)">
        <path id="Tracé_318" data-name="Tracé 318" d="M3.931-12.629a1.557,1.557,0,0,1-.514.456,1.415,1.415,0,0,1-.655.145,1.333,1.333,0,0,1-1.072-.511,1.979,1.979,0,0,1-.424-1.3,1.966,1.966,0,0,1,.424-1.3,1.333,1.333,0,0,1,1.072-.511,1.394,1.394,0,0,1,.655.148,1.518,1.518,0,0,1,.514.456v-.525H5.071v3.19a1.612,1.612,0,0,1-.539,1.307,2.384,2.384,0,0,1-1.568.453,4.012,4.012,0,0,1-.641-.051,4.111,4.111,0,0,1-.626-.156v-.883a2.834,2.834,0,0,0,.583.253,2.055,2.055,0,0,0,.576.083,1.162,1.162,0,0,0,.815-.243,1,1,0,0,0,.261-.764Zm-.746-2.209a.653.653,0,0,0-.55.261,1.2,1.2,0,0,0-.2.735,1.222,1.222,0,0,0,.188.739.659.659,0,0,0,.558.25.65.65,0,0,0,.55-.257,1.2,1.2,0,0,0,.2-.731,1.2,1.2,0,0,0-.2-.735.648.648,0,0,0-.55-.261Z" transform="translate(-1.266 15.656)" fill="#fff"/>
      </g>
      <g id="Groupe_298" data-name="Groupe 298" transform="translate(167.321 160.574)">
        <path id="Tracé_319" data-name="Tracé 319" d="M5.926-14.214v2.162H4.785v-1.655a6.068,6.068,0,0,0-.022-.634.681.681,0,0,0-.072-.257.462.462,0,0,0-.181-.17.532.532,0,0,0-.257-.062.655.655,0,0,0-.558.275,1.239,1.239,0,0,0-.2.757v1.745H2.359V-15.6H3.493v.518a1.811,1.811,0,0,1,.543-.456,1.379,1.379,0,0,1,.637-.148,1.151,1.151,0,0,1,.934.38,1.655,1.655,0,0,1,.319,1.093Z" transform="translate(-2.359 15.687)" fill="#fff"/>
      </g>
      <g id="Groupe_299" data-name="Groupe 299" transform="translate(171.729 160.574)">
        <path id="Tracé_320" data-name="Tracé 320" d="M4.433-15.488v.862a4.188,4.188,0,0,0-.7-.228,2.95,2.95,0,0,0-.641-.076,1.127,1.127,0,0,0-.482.08.263.263,0,0,0-.156.25.228.228,0,0,0,.119.206A1.132,1.132,0,0,0,3-14.286l.2.029a2.427,2.427,0,0,1,1.173.366.982.982,0,0,1,.3.793.965.965,0,0,1-.42.854,2.234,2.234,0,0,1-1.245.282,5.112,5.112,0,0,1-.731-.054,5.853,5.853,0,0,1-.768-.167v-.862a3.167,3.167,0,0,0,.692.25,3.326,3.326,0,0,0,.728.08,1.076,1.076,0,0,0,.5-.091.3.3,0,0,0,.167-.275.247.247,0,0,0-.116-.224,1.2,1.2,0,0,0-.46-.116l-.2-.025A2.071,2.071,0,0,1,1.757-13.8a.962.962,0,0,1-.3-.778.954.954,0,0,1,.384-.836,2.067,2.067,0,0,1,1.188-.275,4.552,4.552,0,0,1,.655.051,7.236,7.236,0,0,1,.753.148Z" transform="translate(-1.453 15.687)" fill="#fff"/>
      </g>
      <g id="Groupe_300" data-name="Groupe 300" transform="translate(70.531 165.766)">
        <path id="Tracé_321" data-name="Tracé 321" d="M3.287-21.281v.746H2.66a.508.508,0,0,0-.337.087.4.4,0,0,0-.094.3v.246H3.2v.811H2.23v2.737H1.1v-2.737H.531V-19.9H1.1v-.246A1.074,1.074,0,0,1,1.418-21a1.508,1.508,0,0,1,1-.279Z" transform="translate(-0.531 21.281)" fill="#fff"/>
      </g>
      <g id="Groupe_301" data-name="Groupe 301" transform="translate(73.778 167.062)">
        <path id="Tracé_322" data-name="Tracé 322" d="M4.995-14.634a1.568,1.568,0,0,0-.3-.1,1.239,1.239,0,0,0-.293-.036.826.826,0,0,0-.673.282,1.206,1.206,0,0,0-.235.8v1.637H2.359V-15.6H3.492v.583a1.441,1.441,0,0,1,.5-.507,1.351,1.351,0,0,1,.681-.163,1.206,1.206,0,0,1,.123.007c.045,0,.11.009.2.018Z" transform="translate(-2.359 15.687)" fill="#fff"/>
      </g>
      <g id="Groupe_302" data-name="Groupe 302" transform="translate(76.71 167.062)">
        <path id="Tracé_323" data-name="Tracé 323" d="M3.158-14.877a.669.669,0,0,0-.576.272,1.306,1.306,0,0,0-.2.782,1.306,1.306,0,0,0,.2.782.67.67,0,0,0,.576.268.655.655,0,0,0,.565-.268,1.313,1.313,0,0,0,.2-.782,1.313,1.313,0,0,0-.2-.782A.653.653,0,0,0,3.158-14.877Zm0-.811a1.977,1.977,0,0,1,1.43.5A1.808,1.808,0,0,1,5.1-13.823a1.814,1.814,0,0,1-.514,1.369,1.983,1.983,0,0,1-1.43.492,2,2,0,0,1-1.437-.492A1.8,1.8,0,0,1,1.2-13.823a1.8,1.8,0,0,1,.518-1.369A1.992,1.992,0,0,1,3.158-15.688Z" transform="translate(-1.203 15.688)" fill="#fff"/>
      </g>
      <g id="Groupe_303" data-name="Groupe 303" transform="translate(81.428 167.062)">
        <path id="Tracé_324" data-name="Tracé 324" d="M5.623-15.011a1.537,1.537,0,0,1,.511-.5,1.264,1.264,0,0,1,.652-.174,1.147,1.147,0,0,1,.93.38,1.64,1.64,0,0,1,.322,1.093v2.162H6.9v-1.933c0-.031,0-.074,0-.13a1.009,1.009,0,0,0-.112-.543.39.39,0,0,0-.355-.17.565.565,0,0,0-.5.268,1.391,1.391,0,0,0-.181.768v1.742H4.613V-13.9a1.763,1.763,0,0,0-.1-.757.387.387,0,0,0-.362-.17.569.569,0,0,0-.5.268,1.368,1.368,0,0,0-.177.764v1.745H2.328V-15.6H3.469v.518a1.474,1.474,0,0,1,.478-.453,1.2,1.2,0,0,1,.6-.152,1.2,1.2,0,0,1,.652.177,1.117,1.117,0,0,1,.427.5Z" transform="translate(-2.328 15.688)" fill="#fff"/>
      </g>
      <g id="Groupe_304" data-name="Groupe 304" transform="translate(89.995 166.142)">
        <path id="Tracé_325" data-name="Tracé 325" d="M2.073-19.656v1.007H3.243v.811H2.073v1.506a.438.438,0,0,0,.1.333.61.61,0,0,0,.387.087h.583v.811h-.97a1.332,1.332,0,0,1-.956-.279,1.324,1.324,0,0,1-.279-.952v-1.506H.375v-.811H.936v-1.007Z" transform="translate(-0.375 19.656)" fill="#fff"/>
      </g>
      <g id="Groupe_305" data-name="Groupe 305" transform="translate(93.556 165.766)">
        <path id="Tracé_326" data-name="Tracé 326" d="M5.926-18.511v2.162H4.785V-18a6.163,6.163,0,0,0-.022-.641.681.681,0,0,0-.072-.257.462.462,0,0,0-.181-.17.532.532,0,0,0-.257-.062.655.655,0,0,0-.558.275,1.239,1.239,0,0,0-.2.757v1.745H2.359v-4.931H3.493v1.9a1.811,1.811,0,0,1,.543-.456,1.379,1.379,0,0,1,.637-.148,1.151,1.151,0,0,1,.934.38,1.655,1.655,0,0,1,.319,1.093Z" transform="translate(-2.359 21.281)" fill="#fff"/>
      </g>
      <g id="Groupe_306" data-name="Groupe 306" transform="translate(97.907 167.062)">
        <path id="Tracé_327" data-name="Tracé 327" d="M5.012-13.837v.326H2.358a.844.844,0,0,0,.29.6,1.07,1.07,0,0,0,.692.2,2.669,2.669,0,0,0,.731-.1,3.871,3.871,0,0,0,.771-.322v.873a4.78,4.78,0,0,1-.8.228,4.172,4.172,0,0,1-.8.08,2.141,2.141,0,0,1-1.5-.489A1.769,1.769,0,0,1,1.2-13.823a1.787,1.787,0,0,1,.525-1.365,2,2,0,0,1,1.441-.5,1.805,1.805,0,0,1,1.34.507,1.819,1.819,0,0,1,.5,1.343Zm-1.166-.377a.718.718,0,0,0-.188-.518.649.649,0,0,0-.492-.2.773.773,0,0,0-.536.185.849.849,0,0,0-.257.532Z" transform="translate(-1.203 15.688)" fill="#fff"/>
      </g>
      <g id="Groupe_307" data-name="Groupe 307" transform="translate(104.885 165.969)">
        <path id="Tracé_328" data-name="Tracé 328" d="M2.578-20.406H3.939l1.72,3.244v-3.244H6.814v4.728H5.453l-1.72-3.244v3.244H2.578Z" transform="translate(-2.578 20.406)" fill="#fff"/>
      </g>
      <g id="Groupe_308" data-name="Groupe 308" transform="translate(109.996 167.062)">
        <path id="Tracé_329" data-name="Tracé 329" d="M3.158-14.877a.669.669,0,0,0-.576.272,1.306,1.306,0,0,0-.2.782,1.306,1.306,0,0,0,.2.782.67.67,0,0,0,.576.268.655.655,0,0,0,.565-.268,1.313,1.313,0,0,0,.2-.782,1.313,1.313,0,0,0-.2-.782A.653.653,0,0,0,3.158-14.877Zm0-.811a1.977,1.977,0,0,1,1.43.5A1.808,1.808,0,0,1,5.1-13.823a1.814,1.814,0,0,1-.514,1.369,1.983,1.983,0,0,1-1.43.492,2,2,0,0,1-1.437-.492A1.8,1.8,0,0,1,1.2-13.823a1.8,1.8,0,0,1,.518-1.369A1.992,1.992,0,0,1,3.158-15.688Z" transform="translate(-1.203 15.688)" fill="#fff"/>
      </g>
      <g id="Groupe_309" data-name="Groupe 309" transform="translate(114.682 167.149)">
        <path id="Tracé_330" data-name="Tracé 330" d="M2.188-13.147v-2.165H3.328v.355c0,.194,0,.434,0,.724s0,.483,0,.579a6.1,6.1,0,0,0,.022.619.714.714,0,0,0,.076.272.5.5,0,0,0,.185.174.546.546,0,0,0,.257.058.659.659,0,0,0,.558-.272,1.243,1.243,0,0,0,.2-.757v-1.752H5.754v3.548H4.621v-.514a1.783,1.783,0,0,1-.543.46,1.391,1.391,0,0,1-.634.145,1.159,1.159,0,0,1-.934-.377,1.64,1.64,0,0,1-.322-1.1Z" transform="translate(-2.188 15.313)" fill="#fff"/>
      </g>
      <g id="Groupe_310" data-name="Groupe 310" transform="translate(119.341 167.062)">
        <path id="Tracé_331" data-name="Tracé 331" d="M5.926-14.214v2.162H4.785v-1.655a6.068,6.068,0,0,0-.022-.634.681.681,0,0,0-.072-.257.462.462,0,0,0-.181-.17.532.532,0,0,0-.257-.062.655.655,0,0,0-.558.275,1.239,1.239,0,0,0-.2.757v1.745H2.359V-15.6H3.493v.518a1.811,1.811,0,0,1,.543-.456,1.379,1.379,0,0,1,.637-.148,1.151,1.151,0,0,1,.934.38,1.655,1.655,0,0,1,.319,1.093Z" transform="translate(-2.359 15.687)" fill="#fff"/>
      </g>
      <g id="Groupe_311" data-name="Groupe 311" transform="translate(126.269 165.969)">
        <path id="Tracé_332" data-name="Tracé 332" d="M2.578-20.406H4.6a2.105,2.105,0,0,1,1.383.4,1.394,1.394,0,0,1,.485,1.141,1.4,1.4,0,0,1-.485,1.144,2.105,2.105,0,0,1-1.383.4H3.795v1.64H2.578Zm1.217.883V-18.2h.677a.788.788,0,0,0,.547-.174.62.62,0,0,0,.2-.489.615.615,0,0,0-.2-.489.8.8,0,0,0-.547-.17Z" transform="translate(-2.578 20.406)" fill="#fff"/>
      </g>
      <g id="Groupe_312" data-name="Groupe 312" transform="translate(130.974 167.062)">
        <path id="Tracé_333" data-name="Tracé 333" d="M4.995-14.634a1.568,1.568,0,0,0-.3-.1,1.239,1.239,0,0,0-.293-.036.826.826,0,0,0-.673.282,1.206,1.206,0,0,0-.235.8v1.637H2.359V-15.6H3.492v.583a1.441,1.441,0,0,1,.5-.507,1.351,1.351,0,0,1,.681-.163,1.206,1.206,0,0,1,.123.007c.045,0,.11.009.2.018Z" transform="translate(-2.359 15.687)" fill="#fff"/>
      </g>
      <g id="Groupe_313" data-name="Groupe 313" transform="translate(133.905 167.062)">
        <path id="Tracé_334" data-name="Tracé 334" d="M3.158-14.877a.669.669,0,0,0-.576.272,1.306,1.306,0,0,0-.2.782,1.306,1.306,0,0,0,.2.782.67.67,0,0,0,.576.268.655.655,0,0,0,.565-.268,1.313,1.313,0,0,0,.2-.782,1.313,1.313,0,0,0-.2-.782A.653.653,0,0,0,3.158-14.877Zm0-.811a1.977,1.977,0,0,1,1.43.5A1.808,1.808,0,0,1,5.1-13.823a1.814,1.814,0,0,1-.514,1.369,1.983,1.983,0,0,1-1.43.492,2,2,0,0,1-1.437-.492A1.8,1.8,0,0,1,1.2-13.823a1.8,1.8,0,0,1,.518-1.369A1.992,1.992,0,0,1,3.158-15.688Z" transform="translate(-1.203 15.688)" fill="#fff"/>
      </g>
      <g id="Groupe_314" data-name="Groupe 314" transform="translate(137.867 165.766)">
        <path id="Tracé_335" data-name="Tracé 335" d="M-.174-19.9H.96v3.483a1.565,1.565,0,0,1-.344,1.09,1.27,1.27,0,0,1-.992.377H-.937v-.746h.2A.553.553,0,0,0-.3-15.839a.947.947,0,0,0,.123-.576Zm0-1.383H.96v.927H-.174Z" transform="translate(0.937 21.281)" fill="#fff"/>
      </g>
      <g id="Groupe_315" data-name="Groupe 315" transform="translate(140.587 167.062)">
        <path id="Tracé_336" data-name="Tracé 336" d="M5.012-13.837v.326H2.358a.844.844,0,0,0,.29.6,1.07,1.07,0,0,0,.692.2,2.669,2.669,0,0,0,.731-.1,3.871,3.871,0,0,0,.771-.322v.873a4.78,4.78,0,0,1-.8.228,4.172,4.172,0,0,1-.8.08,2.141,2.141,0,0,1-1.5-.489A1.769,1.769,0,0,1,1.2-13.823a1.787,1.787,0,0,1,.525-1.365,2,2,0,0,1,1.441-.5,1.805,1.805,0,0,1,1.34.507,1.819,1.819,0,0,1,.5,1.343Zm-1.166-.377a.718.718,0,0,0-.188-.518.649.649,0,0,0-.492-.2.773.773,0,0,0-.536.185.849.849,0,0,0-.257.532Z" transform="translate(-1.203 15.688)" fill="#fff"/>
      </g>
      <g id="Groupe_316" data-name="Groupe 316" transform="translate(144.988 167.062)">
        <path id="Tracé_337" data-name="Tracé 337" d="M4.335-15.488v.923a1.764,1.764,0,0,0-.463-.235,1.536,1.536,0,0,0-.482-.076.981.981,0,0,0-.742.279,1.072,1.072,0,0,0-.264.775,1.078,1.078,0,0,0,.264.775.985.985,0,0,0,.742.275,1.653,1.653,0,0,0,.5-.076,1.486,1.486,0,0,0,.442-.235v.927a3.067,3.067,0,0,1-.539.145,3.022,3.022,0,0,1-.55.051,2.153,2.153,0,0,1-1.5-.492A1.756,1.756,0,0,1,1.2-13.823a1.763,1.763,0,0,1,.539-1.372,2.157,2.157,0,0,1,1.5-.492,3.022,3.022,0,0,1,.55.051,3.029,3.029,0,0,1,.539.148Z" transform="translate(-1.203 15.687)" fill="#fff"/>
      </g>
      <g id="Groupe_317" data-name="Groupe 317" transform="translate(148.641 166.142)">
        <path id="Tracé_338" data-name="Tracé 338" d="M2.073-19.656v1.007H3.243v.811H2.073v1.506a.438.438,0,0,0,.1.333.61.61,0,0,0,.387.087h.583v.811h-.97a1.332,1.332,0,0,1-.956-.279,1.324,1.324,0,0,1-.279-.952v-1.506H.375v-.811H.936v-1.007Z" transform="translate(-0.375 19.656)" fill="#fff"/>
      </g>
    </g>
  </g>
</svg>
